<svg width="100" height="95" viewBox="0 0 100 95" fill="none" xmlns="http://www.w3.org/2000/svg">
<path d="M50 6.625C35.1289 6.625 21.7266 14.5195 14.3828 27.1875C6.85547 40.0391 6.85547 55.6445 14.3828 68.3125C21.7266 81.1641 35.1289 88.875 50 88.875C64.6875 88.875 78.0898 81.1641 85.4336 68.3125C92.9609 55.6445 92.9609 40.0391 85.4336 27.1875C78.0898 14.5195 64.6875 6.625 50 6.625ZM50 94.75C33.1094 94.75 17.6875 85.9375 9.24219 71.25C0.796875 56.7461 0.796875 38.9375 9.24219 24.25C17.6875 9.74609 33.1094 0.75 50 0.75C66.707 0.75 82.1289 9.74609 90.5742 24.25C99.0195 38.9375 99.0195 56.7461 90.5742 71.25C82.1289 85.9375 66.707 94.75 50 94.75ZM47.0625 65.375V50.6875H32.375C30.7227 50.6875 29.4375 49.4023 29.4375 47.75C29.4375 46.2812 30.7227 44.8125 32.375 44.8125H47.0625V30.125C47.0625 28.6562 48.3477 27.1875 50 27.1875C51.4688 27.1875 52.9375 28.6562 52.9375 30.125V44.8125H67.625C69.0938 44.8125 70.5625 46.2812 70.5625 47.75C70.5625 49.4023 69.0938 50.6875 67.625 50.6875H52.9375V65.375C52.9375 67.0273 51.4688 68.3125 50 68.3125C48.3477 68.3125 47.0625 67.0273 47.0625 65.375Z" fill="url(#paint0_linear_66_5313)"/>
<defs>
<linearGradient id="paint0_linear_66_5313" x1="41.7233" y1="10" x2="91.0146" y2="75.9502" gradientUnits="userSpaceOnUse">
<stop stop-color="#6B71FF"/>
<stop offset="1" stop-color="#00F78B"/>
</linearGradient>
</defs>
</svg>
