<svg width="79" height="83" viewBox="0 0 79 83" fill="none" xmlns="http://www.w3.org/2000/svg">
<path d="M71.5938 41.375C71.5938 29.957 65.4219 19.4648 55.5469 13.6016C45.5176 7.89258 33.3281 7.89258 23.4531 13.6016C13.4238 19.4648 7.40625 29.957 7.40625 41.375C7.40625 52.9473 13.4238 63.4395 23.4531 69.3027C33.3281 75.0117 45.5176 75.0117 55.5469 69.3027C65.4219 63.4395 71.5938 52.9473 71.5938 41.375ZM0 41.375C0 27.334 7.40625 14.373 19.75 7.27539C31.9395 0.177734 46.9062 0.177734 59.25 7.27539C71.4395 14.373 79 27.334 79 41.375C79 55.5703 71.4395 68.5312 59.25 75.6289C46.9062 82.7266 31.9395 82.7266 19.75 75.6289C7.40625 68.5312 0 55.5703 0 41.375ZM44.5918 57.5762C43.0488 59.1191 40.7344 59.1191 39.3457 57.5762C37.8027 56.1875 37.8027 53.873 39.3457 52.3301L46.5977 45.0781H23.4531C21.293 45.0781 19.75 43.5352 19.75 41.375C19.75 39.3691 21.293 37.6719 23.4531 37.6719H46.5977L39.3457 30.4199C37.8027 29.0312 37.8027 26.7168 39.3457 25.3281C40.7344 23.7852 43.0488 23.7852 44.5918 25.3281L58.1699 38.9062C59.5586 40.2949 59.5586 42.6094 58.1699 43.998L44.5918 57.5762Z" fill="url(#paint0_linear_172_148)"/>
<defs>
<linearGradient id="paint0_linear_172_148" x1="32.544" y1="-1.85714" x2="91.2738" y2="55.9274" gradientUnits="userSpaceOnUse">
<stop stop-color="#6B71FF"/>
<stop offset="1" stop-color="#00F78B"/>
</linearGradient>
</defs>
</svg>
