<svg width="79" height="83" viewBox="0 0 79 83" fill="none" xmlns="http://www.w3.org/2000/svg">
<path d="M7.40625 41.375C7.40625 52.9473 13.4238 63.4395 23.4531 69.3027C33.3281 75.0117 45.5176 75.0117 55.5469 69.3027C65.4219 63.4395 71.5938 52.9473 71.5938 41.375C71.5938 29.957 65.4219 19.4648 55.5469 13.6016C45.5176 7.89258 33.3281 7.89258 23.4531 13.6016C13.4238 19.4648 7.40625 29.957 7.40625 41.375ZM79 41.375C79 55.5703 71.4395 68.5312 59.25 75.6289C46.9062 82.7266 31.9395 82.7266 19.75 75.6289C7.40625 68.5312 0 55.5703 0 41.375C0 27.334 7.40625 14.373 19.75 7.27539C31.9395 0.177734 46.9062 0.177734 59.25 7.27539C71.4395 14.373 79 27.334 79 41.375ZM34.4082 25.1738V25.3281C35.7969 23.7852 38.1113 23.7852 39.5 25.3281C41.043 26.7168 41.043 29.0312 39.5 30.4199L32.248 37.6719H55.5469C57.5527 37.6719 59.25 39.3691 59.25 41.375C59.25 43.5352 57.5527 45.0781 55.5469 45.0781H32.248L39.5 52.3301C41.043 53.873 41.043 56.1875 39.5 57.5762C38.1113 59.1191 35.7969 59.1191 34.4082 57.5762L20.8301 43.998C19.2871 42.6094 19.2871 40.2949 20.8301 38.752L34.4082 25.1738Z" fill="url(#paint0_linear_172_149)"/>
<defs>
<linearGradient id="paint0_linear_172_149" x1="32.544" y1="-1.85714" x2="91.2738" y2="55.9274" gradientUnits="userSpaceOnUse">
<stop stop-color="#6B71FF"/>
<stop offset="1" stop-color="#00F78B"/>
</linearGradient>
</defs>
</svg>
