<svg width="39" height="37" viewBox="0 0 39 37" fill="none" xmlns="http://www.w3.org/2000/svg">
<g clip-path="url(#clip0_8_134)">
<path fill-rule="evenodd" clip-rule="evenodd" d="M27.9433 -0.000241655H9.44845C9.04639 5.4935 5.09278 9.2663 0 10.5901C1.40722 22.5704 8.04124 32.1679 19.5 36.9998C29.2165 32.8298 36.3866 25.0194 38.4639 15.2234C40.3402 7.01586 36.9897 -0.0664313 27.9433 -0.000241655ZM37.1237 14.9586C35.0464 24.4899 28.3454 31.5722 19.5 35.5436C9.38144 31.1751 3.14948 22.5704 1.47423 11.5168C6.23196 9.9282 9.85051 6.35396 10.6546 1.32355H27.9433C36.1186 1.32355 38.799 7.61156 37.1237 14.9586Z" fill="white"/>
<path fill-rule="evenodd" clip-rule="evenodd" d="M30.8247 12.6422H21.3093L21.6443 14.0322L30.8247 13.3703C31.2938 13.3041 31.2938 12.6422 30.8247 12.6422ZM21.3763 7.14848L23.7887 6.3542C24.1237 6.22182 23.9897 6.02325 23.8557 6.02325H21.5773L21.3093 3.57424C21.3093 3.44186 21.1082 3.37567 21.0412 3.57424L20.3041 6.02325H17.9588C17.7577 6.02325 17.7577 6.28801 17.9588 6.3542L20.1031 7.14848L15.0773 12.7084H4.42268C4.02062 12.7084 3.9536 13.4365 4.42268 13.4365L13.6701 14.5617C13.335 15.0912 12.866 15.6869 12.6649 16.2826C12.4639 16.9445 13 17.4079 13.4691 17.3417C14.2732 17.1431 15.6804 15.4884 16.2165 14.7603L16.4175 14.4293L18.3608 14.297C18.4948 13.6351 18.6959 13.1055 18.7629 12.7084H17.4897L21.3763 7.14848Z" fill="white"/>
<path fill-rule="evenodd" clip-rule="evenodd" d="M20.5051 22.4383L19.5 17.5402L18.2938 22.4383H20.5051ZM26.6031 23.9606L28.9484 21.1807V21.1145C28.9484 20.7835 28.7474 20.5188 28.2113 20.5188V19.8569H31.0928V20.5188C30.3557 20.5188 30.3557 20.7835 30.3557 21.5116V24.7549C30.3557 25.483 30.4227 25.7478 31.0928 25.7478V26.4097H28.2113V25.7478C28.8814 25.7478 28.9484 25.483 28.9484 24.7549V22.2397L26.6031 25.0859V25.2182C26.6031 25.6154 26.8041 25.8139 27.3402 25.8139V26.4758H20.2371V25.8139C20.7732 25.8139 21.1082 25.7478 21.1082 25.2844C21.1082 24.9535 20.9742 24.2254 20.7732 23.3649H18.1598L17.8247 24.6887C17.5567 25.5492 17.6907 25.8801 18.5618 25.8801V26.542H12.5979V25.8801C13.335 25.8801 13.402 25.6154 13.402 24.8873V21.8426L11.5928 26.2773L9.78349 21.7102V24.9535C9.78349 25.5492 9.8505 25.8801 10.5206 25.8801V26.542H8.30927V25.8801C9.04638 25.8801 9.11339 25.4168 9.11339 24.8211V21.644C9.11339 21.0483 9.11339 20.6512 8.37628 20.6512V19.9893H10.7216L11.9948 23.3649L13.268 19.9893H15.5464V20.6512C14.8093 20.6512 14.8093 20.9159 14.8093 21.644V24.8873C14.8093 25.483 14.8763 25.6816 15.0773 25.7478C15.4794 25.8801 16.3505 25.8801 16.5515 25.4168C16.6856 25.152 16.8866 24.6225 17.0876 23.9606L20.1031 11.9141L22.8505 23.5635C23.1185 24.8211 23.3196 25.152 23.5876 25.4168C23.8557 25.6816 24.7938 25.8139 25.0618 25.483C25.1289 25.4168 25.1959 25.2844 25.1959 24.6887V21.4454C25.1959 20.7173 25.1289 20.4526 24.4587 20.4526V19.7907H27.3402V20.4526C26.6031 20.4526 26.6031 20.7173 26.6031 21.4454V23.9606Z" fill="white"/>
</g>
<defs>
<clipPath id="clip0_8_134">
<rect width="39" height="37" fill="white"/>
</clipPath>
</defs>
</svg>
