<svg width="133" height="40" viewBox="0 0 133 40" fill="none" xmlns="http://www.w3.org/2000/svg">
<path d="M13.9674 0C6.23608 0 0 6.2831 0 13.9909C0 21.6986 6.27255 27.9817 13.9674 27.9817C21.6987 27.9817 27.9347 21.6986 27.9347 13.9909C27.9347 6.2831 21.6987 0 13.9674 0ZM13.9674 20.3105C10.5029 20.3105 7.65835 17.4977 7.65835 13.9909C7.65835 10.484 10.4664 7.67123 13.9674 7.67123C17.4319 7.67123 20.2764 10.484 20.2764 13.9909C20.2764 17.4977 17.4683 20.3105 13.9674 20.3105Z" fill="white"/>
<path d="M25.8561 37.0776L22.3186 30.2466C19.8023 31.5251 16.9942 32.2922 13.9674 32.2922C10.9405 32.2922 8.09598 31.5617 5.57966 30.2466C3.97506 33.3516 2.51632 36.2009 2.04224 37.0776C5.61613 38.9407 9.66412 40 13.9674 40C18.2706 39.9635 22.2822 38.9041 25.8561 37.0776Z" fill="white"/>
<path d="M45.8042 15.3059C45.0019 15.1233 44.382 14.8676 43.8714 14.5753L44.8925 12.2374C45.3301 12.5297 45.8772 12.7488 46.4971 12.895C47.1171 13.0411 47.737 13.1507 48.3205 13.1507C48.8676 13.1507 49.2687 13.0776 49.4875 12.968C49.7063 12.8584 49.8522 12.6758 49.8522 12.4566C49.8522 12.2374 49.7063 12.0913 49.4146 11.9817C49.1228 11.9087 48.6852 11.7991 48.0653 11.726C47.2994 11.6164 46.6065 11.5068 46.0595 11.3607C45.5125 11.2146 45.0384 10.9224 44.6372 10.484C44.2361 10.0457 44.0537 9.46117 44.0537 8.69404C44.0537 8.07304 44.2361 7.5251 44.6008 7.01369C44.9654 6.5388 45.5125 6.13697 46.2418 5.84473C46.9712 5.5525 47.81 5.40637 48.8311 5.40637C49.5605 5.40637 50.2534 5.47943 50.9463 5.62555C51.6391 5.77167 52.2226 5.99085 52.6967 6.24656L51.6756 8.58446C50.8004 8.10957 49.8522 7.85387 48.8676 7.85387C48.3205 7.85387 47.9194 7.92692 47.6641 8.03651C47.4088 8.1461 47.2994 8.32875 47.2994 8.54793C47.2994 8.7671 47.4453 8.94976 47.7006 9.02282C47.9923 9.09588 48.4299 9.20546 49.0864 9.31505C49.8887 9.42464 50.5451 9.57076 51.0921 9.71688C51.6392 9.863 52.0768 10.1552 52.4779 10.5936C52.8791 10.9954 53.0614 11.5799 53.0614 12.347C53.0614 12.968 52.8791 13.516 52.5144 13.9908C52.1497 14.4657 51.6027 14.8676 50.8733 15.1233C50.144 15.4155 49.2687 15.5251 48.2476 15.5251C47.4088 15.5982 46.6065 15.5251 45.8042 15.3059Z" fill="white"/>
<path d="M63.1632 6.06391C63.8925 6.46574 64.476 7.08674 64.9136 7.85386C65.3513 8.62099 65.5701 9.4977 65.5701 10.5205C65.5701 11.5434 65.3513 12.4201 64.9136 13.1872C64.476 13.9543 63.8925 14.5388 63.1632 14.9772C62.4338 15.379 61.6315 15.5982 60.7198 15.5982C59.5893 15.5982 58.6776 15.2694 57.9847 14.5753V18.9589H54.5566V5.62555H57.8388V6.61186C58.4952 5.84473 59.4434 5.47944 60.7198 5.47944C61.6315 5.44291 62.4338 5.66209 63.1632 6.06391ZM61.4856 12.2374C61.8868 11.8356 62.0691 11.2511 62.0691 10.5205C62.0691 9.78993 61.8868 9.24199 61.4856 8.80364C61.0845 8.40181 60.6104 8.18263 59.9904 8.18263C59.3705 8.18263 58.8964 8.40181 58.4952 8.80364C58.0941 9.20546 57.9117 9.78993 57.9117 10.5205C57.9117 11.2511 58.0941 11.7991 58.4952 12.2374C58.8964 12.6393 59.3705 12.8584 59.9904 12.8584C60.6104 12.8584 61.1209 12.6758 61.4856 12.2374Z" fill="white"/>
<path d="M71.7697 5.80823C72.3167 5.58905 72.9731 5.47946 73.7025 5.47946V8.58448C73.3743 8.54795 73.119 8.54795 72.9367 8.54795C72.2073 8.54795 71.6238 8.7306 71.2226 9.13243C70.8215 9.53426 70.6027 10.1553 70.6027 10.9589V15.4521H67.1747V5.62558H70.4568V6.79453C70.7485 6.35618 71.2226 6.0274 71.7697 5.80823Z" fill="white"/>
<path d="M75.3071 4.01826C74.9059 3.65297 74.7236 3.25114 74.7236 2.70319C74.7236 2.19178 74.9059 1.75342 75.3071 1.38813C75.7083 1.02283 76.1823 0.876709 76.8388 0.876709C77.4587 0.876709 77.9693 1.05936 78.3704 1.38813C78.7716 1.71689 78.9539 2.15525 78.9539 2.66667C78.9539 3.21461 78.7716 3.65297 78.3704 4.01826C77.9693 4.38356 77.4952 4.56621 76.8388 4.56621C76.1823 4.52968 75.7083 4.34703 75.3071 4.01826ZM75.1248 5.62557H78.5528V15.452H75.1248V5.62557Z" fill="white"/>
<path d="M90.0768 6.53881C90.8061 7.26941 91.1708 8.3653 91.1708 9.82648V15.4521H87.7428V10.411C87.7428 9.05936 87.1958 8.40183 86.1382 8.40183C85.5547 8.40183 85.0806 8.58448 84.7159 8.98631C84.3512 9.38813 84.1689 9.93607 84.1689 10.7397V15.4886H80.7409V5.6621H84.023V6.72146C84.4242 6.31963 84.8618 6.0274 85.4088 5.80822C85.9558 5.58904 86.5029 5.47945 87.1593 5.47945C88.3628 5.44292 89.3474 5.80822 90.0768 6.53881Z" fill="white"/>
<path d="M100.106 15.0502C99.8138 15.2329 99.4491 15.379 99.048 15.452C98.6468 15.5616 98.1727 15.5982 97.7351 15.5982C96.4587 15.5982 95.4741 15.2694 94.7812 14.6484C94.0883 14.0274 93.7601 13.0776 93.7601 11.8356V8.54793H92.3378V5.99085H93.7601V3.43378H97.1881V5.99085H99.4491V8.54793H97.1881V11.7991C97.1881 12.1644 97.2975 12.4201 97.4798 12.6393C97.6622 12.8219 97.9175 12.9315 98.2457 12.9315C98.6468 12.9315 98.975 12.8219 99.3033 12.6393L100.106 15.0502Z" fill="white"/>
<path d="M54.1555 23.5616V33.1689H52.5144V31.7078C52.1497 32.2192 51.7121 32.5845 51.1286 32.8402C50.5451 33.0959 49.9252 33.242 49.2687 33.242C47.9923 33.242 46.9712 32.8767 46.2418 32.1827C45.5125 31.4886 45.1478 30.4292 45.1478 29.0411V23.5616H46.8983V28.895C46.8983 29.8082 47.1171 30.5388 47.5547 31.0137C47.9923 31.4886 48.6488 31.7443 49.4875 31.7443C50.3992 31.7443 51.1286 31.4521 51.6756 30.9041C52.2227 30.3562 52.4779 29.5525 52.4779 28.5662V23.5616H54.1555Z" fill="white"/>
<path d="M65.4607 24.5114C66.19 25.2055 66.5547 26.2648 66.5547 27.6164V33.1324H64.8042V27.7991C64.8042 26.8858 64.5854 26.1552 64.1478 25.6804C63.7102 25.2055 63.0537 24.9863 62.215 24.9863C61.2668 24.9863 60.5374 25.2785 59.9904 25.8265C59.4434 26.3744 59.1881 27.1781 59.1881 28.2009V33.1324H57.4376V23.5616H59.1152V25.0228C59.4799 24.5114 59.9539 24.1461 60.5374 23.8904C61.1209 23.6347 61.8138 23.4886 62.5797 23.4886C63.7831 23.4521 64.7678 23.8174 65.4607 24.5114Z" fill="white"/>
<path d="M69.8004 21.3699C69.5816 21.1507 69.4722 20.895 69.4722 20.5662C69.4722 20.2375 69.5816 19.9818 69.8004 19.7626C70.0192 19.5434 70.3109 19.4338 70.6391 19.4338C70.9674 19.4338 71.2591 19.5434 71.4779 19.7626C71.6967 19.9818 71.8061 20.2375 71.8061 20.5662C71.8061 20.895 71.6967 21.1507 71.4779 21.4064C71.2591 21.6256 70.9674 21.7352 70.6391 21.7352C70.3109 21.6986 70.0192 21.5891 69.8004 21.3699ZM69.7639 23.5617H71.5144V33.169H69.7639V23.5617Z" fill="white"/>
<path d="M83.2937 23.5616L79.0998 33.1689H77.3129L73.1555 23.5616H74.9789L78.2611 31.2694L81.6161 23.5616H83.2937Z" fill="white"/>
<path d="M93.286 28.9315H85.5182C85.6277 29.7717 85.9923 30.4658 86.6123 30.9772C87.2323 31.4886 88.0346 31.7443 88.9827 31.7443C90.1133 31.7443 91.0614 31.3425 91.7543 30.5754L92.7025 31.7078C92.2649 32.2192 91.7179 32.5845 91.0979 32.8767C90.4415 33.1324 89.7486 33.2785 88.9463 33.2785C87.9252 33.2785 87.0499 33.0594 86.2476 32.6575C85.4818 32.2557 84.8618 31.6712 84.4242 30.9041C83.9866 30.1735 83.7678 29.2968 83.7678 28.3836C83.7678 27.4703 83.9866 26.6301 84.3877 25.863C84.7889 25.1324 85.3724 24.548 86.1017 24.1096C86.8311 23.7078 87.6699 23.4886 88.5816 23.4886C89.4933 23.4886 90.3321 23.7078 91.025 24.1096C91.7543 24.5114 92.3013 25.0959 92.7025 25.863C93.1037 26.6301 93.3225 27.4703 93.3225 28.4201C93.3225 28.5297 93.3225 28.7123 93.286 28.9315ZM86.5029 25.6804C85.9559 26.1918 85.6277 26.8493 85.5182 27.6895H91.6814C91.572 26.8858 91.2438 26.2283 90.6967 25.7169C90.1497 25.2055 89.4568 24.9498 88.6181 24.9498C87.7793 24.9498 87.0499 25.169 86.5029 25.6804Z" fill="white"/>
<path d="M98.7198 23.8904C99.3033 23.5982 100.033 23.4521 100.871 23.4521V25.1324C100.762 25.1324 100.653 25.1324 100.47 25.1324C99.5221 25.1324 98.7927 25.4247 98.2457 25.9726C97.6987 26.5206 97.4434 27.3242 97.4434 28.3836V33.169H95.6929V23.5617H97.3704V25.169C97.6987 24.5845 98.1363 24.1827 98.7198 23.8904Z" fill="white"/>
<path d="M103.57 32.9498C102.841 32.7306 102.294 32.4749 101.856 32.1461L102.585 30.758C103.023 31.0503 103.534 31.306 104.117 31.4886C104.737 31.6713 105.321 31.7443 105.94 31.7443C107.472 31.7443 108.202 31.306 108.202 30.4292C108.202 30.137 108.092 29.9178 107.91 29.7352C107.691 29.5525 107.436 29.4429 107.144 29.3699C106.852 29.2968 106.415 29.1872 105.831 29.1142C105.065 29.0046 104.445 28.8585 103.935 28.7124C103.461 28.5662 103.023 28.274 102.695 27.9087C102.33 27.5434 102.184 26.9955 102.184 26.3379C102.184 25.4612 102.549 24.7671 103.278 24.2557C104.008 23.7443 104.956 23.4521 106.196 23.4521C106.852 23.4521 107.472 23.5251 108.129 23.6713C108.785 23.8174 109.296 24.0366 109.697 24.2923L108.967 25.6804C108.202 25.169 107.253 24.9133 106.196 24.9133C105.466 24.9133 104.883 25.0229 104.518 25.2786C104.117 25.5343 103.935 25.8265 103.935 26.2283C103.935 26.5571 104.044 26.7763 104.263 26.9589C104.482 27.1416 104.737 27.2877 105.065 27.3608C105.393 27.4338 105.831 27.5434 106.415 27.653C107.18 27.7991 107.8 27.9452 108.274 28.0913C108.749 28.2375 109.15 28.4932 109.478 28.8585C109.806 29.2238 109.988 29.7352 109.988 30.3927C109.988 31.2694 109.624 31.9635 108.894 32.4749C108.165 32.9863 107.144 33.242 105.868 33.242C105.065 33.242 104.299 33.1325 103.57 32.9498Z" fill="white"/>
<path d="M112.177 21.3699C111.958 21.1507 111.848 20.895 111.848 20.5662C111.848 20.2375 111.958 19.9818 112.177 19.7626C112.395 19.5434 112.687 19.4338 113.015 19.4338C113.344 19.4338 113.635 19.5434 113.854 19.7626C114.073 19.9818 114.182 20.2375 114.182 20.5662C114.182 20.895 114.073 21.1507 113.854 21.4064C113.635 21.6256 113.344 21.7352 113.015 21.7352C112.687 21.7352 112.395 21.5891 112.177 21.3699ZM112.14 23.5617H113.891V33.169H112.14V23.5617Z" fill="white"/>
<path d="M122.57 32.5845C122.315 32.8037 121.987 32.9863 121.622 33.0959C121.257 33.2055 120.856 33.2785 120.455 33.2785C119.507 33.2785 118.741 33.0228 118.23 32.5114C117.683 32 117.428 31.2329 117.428 30.2831V25.0228H115.787V23.5616H117.428V21.4429H119.179V23.5616H121.914V24.9863H119.179V30.1735C119.179 30.6849 119.324 31.0868 119.58 31.379C119.835 31.6712 120.2 31.7808 120.71 31.7808C121.257 31.7808 121.695 31.6347 122.059 31.3425L122.57 32.5845Z" fill="white"/>
<path d="M133 23.5616L128.369 34.1187C127.967 35.105 127.493 35.7991 126.946 36.2009C126.399 36.6027 125.743 36.7854 124.977 36.7854C124.503 36.7854 124.065 36.7123 123.628 36.5662C123.19 36.4201 122.825 36.2009 122.534 35.9087L123.263 34.5936C123.773 35.0685 124.321 35.2877 124.977 35.2877C125.415 35.2877 125.743 35.1781 126.035 34.9589C126.326 34.7397 126.582 34.3379 126.8 33.8265L127.092 33.1689L122.825 23.5616H124.649L128.004 31.2329L131.322 23.5616H133Z" fill="white"/>
</svg>
