<svg width="709" height="618" viewBox="0 0 709 618" fill="none" xmlns="http://www.w3.org/2000/svg">
<path d="M628.98 55.2883H532.353C528.47 55.2883 524.809 53.7185 522.036 51.0275L503.398 32.1899C501.069 29.8352 497.962 28.4897 494.634 28.4897H453.92C453.254 28.4897 452.811 28.0412 452.811 27.3684C452.811 26.6956 453.254 26.2471 453.92 26.2471H494.634C498.517 26.2471 502.178 27.8169 504.951 30.508L523.589 49.4577C525.919 51.8124 529.025 53.1579 532.353 53.1579H628.98C632.308 53.1579 635.414 51.8124 637.744 49.4577L656.381 30.6201C659.155 27.8169 662.816 26.3593 666.699 26.3593H707.413C708.078 26.3593 708.522 26.8078 708.522 27.4805C708.522 28.1533 708.078 28.6018 707.413 28.6018H666.699C663.371 28.6018 660.264 29.9474 657.935 32.3021L639.297 51.1396C636.524 53.8307 632.863 55.2883 628.98 55.2883Z" fill="#2F2F2F"/>
<path d="M264.438 617.611H228.716H228.605C164.927 599.11 107.239 559.529 65.9705 506.043C23.1486 450.428 0.406311 384.497 0.406311 315.426V300.625C0.406311 232.451 22.7048 167.192 64.9721 112.137C105.464 59.2128 162.265 19.6316 224.833 0.794039C226.054 0.457655 227.385 0.233398 228.716 0.233398H275.532C278.971 0.233398 282.299 1.57894 284.74 3.93363L303.266 21.762C305.374 23.7803 308.037 24.9016 310.921 24.9016H334.218C334.884 24.9016 335.327 25.3501 335.327 26.0229C335.327 26.6956 334.884 27.1442 334.218 27.1442H310.921C307.482 27.1442 304.154 25.7986 301.713 23.4439L283.298 5.50342C281.19 3.48512 278.527 2.36383 275.643 2.36383H228.827C227.718 2.36383 226.608 2.47596 225.61 2.81235C163.485 21.6499 107.018 60.8947 66.858 113.371C24.8126 168.201 2.62507 232.899 2.62507 300.625V315.426C2.62507 384.048 25.1454 449.419 67.7455 504.586C108.682 557.622 165.925 596.867 229.049 615.256H264.438C268.987 615.256 272.648 611.556 272.648 606.959V594.176C272.648 591.373 273.757 588.682 275.754 586.776L296.499 565.808C298.496 563.789 301.048 562.668 303.821 562.668H361.065C361.731 562.668 362.174 563.117 362.174 563.789C362.174 564.462 361.731 564.911 361.065 564.911H303.821C301.602 564.911 299.605 565.808 298.052 567.378L277.307 588.346C275.754 589.915 274.866 592.046 274.866 594.176V606.959C274.866 612.902 270.207 617.611 264.438 617.611Z" fill="#2F2F2F"/>
</svg>
