<svg width="429" height="169" viewBox="0 0 429 169" fill="none" xmlns="http://www.w3.org/2000/svg">
<g clip-path="url(#clip0_16_5116)">
<path d="M185.027 146.588C185.127 146.622 185.26 146.688 185.393 146.721V157.479C185.393 158.774 185.826 160.002 186.692 161.164C186.992 161.563 187.358 161.961 187.758 162.326C188.124 162.691 188.557 163.024 189.023 163.356C190.089 164.119 191.421 164.85 192.953 165.48C193.253 165.613 193.552 165.713 193.852 165.846C194.485 166.078 195.118 166.311 195.817 166.51C196.483 166.709 197.182 166.908 197.915 167.107C199.014 167.373 200.146 167.639 201.345 167.871C202.144 168.004 202.944 168.17 203.776 168.269C204.609 168.402 205.441 168.502 206.307 168.601L208.971 168.834C208.971 168.834 208.971 168.834 209.005 168.834C209.904 168.9 210.836 168.934 211.735 168.967C212.668 169 213.634 169 214.566 169C216.431 169 218.296 168.934 220.161 168.801L222.825 168.568C234.148 167.34 243.706 163.588 243.706 157.446V146.688C243.839 146.655 243.939 146.588 244.072 146.555L249.367 144.098C254.795 140.977 256.094 137.557 256.094 134.968V123.347L260.324 124.376C260.124 124.741 259.99 125.173 259.924 125.604C259.724 126.899 260.224 128.161 261.256 128.958L264.886 131.813C266.418 133.009 268.216 133.805 270.081 134.171L270.547 134.237C270.847 134.27 271.113 134.303 271.413 134.337C271.713 134.37 271.979 134.37 272.279 134.37C272.446 134.37 272.612 134.37 272.745 134.37C273.278 134.337 273.811 134.303 274.344 134.204C274.477 134.171 274.577 134.171 274.71 134.137L276.975 133.54L280.705 132.544L283.302 131.846L286.799 130.884L320.9 139.251V144.43C320.9 147.85 325.196 150.307 331.024 151.735V161.031C331.024 164.584 337.518 166.211 343.579 166.211C349.64 166.211 356.134 164.584 356.134 161.031V151.735C361.962 150.34 366.258 147.85 366.258 144.43V113.22C366.258 110.531 363.561 108.406 359.564 106.945C358.732 106.413 357.633 105.882 356.234 105.384C355.768 105.218 355.268 105.085 354.769 104.919V103.16L427.434 69.3929C428.334 68.9612 428.933 68.098 429 67.1351C429.066 66.139 428.6 65.2094 427.767 64.6781L423.305 61.8559C421.373 60.5278 418.909 60.1958 416.711 60.9263L363.394 79.254C361.196 80.0176 359.298 81.3789 357.866 83.205L353.37 88.9823C352.937 88.6502 352.438 88.3846 351.871 88.119C351.372 87.2225 350.606 86.3925 349.873 85.7948C348.075 84.3007 345.81 83.5039 343.513 83.5039C341.181 83.5039 338.95 84.3339 337.152 85.7948C336.419 86.3925 335.687 87.2225 335.154 88.119C333.422 88.8826 332.29 89.9783 332.29 91.406V94.6267L311.109 103.126C295.324 96.9508 277.075 89.8787 265.585 85.5624L295.457 71.1194C296.123 72.3811 297.722 73.7424 301.052 74.9045C301.785 75.1369 302.551 75.3693 303.35 75.5685V83.0058C303.35 86.0936 308.845 87.5213 313.94 87.5213C319.035 87.5213 324.53 86.0936 324.53 83.0058V75.5685C325.33 75.3693 326.096 75.1369 326.828 74.9045C331.824 73.1779 332.889 70.9534 332.889 69.3597V50.9323L370.021 60.9927C370.92 61.2583 371.82 61.3579 372.719 61.3579C374.95 61.3579 377.148 60.6274 378.946 59.1997L381.943 56.8424C382.843 56.1119 383.309 55.0162 383.142 53.8542C382.976 52.6921 382.243 51.7624 381.144 51.3308L324.763 28.6868V25.6654C324.763 23.142 322.466 21.6479 319.535 20.8842C318.17 19.6889 316.205 18.7925 313.94 18.7925C311.676 18.7925 309.711 19.6889 308.345 20.8842C307.08 21.2162 305.948 21.6811 305.082 22.3119L302.351 18.7593C301.152 17.1988 299.554 16.0699 297.689 15.439L253.73 0.33196C251.831 -0.298885 249.733 -0.0332661 248.068 1.12882L244.405 3.45298C243.639 3.95102 243.206 4.78108 243.273 5.67754C243.339 6.574 243.872 7.37086 244.705 7.73608L303.117 34.8956V36.3897C301.185 37.0538 299.62 37.9502 298.688 39.0791C295.691 40.6064 294.991 42.3329 294.991 43.6278V51.198L241.774 65.8734C240.575 65.2426 239.177 64.6449 237.511 64.0805C231.317 61.9555 223.158 60.7935 214.5 60.7935C205.841 60.7935 197.649 61.9555 191.488 64.0805C189.856 64.6449 188.424 65.2426 187.225 65.8734L133.975 51.198V43.6278C133.975 42.3329 133.275 40.6064 130.278 39.0791C129.312 37.9502 127.747 37.0538 125.849 36.3897V34.8956L184.261 7.73608C185.06 7.37086 185.626 6.574 185.693 5.67754C185.76 4.78108 185.327 3.91781 184.561 3.45298L180.898 1.12882C179.266 -6.37993e-05 177.168 -0.298885 175.269 0.33196L131.344 15.439C129.479 16.0699 127.88 17.232 126.681 18.7593L123.951 22.3119C123.185 21.7807 122.352 21.4155 121.719 21.183C121.386 21.0834 121.053 20.9838 120.687 20.8842C119.322 19.6889 117.357 18.7925 115.092 18.7925C112.828 18.7925 110.863 19.6889 109.497 20.8842C106.567 21.6479 104.269 23.1752 104.269 25.6654V28.6868L47.8883 51.3308C46.8226 51.7624 46.0566 52.7253 45.8901 53.8542C45.7236 55.0162 46.1565 56.1119 47.089 56.8424L50.0529 59.1997C51.8512 60.6274 54.0492 61.3579 56.2804 61.3579C57.1796 61.3579 58.0788 61.2251 58.9779 60.9927L96.11 50.8991V69.3265C96.11 70.887 97.1756 73.1447 102.171 74.8713C102.904 75.1037 103.67 75.3361 104.469 75.5353V83.0058C104.469 86.0936 109.964 87.5213 115.059 87.5213C120.154 87.5213 125.649 86.0936 125.649 83.0058V75.5685C126.448 75.3693 127.214 75.1369 127.947 74.9045C131.277 73.7424 132.842 72.3811 133.542 71.1194L163.414 85.5624C151.925 89.8455 133.675 96.9508 117.89 103.126L96.7094 94.6267V91.406C96.7094 89.9783 95.5771 88.8826 93.8454 88.119C93.3459 87.2225 92.5799 86.3925 91.8473 85.7948C90.0489 84.3007 87.7844 83.5039 85.4865 83.5039C83.1554 83.5039 80.9241 84.3339 79.1258 85.7948C78.3932 86.3925 77.6605 87.2225 77.1277 88.119C76.5615 88.3846 76.062 88.6502 75.6291 88.9823L71.1332 83.205C69.7013 81.3789 67.803 80.0176 65.6051 79.254L12.3214 60.8931C10.0902 60.1294 7.62579 60.4946 5.69426 61.8227L1.23176 64.6449C0.399199 65.1762 -0.067033 66.1058 -0.000428429 67.1019C0.0661761 68.098 0.665617 68.9612 1.56478 69.3597L74.2637 103.193V104.953C73.7641 105.085 73.2646 105.251 72.7984 105.417C71.3997 105.915 70.3007 106.413 69.4681 106.978C65.4719 108.439 62.7744 110.531 62.7744 113.253V144.463C62.7744 147.883 67.0704 150.34 72.8983 151.768V161.065C72.8983 164.617 79.3922 166.244 85.4532 166.244C91.5142 166.244 98.0082 164.617 98.0082 161.065V151.768C103.836 150.373 108.132 147.883 108.132 144.463V139.317L142.234 130.95L145.73 131.913L148.328 132.61L152.058 133.606L154.256 134.171C154.356 134.204 154.422 134.204 154.522 134.237C155.122 134.337 155.688 134.403 156.287 134.436C156.454 134.436 156.62 134.436 156.753 134.436C157.053 134.436 157.32 134.436 157.619 134.403C157.852 134.37 158.086 134.37 158.319 134.337L158.951 134.237C160.816 133.872 162.615 133.108 164.147 131.88L167.776 129.024C168.809 128.227 169.308 126.966 169.109 125.671C169.042 125.239 168.909 124.808 168.709 124.442L172.938 123.413V135.034C172.938 136.76 173.538 138.421 174.703 139.948C175.103 140.479 175.603 141.044 176.135 141.542C176.668 142.04 177.234 142.504 177.9 142.969C178.467 143.368 179.066 143.766 179.699 144.131M354.736 91.5388L359.964 84.7987C361.063 83.3711 362.528 82.3086 364.26 81.7441L417.577 63.4164C419.009 62.9184 420.574 63.1508 421.84 64.0141L426.369 66.8695C426.369 66.8695 426.402 66.8695 426.402 66.9027C426.402 66.9359 426.402 66.9359 426.369 66.9359L354.802 100.205V91.5388H354.736ZM182.996 147.153C183.062 147.219 183.129 147.252 183.129 147.286L182.996 147.153ZM241.308 157.744C241.308 157.844 241.275 157.944 241.275 158.043C241.208 158.342 241.141 158.641 241.008 158.906C240.875 159.172 240.708 159.471 240.509 159.736C240.276 160.035 240.042 160.334 239.709 160.6C239.41 160.899 239.077 161.164 238.677 161.43C238.311 161.695 237.878 161.961 237.445 162.227C237.012 162.492 236.512 162.725 236.013 162.957C235.513 163.19 234.947 163.422 234.381 163.654C234.181 163.721 233.948 163.82 233.715 163.887C233.049 164.119 232.316 164.352 231.584 164.551C230.252 164.916 228.82 165.248 227.321 165.547C226.955 165.613 226.555 165.68 226.155 165.746C225.389 165.879 224.557 165.979 223.758 166.111C223.425 166.145 223.125 166.178 222.792 166.211C222.359 166.244 221.893 166.311 221.46 166.344C221.393 166.344 221.327 166.344 221.227 166.377C220.86 166.41 220.494 166.443 220.128 166.477C218.329 166.609 216.464 166.676 214.533 166.676C213.6 166.676 212.701 166.676 211.802 166.643C210.903 166.609 210.004 166.576 209.138 166.51C209.071 166.51 209.005 166.51 208.938 166.51C208.505 166.477 208.039 166.443 207.606 166.41C207.24 166.377 206.907 166.344 206.54 166.311C206.44 166.311 206.341 166.277 206.274 166.277C205.541 166.211 204.809 166.111 204.076 166.012C203.277 165.879 202.477 165.779 201.745 165.613C200.613 165.414 199.514 165.148 198.481 164.883C197.782 164.717 197.116 164.518 196.483 164.318C196.15 164.219 195.85 164.119 195.551 164.02C195.251 163.92 194.951 163.82 194.651 163.688C194.352 163.588 194.085 163.455 193.819 163.356C192.453 162.791 191.288 162.16 190.355 161.496C189.989 161.231 189.623 160.965 189.323 160.666C189.09 160.467 188.923 160.268 188.724 160.035C188.657 159.969 188.59 159.869 188.524 159.803C188.457 159.703 188.391 159.604 188.324 159.537C188.257 159.438 188.191 159.338 188.157 159.272C188.058 159.072 187.958 158.906 187.891 158.707C187.791 158.408 187.725 158.11 187.691 157.844C187.691 157.744 187.691 157.645 187.691 157.545V147.584C188.624 147.883 189.589 148.149 190.589 148.414C192.154 148.813 193.786 149.178 195.484 149.51C196.616 149.709 197.815 149.909 198.981 150.075C200.18 150.241 201.412 150.407 202.644 150.539C203.909 150.672 205.175 150.772 206.474 150.871C207.773 150.971 209.105 151.037 210.437 151.071C211.769 151.104 213.134 151.137 214.5 151.137C224.457 151.137 233.915 149.875 241.308 147.584V157.545C241.308 157.545 241.308 157.645 241.308 157.744ZM255.461 120.524C255.395 120.524 255.328 120.491 255.262 120.491C255.228 120.491 255.228 120.491 255.195 120.491C255.162 120.491 255.095 120.491 255.062 120.491C254.929 120.491 254.862 120.491 254.762 120.524H254.729C254.629 120.558 254.529 120.558 254.462 120.624C254.462 120.624 254.429 120.624 254.429 120.657C254.329 120.69 254.262 120.724 254.196 120.79L254.163 120.823C254.096 120.89 253.996 120.923 253.929 121.023C253.863 121.089 253.796 121.155 253.73 121.255L253.696 121.288C253.63 121.355 253.596 121.454 253.563 121.521C253.563 121.521 253.563 121.554 253.53 121.554C253.497 121.653 253.463 121.72 253.43 121.819V121.853C253.397 121.952 253.397 122.052 253.397 122.151V135.001C253.397 135.1 253.397 135.233 253.397 135.333C253.397 135.432 253.363 135.565 253.363 135.665C253.33 135.897 253.263 136.13 253.197 136.329C253.13 136.561 253.064 136.76 252.964 136.993C252.864 137.225 252.764 137.424 252.631 137.657C252.298 138.188 251.898 138.719 251.365 139.251C251.265 139.35 251.165 139.45 251.065 139.549C250.832 139.749 250.599 139.948 250.366 140.147C250.233 140.247 250.133 140.346 250 140.446C249.6 140.745 249.201 141.044 248.734 141.309C248.268 141.575 247.802 141.874 247.302 142.139C246.636 142.504 245.904 142.836 245.138 143.202C244.905 143.301 244.671 143.401 244.438 143.501C244.205 143.6 243.939 143.7 243.706 143.799C243.439 143.899 243.173 143.999 242.906 144.098C242.64 144.198 242.34 144.297 242.074 144.397C241.841 144.463 241.641 144.563 241.408 144.629C241.175 144.696 240.975 144.762 240.742 144.862C240.509 144.928 240.276 144.995 240.042 145.061C235.813 146.323 230.784 147.286 225.256 147.817C223.558 147.983 221.826 148.116 220.061 148.182C219.162 148.215 218.263 148.248 217.364 148.282C216.464 148.315 215.532 148.315 214.633 148.315C213.301 148.315 211.969 148.282 210.67 148.248C210.637 148.248 210.603 148.248 210.603 148.248C209.338 148.215 208.072 148.149 206.84 148.049C206.207 148.016 205.575 147.95 204.975 147.916C204.342 147.85 203.743 147.817 203.143 147.75C202.011 147.618 200.912 147.485 199.813 147.319C199.747 147.319 199.647 147.286 199.58 147.286C199.014 147.186 198.415 147.12 197.848 147.02C197.282 146.92 196.716 146.821 196.183 146.721C195.85 146.655 195.517 146.588 195.184 146.522C194.685 146.422 194.218 146.323 193.752 146.223C193.353 146.124 192.953 146.057 192.587 145.957C192.187 145.858 191.821 145.758 191.454 145.692C190.955 145.559 190.455 145.426 189.989 145.293C189.523 145.161 189.023 145.028 188.59 144.862C188.357 144.795 188.124 144.729 187.924 144.629C187.258 144.397 186.592 144.198 185.96 143.932C185.826 143.899 185.726 143.833 185.593 143.799C185.427 143.733 185.26 143.667 185.094 143.6C184.96 143.567 184.861 143.501 184.727 143.467C184.228 143.268 183.762 143.036 183.295 142.836C182.596 142.504 181.963 142.172 181.364 141.84C180.764 141.508 180.198 141.143 179.699 140.778C179.565 140.678 179.432 140.579 179.299 140.479C179.166 140.38 179.033 140.28 178.933 140.18C178.7 139.981 178.467 139.782 178.233 139.583C178 139.383 177.8 139.184 177.634 138.952C177.534 138.852 177.434 138.753 177.368 138.62C177.301 138.487 177.201 138.421 177.101 138.288C176.701 137.757 176.402 137.192 176.202 136.661C176.102 136.395 176.035 136.096 175.969 135.831C175.902 135.532 175.902 135.266 175.902 134.968V122.118C175.902 122.019 175.902 121.919 175.869 121.819V121.786C175.836 121.687 175.802 121.587 175.769 121.521C175.769 121.487 175.769 121.487 175.736 121.487C175.702 121.388 175.636 121.321 175.603 121.255L175.569 121.222C175.503 121.155 175.436 121.056 175.369 120.989C175.303 120.923 175.203 120.857 175.136 120.79L175.103 120.757C175.036 120.691 174.936 120.657 174.87 120.624C174.87 120.624 174.837 120.624 174.837 120.591C174.737 120.558 174.67 120.524 174.57 120.491H174.537C174.437 120.458 174.337 120.458 174.237 120.458C174.171 120.458 174.137 120.458 174.071 120.458C174.037 120.458 174.037 120.458 174.004 120.458C173.937 120.458 173.871 120.491 173.804 120.491L166.145 122.351L165.379 122.052L162.948 121.056L162.148 120.724L161.715 120.558L160.45 120.06L156.42 118.433L155.155 117.935L153.889 117.437L143.532 113.419L159.884 108.173L162.015 107.476L164.18 106.779L171.307 104.488L173.138 103.89C173.305 103.857 173.438 103.824 173.604 103.791C174.137 103.724 174.637 103.824 175.103 104.056C175.403 104.222 175.702 104.455 175.902 104.753C176.035 104.953 178.2 107.078 178.766 107.476C180.198 108.505 181.963 109.435 184.028 110.298C184.428 110.464 184.861 110.63 185.293 110.796C186.159 111.128 187.058 111.427 187.991 111.726C188.923 112.025 189.922 112.29 190.922 112.556C192.453 112.954 194.052 113.32 195.717 113.618C196.849 113.818 197.982 114.017 199.147 114.183C200.313 114.349 201.545 114.515 202.777 114.648C204.009 114.78 205.275 114.88 206.54 114.98C207.839 115.079 209.138 115.146 210.437 115.179C213.068 115.279 215.832 115.279 218.463 115.179C219.761 115.146 221.06 115.079 222.359 114.98C223.624 114.88 224.89 114.78 226.122 114.648C227.354 114.515 228.553 114.349 229.752 114.183C230.918 114.017 232.083 113.818 233.182 113.618C234.847 113.32 236.479 112.954 237.978 112.556C238.977 112.29 239.976 112.025 240.908 111.726C241.841 111.427 242.773 111.128 243.606 110.796C244.039 110.63 244.438 110.464 244.871 110.298C246.936 109.435 248.734 108.472 250.133 107.476C250.732 107.044 251.265 106.613 251.732 106.181C252.231 105.716 252.631 105.251 252.997 104.787L252.065 104.089L253.03 104.753C253.263 104.455 253.53 104.255 253.83 104.089C254.262 103.857 254.795 103.757 255.328 103.824C255.495 103.857 255.628 103.857 255.794 103.923L257.626 104.521L264.753 106.812L266.917 107.509L269.049 108.206L285.4 113.452L275.276 117.536L274.011 118.034L272.745 118.532L268.716 120.159L267.45 120.657L266.884 120.89L266.218 121.155L263.654 122.185L263.021 122.45L255.461 120.524ZM320.834 136.561L292.027 129.489L315.639 123.081L320.867 124.774V136.561H320.834ZM320.834 122.317L319.735 121.952L320.834 121.653V122.317ZM353.437 160.998C353.437 161.662 350.04 163.522 343.546 163.522C337.052 163.522 333.655 161.629 333.655 160.998V152.266C336.786 152.83 340.182 153.096 343.546 153.096C346.909 153.096 350.306 152.797 353.437 152.266V160.998ZM362.162 111.195C363.094 111.892 363.561 112.589 363.561 113.22V144.43C363.561 145.924 360.863 147.784 356.101 149.012C355.668 149.112 355.235 149.245 354.769 149.344C354.336 149.444 353.903 149.543 353.437 149.61C350.639 150.141 347.309 150.44 343.546 150.44C339.783 150.44 336.453 150.108 333.655 149.61C333.189 149.51 332.756 149.444 332.323 149.344C331.857 149.245 331.424 149.145 330.991 149.012C326.195 147.75 323.531 145.924 323.531 144.43V139.948V137.225V125.638V123.181V120.956L328.16 119.694C330.158 119.163 332.057 118.267 333.755 117.138C335.92 117.636 338.351 117.968 340.882 118.068C341.748 118.101 342.647 118.134 343.546 118.134C343.579 118.134 343.579 118.134 343.613 118.134C348.341 118.134 352.837 117.47 356.201 116.308C360.797 114.747 361.995 112.722 362.162 111.195ZM353.603 108.074C353.803 107.908 353.97 107.708 354.136 107.542C355.968 108.074 357.4 108.671 358.299 109.302C359.098 109.833 359.498 110.398 359.498 110.863C359.498 112.755 353.27 115.478 343.513 115.478C343.18 115.478 342.88 115.478 342.58 115.478C340.282 115.445 338.218 115.245 336.386 114.946C336.852 114.515 337.285 114.05 337.685 113.552C337.885 113.32 338.084 113.087 338.251 112.855C338.284 112.822 338.317 112.788 338.351 112.755L340.082 110.398C340.316 110.431 340.582 110.464 340.815 110.464C341.714 110.564 342.613 110.597 343.513 110.597C347.476 110.564 351.672 109.767 353.603 108.074ZM337.085 88.8162C337.452 88.2518 338.018 87.621 338.75 87.0565C339.949 86.1601 341.581 85.4628 343.546 85.4628C345.511 85.4628 347.143 86.1601 348.341 87.0565C349.074 87.621 349.64 88.2186 350.007 88.8162C350.34 89.3143 350.506 89.8123 350.506 90.1443C350.506 90.2439 350.506 90.3103 350.473 90.4099C350.107 91.6052 347.143 92.5681 343.546 92.5681C342.813 92.5681 342.114 92.5349 341.481 92.4685C341.048 92.4353 340.615 92.3689 340.249 92.3025C338.884 92.0369 337.785 91.6384 337.152 91.1404C336.885 90.9412 336.719 90.7088 336.652 90.4432C336.619 90.3767 336.619 90.2771 336.619 90.1775C336.552 89.8123 336.752 89.3475 337.085 88.8162ZM337.951 93.7302C339.483 94.2614 341.448 94.527 343.513 94.527C345.278 94.527 347.209 94.3278 348.808 93.7966C350.273 93.3318 351.472 92.6345 352.071 91.6384V92.8005V94.5602V101.5V102.96V104.355V104.421V105.152V105.683V105.816C352.038 105.949 351.805 106.148 351.439 106.38C351.239 106.513 350.939 106.646 350.639 106.779C350.107 107.011 349.44 107.21 348.608 107.41C347.509 107.642 346.177 107.841 344.578 107.908C344.312 107.908 344.079 107.908 343.812 107.908C343.712 107.908 343.646 107.908 343.546 107.908C342.98 107.908 342.447 107.874 341.947 107.874L342.447 107.21L342.58 107.011L343.146 106.247L343.413 105.882L343.979 105.119L344.112 104.953L344.378 104.587L345.078 103.658L345.278 103.392L343.712 102.728C343.479 102.628 343.28 102.529 343.046 102.429C342.514 102.197 342.014 101.931 341.548 101.666C341.115 101.433 340.715 101.201 340.316 100.935C337.751 99.3082 335.986 97.5153 334.954 96.1208V91.6052C335.653 92.7673 337.019 93.3982 337.951 93.7302ZM311.143 105.982L314.739 104.521L332.323 97.4489L332.589 97.3492C332.889 97.7809 333.256 98.2457 333.655 98.7105C334.055 99.1754 334.488 99.6402 334.987 100.105C336.286 101.334 337.918 102.595 339.849 103.724C339.916 103.757 339.983 103.791 340.049 103.824C340.415 104.023 340.782 104.222 341.181 104.421L341.082 104.587L340.782 104.986L340.316 105.583L340.049 105.949L339.749 106.38L339.017 107.343L338.917 107.476L338.051 108.638L337.185 109.8L336.219 111.128C335.853 111.593 335.487 112.058 335.087 112.49C334.488 113.12 333.855 113.718 333.189 114.249C333.089 114.316 332.989 114.415 332.889 114.482C332.556 114.747 332.19 114.98 331.824 115.212C331.324 115.544 330.791 115.81 330.258 116.075C329.359 116.507 328.427 116.872 327.494 117.105L323.565 118.167L322.232 118.532L320.9 118.898L315.139 120.458L311.01 121.587L286.732 128.161L282.103 129.423L281.437 129.589L280.804 129.755L279.506 130.12L276.009 131.083L275.643 131.182L274.777 131.415C274.244 131.581 273.711 131.68 273.178 131.714C273.045 131.714 272.912 131.747 272.779 131.747C272.346 131.78 271.879 131.747 271.446 131.714C271.014 131.68 270.547 131.581 270.114 131.481C269.748 131.382 269.382 131.282 269.015 131.149C268.15 130.817 267.317 130.352 266.584 129.788L262.954 126.933C262.555 126.634 262.555 126.202 262.588 126.036C262.621 125.87 262.721 125.472 263.188 125.272L263.421 125.173L265.252 124.442L267.65 123.479L267.85 123.413L268.516 123.147L269.115 122.915L270.381 122.417L274.41 120.79L275.676 120.292L276.941 119.794L289.63 114.681L292.993 113.32L311.143 105.982ZM321.866 82.9726C321.6 83.5371 318.936 84.8652 313.94 84.8652C308.945 84.8652 306.281 83.5371 306.014 82.9726V76.0997C308.445 76.4982 311.143 76.7306 313.94 76.7306C316.738 76.7306 319.402 76.4982 321.866 76.0997V82.9726ZM324.763 31.5754L380.145 53.821C380.412 53.9206 380.478 54.153 380.511 54.2526C380.545 54.3854 380.511 54.6178 380.312 54.7838L377.348 57.1412C375.516 58.6021 373.052 59.1001 370.787 58.4361L332.956 48.1766L331.624 47.8113L330.292 47.4461L327.361 46.6492C327.061 46.5496 326.762 46.4832 326.462 46.3504C325.596 46.0516 324.797 45.6532 324.031 45.1883C322.699 44.3915 321.5 43.329 320.534 42.1005C320.467 42.0009 320.368 41.9013 320.301 41.8017L318.836 39.8428L318.27 39.0791L317.237 37.6846L317.004 37.3526L316.671 36.8878L316.371 36.4893C316.471 36.4229 316.571 36.3897 316.671 36.3233C316.837 36.2237 317.037 36.1241 317.204 36.0245C317.737 35.7257 318.236 35.3936 318.736 35.0616C320.134 34.0988 321.3 33.0363 322.199 32.0402C322.565 31.6418 322.898 31.2434 323.165 30.8781L324.763 31.5754ZM308.612 23.5404C309.411 22.3119 311.309 20.7846 313.94 20.7846C316.571 20.7846 318.469 22.3119 319.269 23.5404C319.535 23.972 319.701 24.3373 319.701 24.6361C319.701 25.7318 317.137 26.595 313.973 26.595C310.81 26.595 308.245 25.6986 308.245 24.6361C308.212 24.3705 308.345 23.972 308.612 23.5404ZM305.814 36.921V36.1241V35.6261V34.6632V33.2023V27.5579V25.6322C305.814 25.5657 305.814 25.4661 305.848 25.3997C305.914 25.1673 306.048 24.9681 306.247 24.7357C306.281 25.599 306.78 26.9935 309.278 27.8567C309.744 28.0227 310.244 28.1555 310.776 28.2551C311.776 28.4544 312.875 28.554 314.007 28.554C315.772 28.554 317.437 28.3215 318.702 27.8567C321.167 26.9935 321.666 25.599 321.733 24.7357C321.999 25.0013 322.133 25.3001 322.133 25.6322V27.5911L321.999 27.5247L321.433 28.554C320.834 29.6164 319.235 31.5422 316.671 33.2023C316.305 33.4347 315.872 33.7003 315.439 33.9327C315.039 34.1652 314.573 34.3644 314.14 34.5636C314.007 34.63 313.874 34.6632 313.774 34.7296L313.64 34.796L312.242 35.3936L312.875 36.2569L313.074 36.5225L313.274 36.7881L313.84 37.5518L314.107 37.917L314.839 38.8799L315.872 40.2744C315.539 40.3076 315.206 40.3076 314.873 40.3408C314.606 40.3408 314.34 40.3408 314.073 40.3408C312.675 40.3408 311.343 40.208 310.177 40.0088C309.711 39.9092 309.278 39.8096 308.878 39.71C308.479 39.6103 308.112 39.4775 307.779 39.3447C307.746 39.3447 307.746 39.3115 307.713 39.3115C307.579 39.2451 307.446 39.1787 307.313 39.1123C307.08 39.0127 306.913 38.8799 306.714 38.7471C306.614 38.6807 306.48 38.5811 306.414 38.4815C306.314 38.3819 306.247 38.3155 306.181 38.2158L306.147 38.1826C306.081 38.1162 306.048 38.0166 306.014 37.9502C305.981 37.917 305.981 37.8506 305.948 37.8174C305.914 37.751 305.914 37.6846 305.914 37.6514C305.914 37.6182 305.914 37.585 305.914 37.5518V36.921H305.814ZM246.17 5.47832L249.534 3.32017L249.567 3.28697C250.533 2.62292 251.765 2.45691 252.864 2.82214L296.79 17.896C298.155 18.3608 299.32 19.2241 300.22 20.353L303.35 24.4037C303.217 24.8021 303.15 25.2005 303.15 25.6654V31.9738L246.17 5.47832ZM299.687 41.6025C299.753 40.8056 300.32 40.0752 301.319 39.4443C301.851 39.1123 302.484 38.7803 303.217 38.4815C303.25 38.5811 303.283 38.7139 303.317 38.8135C303.483 39.2451 303.683 39.6435 303.983 40.0088C305.781 42.2001 310.11 43.0302 313.907 43.0302C315.039 43.0302 316.205 42.9638 317.337 42.7978C317.404 42.7978 317.47 42.7646 317.537 42.7646L318.003 43.3622C318.036 43.3954 318.07 43.4286 318.103 43.4618C318.802 44.4247 319.635 45.2548 320.534 46.0184C320.401 46.0516 320.234 46.0848 320.101 46.0848C319.701 46.1512 319.269 46.2176 318.836 46.284C318.403 46.3504 317.936 46.3836 317.504 46.4168C317.037 46.45 316.571 46.4832 316.105 46.5164C315.405 46.5496 314.673 46.5828 313.94 46.5828C306.081 46.5828 299.687 44.3915 299.687 41.6689C299.687 41.6689 299.687 41.6357 299.687 41.6025ZM295.025 53.9538L296.357 53.5885L297.689 53.2233H297.722C298.987 52.8581 300.02 51.9948 300.553 50.8659C300.852 50.2683 301.019 49.5711 301.019 48.8738C301.019 48.1434 300.419 47.5457 299.687 47.5457C298.954 47.5457 298.355 48.1434 298.355 48.8738C298.355 49.4382 298.088 49.9363 297.689 50.3015V43.6278C297.689 43.4286 297.755 43.2294 297.922 42.997C299.32 46.8485 306.88 48.6082 313.94 48.6082C316.971 48.6082 320.068 48.2762 322.765 47.6121C323.964 48.3094 325.23 48.8406 326.562 49.2058L330.192 50.2019V69.3597C330.192 70.3225 328.26 71.7834 324.497 72.8459C324.064 72.9787 323.631 73.0783 323.165 73.1779C322.732 73.2775 322.299 73.3771 321.833 73.4435C319.635 73.842 316.971 74.1076 313.907 74.1076C310.843 74.1076 308.212 73.842 305.981 73.4435C305.515 73.3439 305.082 73.2775 304.649 73.1779C304.183 73.0783 303.75 72.9455 303.317 72.8459C300.253 71.9826 298.421 70.887 297.822 69.9573L301.285 68.2972C301.452 68.2308 301.552 68.264 301.652 68.3304C301.718 68.3636 301.818 68.4632 301.818 68.6292V70.2893C301.818 71.0198 302.418 71.6174 303.15 71.6174C303.217 71.6174 303.25 71.6174 303.283 71.6174C303.95 71.551 304.482 70.9866 304.482 70.2893V68.6292C304.482 68.2308 304.416 67.8323 304.249 67.5003C304.016 66.9027 303.583 66.4046 303.05 66.0726C303.017 66.0394 302.984 66.0394 302.95 66.0062C302.085 65.5082 301.019 65.475 300.12 65.9066L297.622 67.1351L296.29 67.7659L294.958 68.3968L262.089 84.3007C260.29 83.6367 258.725 83.0722 257.493 82.6406C256.594 82.3086 255.994 81.4785 255.994 80.5156V78.2579C255.994 75.2365 254.163 71.0198 245.97 67.5003L295.025 53.9538ZM183.195 72.8459C183.262 72.6799 183.329 72.4807 183.395 72.3147C183.528 72.049 183.662 71.7834 183.828 71.5178C184.128 71.0862 184.494 70.6546 184.927 70.2561C185.194 70.0237 185.493 69.7581 185.793 69.5257C185.993 69.3597 186.226 69.1936 186.459 69.0608C186.526 69.0276 186.592 68.9612 186.659 68.928C186.825 68.8284 186.959 68.7288 187.125 68.6292C187.158 68.6292 187.158 68.596 187.192 68.596C187.458 68.43 187.691 68.2972 187.991 68.1644C188.191 68.0648 188.424 67.932 188.624 67.8323C188.69 67.7991 188.757 67.7659 188.824 67.7327C189.123 67.5999 189.423 67.4671 189.723 67.3011C189.889 67.2347 190.022 67.1683 190.189 67.1019C190.355 67.0355 190.555 66.9691 190.722 66.8695C191.021 66.7367 191.354 66.6371 191.688 66.5043C192.021 66.3715 192.387 66.2718 192.753 66.139C193.486 65.9066 194.252 65.6742 195.051 65.4418C195.451 65.3422 195.85 65.2426 196.25 65.143C201.378 63.8813 207.673 63.1508 214.466 63.1508C221.26 63.1508 227.554 63.8813 232.683 65.143C233.082 65.2426 233.482 65.3422 233.882 65.4418C234.681 65.641 235.447 65.8734 236.179 66.139C236.546 66.2718 236.912 66.3715 237.245 66.5043C237.578 66.6371 237.878 66.7367 238.211 66.8695C238.377 66.9359 238.577 67.0023 238.744 67.1019C238.91 67.1683 239.077 67.2347 239.21 67.3011C239.51 67.4339 239.809 67.5667 240.109 67.7327C240.176 67.7659 240.242 67.7991 240.309 67.8323C240.542 67.932 240.742 68.0648 240.942 68.1644C241.208 68.2972 241.474 68.4632 241.741 68.596C241.774 68.596 241.774 68.6292 241.807 68.6292C241.974 68.7288 242.14 68.8284 242.274 68.928C242.34 68.9612 242.407 69.0276 242.473 69.0608C242.707 69.2269 242.94 69.3597 243.14 69.5257C243.439 69.7581 243.739 70.0237 244.005 70.2561C244.438 70.6546 244.805 71.0862 245.104 71.5178C245.271 71.7834 245.437 72.049 245.537 72.3147C245.604 72.4807 245.671 72.6799 245.737 72.8459C245.837 73.2111 245.904 73.5764 245.904 73.9416C245.904 79.1212 235.413 83.4375 221.327 84.4999C219.095 84.6659 216.797 84.7656 214.4 84.7656C212.035 84.7656 209.704 84.6659 207.473 84.4999C193.419 83.4043 182.896 79.0879 182.896 73.9416C183.029 73.5764 183.062 73.2111 183.195 72.8459ZM128.779 20.3862C129.645 19.2573 130.844 18.394 132.21 17.9292L176.135 2.85534C177.234 2.49011 178.466 2.65612 179.432 3.32017L182.862 5.51153L125.882 31.9738V25.6654C125.882 25.2005 125.816 24.8021 125.649 24.4037L128.779 20.3862ZM124.983 40.0088C125.283 39.6435 125.516 39.2451 125.649 38.8135C125.682 38.7139 125.716 38.5811 125.749 38.4815C125.849 38.5147 125.949 38.5479 126.049 38.6143C126.348 38.7471 126.615 38.8467 126.881 38.9795C127.148 39.1123 127.381 39.2451 127.581 39.3779C127.614 39.3779 127.614 39.4111 127.647 39.4111C127.947 39.6103 128.213 39.8096 128.446 40.0088C128.68 40.2412 128.879 40.4736 129.013 40.706C129.113 40.8388 129.146 41.0048 129.212 41.1377C129.246 41.2041 129.246 41.2705 129.279 41.3701C129.279 41.4365 129.312 41.5029 129.312 41.6025C129.312 41.6357 129.312 41.6689 129.312 41.7353C129.312 42.0673 129.212 42.3993 129.013 42.7314C128.879 42.9638 128.68 43.1962 128.446 43.4286C128.213 43.661 127.914 43.8603 127.581 44.0927C127.348 44.2255 127.114 44.3583 126.881 44.4911C126.615 44.6239 126.348 44.7567 126.049 44.8563C125.749 44.9891 125.449 45.0887 125.116 45.1883C124.783 45.288 124.45 45.4208 124.117 45.5204C123.584 45.6864 123.018 45.8192 122.452 45.9188C121.853 46.0516 121.253 46.1512 120.62 46.2508C118.922 46.4832 117.024 46.6492 115.059 46.6492C112.661 46.6492 110.43 46.45 108.432 46.0848C109.331 45.3212 110.164 44.4579 110.863 43.5282C110.896 43.495 110.929 43.4618 110.963 43.4286L111.429 42.831C111.496 42.831 111.562 42.8642 111.629 42.8642C112.761 43.0302 113.927 43.0966 115.059 43.0966C118.889 43.0302 123.185 42.2001 124.983 40.0088ZM109.764 23.5404C110.563 22.3119 112.461 20.7846 115.092 20.7846C117.723 20.7846 119.621 22.3119 120.421 23.5404C120.687 23.972 120.854 24.3373 120.854 24.6361C120.854 25.7318 118.289 26.595 115.126 26.595C111.962 26.595 109.398 25.6986 109.398 24.6361C109.331 24.3705 109.464 23.972 109.764 23.5404ZM106.933 25.6654C106.933 25.3665 107.066 25.0677 107.333 24.7689C107.366 25.6322 107.866 27.0267 110.363 27.8899C111.662 28.3215 113.327 28.5872 115.059 28.5872C116.191 28.5872 117.29 28.4876 118.289 28.2883C118.822 28.1887 119.322 28.0559 119.788 27.8899C122.252 27.0267 122.752 25.6322 122.818 24.7689C123.018 24.9681 123.151 25.2005 123.218 25.4329C123.251 25.4993 123.251 25.599 123.251 25.6654V27.5911V33.2355V34.6964V35.6593V36.1573V36.9542V37.585C123.251 37.6182 123.251 37.6514 123.251 37.6846V37.7178C123.218 37.8506 123.185 38.0166 123.085 38.1494C123.052 38.1826 123.051 38.2158 123.018 38.249C122.952 38.3487 122.852 38.4483 122.752 38.5479C122.452 38.8467 122.019 39.1123 121.453 39.3447C121.42 39.3447 121.42 39.3779 121.386 39.3779C121.053 39.5107 120.687 39.6435 120.287 39.7432C119.888 39.8428 119.455 39.9424 118.989 40.042C117.823 40.2412 116.524 40.374 115.092 40.374C114.826 40.374 114.559 40.374 114.293 40.374C113.96 40.374 113.627 40.3408 113.294 40.3076L114.326 38.9131L115.059 37.9502L115.325 37.585L115.892 36.8213L116.091 36.5557L116.291 36.2901L116.924 35.4268L115.525 34.8292L115.392 34.7628C115.259 34.6964 115.126 34.6632 115.026 34.5968C114.559 34.3976 114.126 34.1652 113.727 33.9659C113.294 33.7335 112.894 33.5011 112.495 33.2355C109.897 31.5754 108.332 29.6496 107.732 28.5872L107.166 27.5579L107.033 27.6243V25.6654H106.933ZM96.1433 48.1766L58.2786 58.4361C56.014 59.0669 53.5496 58.5689 51.718 57.1412L48.7541 54.7838C48.521 54.6178 48.521 54.3854 48.5543 54.2526C48.5876 54.1198 48.6542 53.9206 48.9206 53.821L104.302 31.5754L106.001 30.8781C106.267 31.2434 106.6 31.6418 106.967 32.0402C107.866 33.0363 109.031 34.0988 110.43 35.0616C110.896 35.3936 111.429 35.7257 111.962 36.0245C112.128 36.1241 112.295 36.2237 112.495 36.3233C112.595 36.3897 112.694 36.4229 112.794 36.4893L112.495 36.8878L112.162 37.3526L111.929 37.6846L110.896 39.0791L110.33 39.8428L108.865 41.8017C108.798 41.9013 108.698 42.0009 108.632 42.1005C107.666 43.329 106.467 44.3915 105.135 45.1883C104.369 45.6532 103.536 46.0516 102.704 46.3504C102.404 46.45 102.104 46.5496 101.805 46.6492L98.874 47.4461L97.542 47.8113L96.1433 48.1766ZM122.985 82.9726C122.718 83.5371 120.054 84.8652 115.059 84.8652C110.064 84.8652 107.399 83.5371 107.133 82.9726V76.0997C109.564 76.4982 112.262 76.7306 115.059 76.7306C117.856 76.7306 120.521 76.4982 122.985 76.0997V82.9726ZM134.008 68.3968L132.676 67.7659L131.344 67.1351L128.846 65.9398C127.947 65.5082 126.881 65.5414 126.015 66.0394C125.982 66.0726 125.949 66.0726 125.916 66.1058C125.349 66.4378 124.95 66.9691 124.717 67.5335C124.583 67.8987 124.483 68.264 124.483 68.6624V70.3225C124.483 71.0198 125.016 71.551 125.682 71.6506C125.716 71.6506 125.782 71.6506 125.816 71.6506C126.548 71.6506 127.148 71.053 127.148 70.3225V68.6624C127.148 68.4964 127.248 68.3968 127.314 68.3636C127.381 68.3304 127.514 68.264 127.681 68.3304L131.144 69.9905C130.545 70.887 128.713 72.0158 125.649 72.8791C125.216 73.0119 124.783 73.1115 124.317 73.2111C123.884 73.3107 123.451 73.4103 122.985 73.4768C120.787 73.8752 118.123 74.1408 115.059 74.1408C111.995 74.1408 109.364 73.8752 107.133 73.4768C106.667 73.3771 106.234 73.3107 105.801 73.2111C105.335 73.1115 104.902 72.9787 104.469 72.8791C100.706 71.8498 98.7741 70.3889 98.7741 69.3929V50.2351L102.404 49.239C103.736 48.8738 105.035 48.3426 106.201 47.6453C108.898 48.3094 111.995 48.6414 115.026 48.6414C122.119 48.6414 129.679 46.8817 131.044 43.0302C131.211 43.2626 131.277 43.4618 131.277 43.661V50.3347C130.844 50.0027 130.611 49.4714 130.611 48.907C130.611 48.1766 130.012 47.5789 129.279 47.5789C128.546 47.5789 127.947 48.1766 127.947 48.907C127.947 49.6043 128.113 50.3015 128.413 50.8991C128.979 52.028 129.978 52.8913 131.244 53.2565H131.277L132.609 53.6217L133.941 53.987L182.962 67.5003C182.696 67.5999 182.429 67.7327 182.196 67.8323C181.397 68.1976 180.598 68.596 179.898 68.9944C174.137 72.2483 172.938 75.8341 172.938 78.2247V80.4824C172.938 81.4453 172.339 82.3086 171.44 82.6074C170.208 83.039 168.642 83.6035 166.844 84.2675L134.008 68.3968ZM122.419 104.222C122.718 104.123 123.018 103.99 123.318 103.89C124.217 103.558 125.116 103.193 126.015 102.828C126.915 102.462 127.814 102.13 128.713 101.765C129.312 101.533 129.912 101.3 130.511 101.068C130.811 100.935 131.111 100.835 131.41 100.703C132.01 100.47 132.609 100.238 133.209 100.005C133.508 99.8726 133.808 99.773 134.108 99.6402C135.307 99.1754 136.506 98.7105 137.705 98.2457C138.604 97.8805 139.503 97.5485 140.402 97.2164C141.301 96.8844 142.167 96.5192 143.066 96.1872C144.831 95.5231 146.563 94.8259 148.261 94.195C149.394 93.7634 150.493 93.3318 151.592 92.9001C152.124 92.7009 152.691 92.4685 153.223 92.2693C154.822 91.6384 156.387 91.074 157.886 90.5096C158.119 90.41 158.385 90.3103 158.618 90.2439C159.118 90.0447 159.584 89.8787 160.05 89.6795C160.517 89.5135 160.983 89.3143 161.449 89.1483C161.915 88.9823 162.348 88.8162 162.814 88.6502C163.48 88.3846 164.113 88.1522 164.746 87.9198C165.445 87.6542 166.078 87.4217 166.711 87.1893C167.244 86.9901 167.743 86.8241 168.209 86.6249C168.243 86.6249 168.243 86.6249 168.276 86.5917C168.443 86.5253 168.609 86.4589 168.742 86.4257C169.242 86.2265 169.741 86.0604 170.174 85.8944C170.374 85.828 170.574 85.7616 170.74 85.6952C171.007 85.5956 171.307 85.496 171.54 85.3964C171.806 85.2968 172.039 85.2304 172.272 85.1308C172.572 85.0312 172.872 84.8984 173.171 84.7324C173.271 84.6659 173.338 84.6327 173.438 84.5663C173.671 84.4003 173.904 84.2343 174.104 84.0351C174.404 83.7363 174.67 83.4043 174.87 83.039C174.97 82.8398 175.07 82.6738 175.17 82.4414C175.269 82.2422 175.336 82.043 175.403 81.8105C175.469 81.6445 175.503 81.4453 175.536 81.2461C175.569 80.9805 175.603 80.7481 175.603 80.4824V78.2247C175.603 77.129 176.002 76.0333 176.735 75.0041C177.068 74.5724 177.434 74.1408 177.867 73.7092C178.3 73.2775 178.8 72.8791 179.366 72.4807C179.499 72.3811 179.665 72.2815 179.799 72.1819C180.032 72.049 180.232 71.883 180.498 71.7502C180.731 71.6174 180.964 71.4514 181.231 71.3186C181.231 71.3186 181.231 71.3186 181.264 71.3186C180.831 72.2815 180.664 73.1779 180.664 74.008C180.664 76.797 182.529 80.7813 191.454 83.8691C195.451 85.2304 200.246 86.2265 205.475 86.7245C208.372 87.0233 211.369 87.1561 214.466 87.1561C217.563 87.1561 220.561 86.9901 223.458 86.7245C228.686 86.1933 233.515 85.2304 237.478 83.8691C246.403 80.8145 248.268 76.8302 248.268 74.008C248.268 73.2111 248.102 72.2815 247.669 71.3186C247.669 71.3186 247.669 71.3186 247.702 71.3186C247.868 71.4182 248.035 71.5178 248.168 71.5842C248.468 71.7834 248.768 71.9494 249.067 72.1487C249.201 72.2483 249.334 72.3479 249.5 72.4475C249.9 72.7463 250.3 73.0451 250.633 73.3439C250.966 73.6428 251.299 73.9416 251.565 74.2736C251.865 74.5724 252.098 74.9045 252.331 75.2365C252.464 75.4357 252.597 75.6681 252.731 75.9005C253.13 76.6642 253.33 77.461 253.33 78.2579V80.5156C253.33 80.7813 253.363 81.0469 253.397 81.2793C253.43 81.4785 253.463 81.6445 253.53 81.8437C253.596 82.043 253.663 82.2754 253.763 82.4746C253.863 82.6738 253.963 82.873 254.063 83.0722C254.196 83.3046 254.362 83.5371 254.562 83.7363C254.729 83.9355 254.929 84.1347 255.128 84.3007C255.162 84.3339 255.195 84.3671 255.228 84.4003C255.395 84.5331 255.528 84.6327 255.694 84.7324C255.994 84.8984 256.294 85.0644 256.627 85.164C256.727 85.1972 256.827 85.2304 256.96 85.2636C257.06 85.2968 257.16 85.33 257.26 85.3632C257.559 85.4628 257.859 85.5956 258.192 85.6952C258.392 85.7616 258.559 85.828 258.758 85.8944C259.158 86.0604 259.624 86.1933 260.057 86.3593C260.257 86.4257 260.457 86.4921 260.657 86.5917C260.723 86.6249 260.79 86.6249 260.856 86.6581C261.289 86.8241 261.756 86.9901 262.222 87.1561C262.854 87.3885 263.521 87.621 264.187 87.8866C264.819 88.119 265.452 88.3514 266.118 88.617C266.551 88.783 267.017 88.949 267.484 89.1151C267.95 89.2811 268.416 89.4803 268.882 89.6463C269.348 89.8123 269.848 90.0115 270.314 90.2107C270.647 90.3435 270.98 90.4764 271.347 90.6092C271.713 90.742 272.046 90.8748 272.412 91.0076C273.112 91.2732 273.844 91.572 274.61 91.8377C274.977 91.9705 275.343 92.1365 275.742 92.2693C276.275 92.4685 276.808 92.6677 277.374 92.9001C278.407 93.2986 279.439 93.697 280.471 94.0954C280.838 94.2282 281.204 94.361 281.57 94.527C282.137 94.7595 282.703 94.9587 283.302 95.1911C283.868 95.4235 284.468 95.6227 285.034 95.8551C285.334 95.9547 285.633 96.0876 285.9 96.1872C286.766 96.5192 287.665 96.8844 288.564 97.2164C289.463 97.5485 290.362 97.9137 291.261 98.2457C292.46 98.7105 293.659 99.1754 294.858 99.6402C295.158 99.773 295.457 99.8726 295.757 100.005C296.357 100.238 296.956 100.47 297.555 100.703C297.855 100.835 298.155 100.935 298.455 101.068C299.054 101.3 299.654 101.533 300.253 101.765C301.152 102.13 302.051 102.462 302.95 102.828C303.85 103.193 304.749 103.525 305.648 103.89C305.948 103.99 306.247 104.123 306.547 104.222C306.847 104.355 307.147 104.455 307.48 104.587L288.83 112.091L266.751 105.019L264.52 104.322L262.255 103.591L256.494 101.732C256.227 101.632 255.961 101.599 255.694 101.566C255.262 101.5 254.795 101.5 254.362 101.566C253.896 101.632 253.463 101.732 253.03 101.931C252.298 102.263 251.632 102.761 251.132 103.425L251.099 103.458C250.832 103.824 250.499 104.189 250.1 104.554C249.7 104.919 249.234 105.285 248.734 105.65C247.436 106.58 245.837 107.443 243.906 108.24C243.506 108.406 243.14 108.572 242.707 108.704C241.907 109.003 241.041 109.302 240.142 109.601C239.243 109.867 238.311 110.165 237.312 110.398C235.846 110.763 234.281 111.128 232.649 111.427C231.55 111.626 230.451 111.825 229.286 111.991C228.154 112.157 226.955 112.324 225.756 112.423C224.557 112.556 223.325 112.656 222.059 112.755C220.794 112.855 219.528 112.921 218.229 112.954C215.632 113.054 212.968 113.054 210.37 112.954C209.105 112.921 207.806 112.855 206.54 112.755C205.308 112.656 204.076 112.556 202.844 112.423C201.645 112.29 200.446 112.157 199.314 111.991C198.181 111.825 197.049 111.626 195.95 111.427C194.352 111.128 192.786 110.796 191.288 110.398C190.322 110.132 189.356 109.867 188.457 109.601C187.558 109.335 186.692 109.036 185.893 108.704C185.493 108.538 185.094 108.406 184.694 108.24C182.796 107.443 181.164 106.58 179.865 105.65C179.499 105.384 177.9 103.824 177.434 103.359C176.935 102.728 176.302 102.23 175.569 101.931C175.136 101.765 174.703 101.632 174.237 101.566C173.804 101.5 173.338 101.5 172.905 101.566C172.639 101.599 172.372 101.666 172.106 101.732L166.344 103.591L164.08 104.322L161.849 105.019L139.769 112.091L121.12 104.587C121.786 104.455 122.119 104.322 122.419 104.222ZM79.0259 88.8162C79.3922 88.2518 79.9584 87.621 80.691 87.0565C81.8899 86.1601 83.5217 85.4628 85.4865 85.4628C87.4514 85.4628 89.0832 86.1601 90.2821 87.0565C91.0147 87.621 91.5808 88.2186 91.9472 88.8162C92.2802 89.3143 92.4467 89.8123 92.4467 90.1443C92.4467 90.2439 92.4467 90.3103 92.4134 90.3768C92.0471 91.572 89.0832 92.5349 85.4865 92.5349C81.8899 92.5349 78.926 91.6052 78.5597 90.3768C78.5264 90.3103 78.5264 90.2107 78.5264 90.1111C78.5264 89.8123 78.6929 89.3475 79.0259 88.8162ZM76.9278 105.683V105.152V104.421V104.355V102.96V101.5V94.5602V92.8005V91.6052C77.5939 92.7341 78.9926 93.3982 79.8917 93.697C79.9917 93.7302 80.0916 93.7634 80.1582 93.7966C81.6235 94.2614 83.4884 94.527 85.4532 94.527C88.8834 94.527 92.7464 93.7302 94.0119 91.6384V96.1208C92.9795 97.4821 91.2145 99.3082 88.6502 100.935C88.2506 101.168 87.851 101.433 87.4181 101.666C86.9518 101.931 86.4523 102.164 85.9195 102.429C85.6863 102.529 85.4865 102.628 85.2534 102.728L83.6882 103.392L83.888 103.658L84.5874 104.587L84.8538 104.953L84.987 105.119L85.5531 105.882L85.8196 106.247L86.3857 107.011L86.5189 107.21L87.0184 107.874C86.5189 107.908 85.9861 107.908 85.4199 107.908C85.32 107.908 85.2201 107.908 85.1535 107.908C84.8871 107.908 84.6207 107.908 84.3876 107.908C82.789 107.841 81.457 107.642 80.358 107.41C79.5254 107.21 78.8594 107.011 78.3265 106.779C77.9935 106.646 77.7271 106.513 77.5273 106.38C77.161 106.181 76.9611 105.982 76.8945 105.849V105.683H76.9278ZM2.69706 66.9691C2.69706 66.9691 2.66375 66.9691 2.66375 66.9359C2.66375 66.9027 2.66375 66.9027 2.69706 66.9027L7.15956 64.0473L7.19286 64.0141C7.99212 63.4496 8.95788 63.1508 9.92365 63.1508C10.4232 63.1508 10.956 63.2172 11.4556 63.4164L64.7725 81.7441C66.4709 82.3418 67.9695 83.3711 69.0685 84.7987L74.297 91.5388V100.238L2.69706 66.9691ZM70.7003 109.302C71.5995 108.671 73.0315 108.04 74.8631 107.542C74.9963 107.742 75.1961 107.908 75.3959 108.074C77.3608 109.767 81.5236 110.564 85.4865 110.564C86.3857 110.564 87.3182 110.531 88.184 110.431C88.4171 110.398 88.6835 110.398 88.9167 110.365L90.6484 112.722C90.6817 112.755 90.715 112.788 90.7483 112.822C90.9148 113.054 91.1146 113.286 91.3144 113.552C91.7141 114.05 92.147 114.515 92.6132 114.946C90.7816 115.245 88.7169 115.445 86.419 115.478C86.1193 115.478 85.7863 115.478 85.4865 115.478C75.729 115.478 69.5014 112.722 69.5014 110.863C69.5014 110.365 69.9344 109.833 70.7003 109.302ZM95.3773 160.998C95.3773 161.662 91.9805 163.522 85.4865 163.522C78.9926 163.522 75.5958 161.629 75.5958 160.998V152.266C78.7262 152.83 82.123 153.096 85.4865 153.096C88.8501 153.096 92.2469 152.797 95.3773 152.266V160.998ZM105.535 123.181V125.638V137.225V139.948V144.43C105.535 145.924 102.837 147.784 98.0748 149.012C97.6419 149.112 97.2089 149.245 96.7427 149.344C96.3098 149.444 95.8768 149.543 95.4106 149.61C92.6132 150.141 89.283 150.44 85.5198 150.44C81.7567 150.44 78.4265 150.108 75.6291 149.61C75.1628 149.51 74.7299 149.444 74.297 149.344C73.8307 149.245 73.3978 149.145 72.9649 149.012C68.1693 147.75 65.5052 145.924 65.5052 144.43V113.22C65.5052 112.589 66.0047 111.892 66.9039 111.195C67.0371 112.722 68.2693 114.747 72.865 116.341C76.2618 117.503 80.7243 118.134 85.4532 118.167C85.4865 118.167 85.4865 118.167 85.5198 118.167C86.419 118.167 87.3182 118.134 88.184 118.101C90.7483 117.968 93.1794 117.636 95.3107 117.171C97.0091 118.333 98.9073 119.196 100.905 119.728L105.535 120.989V123.181ZM108.199 136.561V124.774L113.427 123.081L137.038 129.489L108.199 136.561ZM108.199 122.317V121.653L109.298 121.952L108.199 122.317ZM166.178 126.966L162.548 129.821C161.749 130.452 160.85 130.95 159.917 131.282C159.617 131.382 159.318 131.481 159.018 131.548C158.585 131.647 158.119 131.714 157.686 131.78C157.253 131.813 156.787 131.813 156.354 131.813C156.154 131.813 155.987 131.78 155.788 131.78C155.288 131.714 154.789 131.647 154.322 131.481L153.456 131.249L153.09 131.149L149.593 130.186L148.295 129.821L147.662 129.655L146.996 129.489L142.367 128.227L118.089 121.653L113.96 120.524L108.199 118.964L106.867 118.599L105.535 118.234L101.605 117.171C100.639 116.905 99.7066 116.573 98.8407 116.142C98.3079 115.876 97.7751 115.611 97.2755 115.279C96.9092 115.046 96.5429 114.814 96.2099 114.548C96.11 114.482 96.01 114.382 95.9101 114.316C95.2441 113.784 94.578 113.187 94.0119 112.556C93.6123 112.124 93.2127 111.659 92.8796 111.195L91.9139 109.867L91.048 108.704L90.1821 107.542L90.0822 107.41L89.3496 106.447L89.0499 106.015L88.7835 105.65L88.3172 105.052L88.0175 104.654L87.9176 104.488C88.3172 104.289 88.6835 104.089 89.0499 103.89C89.1165 103.857 89.1831 103.824 89.2497 103.791C91.1812 102.695 92.813 101.433 94.1118 100.171C94.6114 99.7066 95.0443 99.2418 95.4439 98.7769C95.8435 98.3121 96.2099 97.8473 96.5096 97.4156L96.776 97.5153L114.36 104.587L117.956 106.048L136.239 113.386L139.603 114.747L152.291 119.86L153.556 120.358L154.822 120.857L158.851 122.483L160.117 122.981L160.583 123.181L161.382 123.479L161.582 123.546L163.847 124.442L165.812 125.239L166.045 125.339C166.511 125.538 166.611 125.936 166.644 126.102C166.544 126.202 166.578 126.634 166.178 126.966Z" fill="white"/>
</g>
<defs>
<clipPath id="clip0_16_5116">
<rect width="429" height="169" fill="white"/>
</clipPath>
</defs>
</svg>
