<svg width="876" height="33" viewBox="0 0 876 33" fill="none" xmlns="http://www.w3.org/2000/svg">
<path opacity="0.9" d="M872.112 27.0101C833.334 12.888 707.833 6.59209 707.833 6.59209C659.756 3.13808 610.558 1.60782 561.426 0.973852C556.018 0.90827 550.544 0.842687 545.202 0.777105H547.84C511.173 0.165001 474.505 -0.0317468 437.969 0.0119749C401.433 -0.0536077 364.832 0.14314 328.164 0.777105H330.802C325.394 0.842687 319.986 0.90827 314.578 0.973852C265.512 1.60782 216.314 3.11622 168.172 6.59209C168.172 6.59209 42.6706 12.888 3.89258 27.0101C-2.63638 29.393 -0.855755 31.1856 8.50901 32.06C19.9841 33.153 33.042 33 44.8469 32.9781C50.6504 32.9563 56.388 32.9126 62.1915 32.847C80.1297 32.6284 98.0018 32.1693 115.874 31.6883C182.68 29.852 249.619 28.5841 316.491 26.9227C332.055 26.7478 348.476 26.6166 365.689 26.5292C416.733 26.5511 495.345 27.1632 534.123 26.9227C573.165 27.3162 614.515 27.9283 658.041 28.8246C669.45 29.1088 680.925 29.4148 692.335 29.7427C714.889 30.3986 737.51 31.0762 760.064 31.6883C774.705 32.0818 789.346 32.4535 803.986 32.694C807.218 32.8033 810.449 32.8907 813.681 33C813.219 32.9344 812.692 32.8907 812.23 32.8251C818.495 32.9126 824.826 32.9563 831.091 32.9781C842.896 33 855.888 33.153 867.429 32.06C876.86 31.1856 878.641 29.393 872.112 27.0101Z" fill="url(#paint0_linear_42_5245)" fill-opacity="0.3"/>
<defs>
<linearGradient id="paint0_linear_42_5245" x1="0.00158343" y1="16.5034" x2="875.989" y2="16.5034" gradientUnits="userSpaceOnUse">
<stop stop-color="#8299AC"/>
<stop offset="0.0859028" stop-color="#849EAF"/>
<stop offset="0.1927" stop-color="#8CAEB6"/>
<stop offset="0.3106" stop-color="#97C7C2"/>
<stop offset="0.4355" stop-color="#A7EAD3"/>
<stop offset="0.5" stop-color="#B1FFDD"/>
<stop offset="0.5044" stop-color="#B0FDDC"/>
<stop offset="0.6031" stop-color="#A0D9CB"/>
<stop offset="0.7025" stop-color="#93BDBD"/>
<stop offset="0.8018" stop-color="#89A9B4"/>
<stop offset="0.901" stop-color="#849DAE"/>
<stop offset="1" stop-color="#8299AC"/>
</linearGradient>
</defs>
</svg>
