<svg width="1320" height="763" viewBox="0 0 1320 763" fill="none" xmlns="http://www.w3.org/2000/svg">
<g filter="url(#filter0_i_16_4876)">
<path d="M660.091 637.269C675.188 637.269 737.214 643.248 828.524 711.828C919.835 780.409 1100.09 782.167 1192.31 702.333C1284.53 622.498 1320 519.628 1320 378.95C1320 238.273 1287.26 155.097 1220.69 88.9786C1154.11 23.2118 1043.16 0 908.375 0C773.592 0 660.091 0 660.091 0C660.091 0 546.589 0 411.807 0C277.024 0 165.887 23.2118 99.3138 89.1544C32.7408 155.097 0 238.448 0 379.126C0 519.804 35.4692 622.674 127.689 702.509C219.909 782.343 400.165 780.585 491.476 712.004C582.786 643.424 644.812 637.269 660.091 637.269Z" fill="black"/>
</g>
<defs>
<filter id="filter0_i_16_4876" x="0" y="0" width="1320" height="762.95" filterUnits="userSpaceOnUse" color-interpolation-filters="sRGB">
<feFlood flood-opacity="0" result="BackgroundImageFix"/>
<feBlend mode="normal" in="SourceGraphic" in2="BackgroundImageFix" result="shape"/>
<feColorMatrix in="SourceAlpha" type="matrix" values="0 0 0 0 0 0 0 0 0 0 0 0 0 0 0 0 0 0 127 0" result="hardAlpha"/>
<feOffset/>
<feGaussianBlur stdDeviation="35.5"/>
<feComposite in2="hardAlpha" operator="arithmetic" k2="-1" k3="1"/>
<feColorMatrix type="matrix" values="0 0 0 0 1 0 0 0 0 1 0 0 0 0 1 0 0 0 0.8 0"/>
<feBlend mode="normal" in2="shape" result="effect1_innerShadow_16_4876"/>
</filter>
</defs>
</svg>
