<svg width="146" height="18" viewBox="0 0 146 18" fill="none" xmlns="http://www.w3.org/2000/svg">
<path d="M10.68 3.64C9.86 2.88 8.74 2.28 7.12 2.28C4.12 2.28 1.58 4.68 1.58 8.06C1.58 11.5 4.06 13.84 7.38 13.84C8.88 13.84 9.86 13.4 10.74 12.76L11.46 13.78C10.58 14.62 9.18 15.16 7.36 15.16C3.26 15.16 0.2 12.38 0.2 8.06C0.2 3.92 3.44 0.96 7.1 0.96C9.32 0.96 10.72 1.8 11.48 2.58L10.68 3.64ZM22.5184 4.78V15H21.1984V6.06H15.3584V15H14.0384V4.78H22.5184ZM34.1586 13.4C33.3186 14.58 32.0186 15.16 30.3586 15.16C27.5586 15.16 25.1186 13.28 25.1186 9.8C25.1186 6.64 27.1386 4.62 29.8586 4.62C32.5386 4.62 34.3386 6.56 34.3386 9.46V10.22H26.4986C26.5986 12.54 28.3186 13.92 30.3586 13.92C31.7186 13.92 32.6586 13.32 33.2386 12.58L34.1586 13.4ZM26.5386 9.06H32.9786C32.8986 7.12 31.6586 5.86 29.8186 5.86C27.7386 5.86 26.6186 7.48 26.5386 9.06ZM46.9063 13.74V17.66H45.6463V15H37.0463V4.78H38.3663V13.74H44.1663V4.78H45.4863V13.74H46.9063ZM50.5538 12.88L56.5938 4.78H57.8338V15H56.4938V6.88L50.4738 15H49.2338V4.78H50.5538V12.88ZM60.8288 5.82C61.7688 5.06 63.2488 4.62 64.6688 4.62C67.3688 4.62 68.9888 6.08 68.9888 8.62V15H67.6688V12.86C67.4888 13.98 66.0888 15.16 64.1088 15.16C62.1488 15.16 60.3288 14.04 60.3288 12C60.3288 9.9 62.3088 8.88 64.5088 8.88C65.7688 8.88 66.8288 9.12 67.6688 9.58V8.66C67.6688 6.78 66.2288 5.88 64.6288 5.88C63.4088 5.88 62.2488 6.3 61.4688 6.9L60.8288 5.82ZM61.6888 12C61.6888 13.22 62.8888 13.94 64.3088 13.94C65.9088 13.94 67.6688 12.84 67.6688 11.4V10.78C66.7888 10.3 65.7688 10.06 64.5288 10.06C62.9688 10.06 61.6888 10.76 61.6888 12ZM80.2834 4.78V15H78.9434V6.04H74.6434L74.2634 9.82C73.9834 12.78 73.5034 15.16 70.9634 15.16L70.7634 13.9C72.6034 13.92 72.8234 11.72 73.0634 9.34L73.5234 4.78H80.2834ZM87.4097 8.36C89.5897 8.36 91.1897 9.48 91.1897 11.64C91.1897 13.78 89.6497 15 87.4097 15H83.5697V4.78H84.8897V8.36H87.4097ZM84.8897 13.74H87.3097C89.0097 13.74 89.8297 12.86 89.8297 11.66C89.8297 10.38 88.8897 9.62 87.3097 9.62H84.8897V13.74ZM100.769 4.78H102.089V15H100.769V10.4H94.9288V15H93.6088V4.78H94.9288V9.14H100.769V4.78ZM114.949 9.88C114.949 12.96 112.589 15.16 109.809 15.16C107.029 15.16 104.689 12.96 104.689 9.88C104.689 6.82 107.029 4.62 109.809 4.62C112.589 4.62 114.949 6.82 114.949 9.88ZM106.049 9.88C106.049 12.22 107.769 13.88 109.809 13.88C111.869 13.88 113.589 12.22 113.589 9.88C113.589 7.56 111.869 5.9 109.809 5.9C107.769 5.9 106.049 7.56 106.049 9.88ZM124.952 7.08C124.432 6.48 123.512 5.9 122.252 5.9C120.232 5.9 118.432 7.46 118.432 9.9C118.432 12.38 120.412 13.88 122.452 13.88C123.592 13.88 124.392 13.5 124.952 12.96L125.732 13.88C125.052 14.7 123.872 15.16 122.412 15.16C119.712 15.16 117.072 13.26 117.072 9.9C117.072 6.68 119.612 4.62 122.252 4.62C124.072 4.62 125.212 5.38 125.752 6.08L124.952 7.08ZM127.04 6.06V4.78H135.92V6.06H132.14V15H130.82V6.06H127.04ZM141.96 8.36C144.14 8.36 145.74 9.48 145.74 11.64C145.74 13.78 144.2 15 141.96 15H138.12V4.78H139.44V8.36H141.96ZM139.44 13.74H141.86C143.56 13.74 144.38 12.86 144.38 11.66C144.38 10.38 143.44 9.62 141.86 9.62H139.44V13.74Z" fill="white"/>
</svg>
