<svg width="365" height="221" viewBox="0 0 365 221" fill="none" xmlns="http://www.w3.org/2000/svg">
<path d="M22.456 34.064C29.736 34.064 35.28 28.24 35.28 20.568C35.28 12.896 29.736 7.072 22.456 7.072C15.064 7.072 9.52 12.896 9.52 20.568C9.52 28.24 15.064 34.064 22.456 34.064ZM2.744 20.568C2.744 9.144 11.144 0.575997 22.456 0.575997C33.656 0.575997 42.056 9.144 42.056 20.568C42.056 31.992 33.656 40.56 22.456 40.56C11.144 40.56 2.744 31.992 2.744 20.568ZM74.6371 10.936V40H68.1971V17.096H55.1491V40H48.7091V10.936H74.6371ZM107.49 36.024C105.082 38.936 101.106 40.56 96.5138 40.56C87.5538 40.56 80.6098 34.848 80.6098 25.272C80.6098 16.48 86.6018 10.432 94.7218 10.432C102.786 10.432 108.05 16.144 108.05 24.488V27.456H87.3298C87.7778 31.824 91.5298 34.68 96.4578 34.68C99.8738 34.68 102.17 33.336 103.962 31.656L107.49 36.024ZM87.3298 22.416H101.498C101.218 18.608 98.4738 16.032 94.6098 16.032C90.1298 16.032 87.6658 19.336 87.3298 22.416ZM120.774 10.936V16.648C121.39 14.128 124.526 10.376 130.35 10.376C136.678 10.376 142.95 15.808 142.95 25.44C142.95 35.072 136.678 40.56 130.35 40.56C124.526 40.56 121.39 36.752 120.774 34.288V52.096H114.334V10.936H120.774ZM120.774 26.784C120.774 31.152 124.414 34.4 128.334 34.4C132.478 34.4 136.174 31.208 136.174 25.44C136.174 19.672 132.478 16.536 128.334 16.536C124.414 16.536 120.774 19.728 120.774 24.152V26.784ZM148.551 13.736C151.463 11.72 155.831 10.432 160.367 10.432C169.271 10.432 173.359 15.248 173.359 22.304V40H166.975V34.568C166.471 37.536 162.887 40.56 157.791 40.56C152.359 40.56 147.263 37.312 147.263 31.32C147.263 25.216 152.975 22.248 159.247 22.248C162.383 22.248 164.791 22.696 166.975 23.648V22.304C166.975 18.44 163.615 16.424 159.863 16.424C156.391 16.424 153.423 17.544 151.127 19.112L148.551 13.736ZM153.815 31.152C153.815 33.616 156.223 34.96 159.359 34.96C162.999 34.96 166.975 32.552 166.975 29.472V28.856C164.791 27.792 162.495 27.344 159.695 27.344C156.615 27.344 153.815 28.688 153.815 31.152ZM177.603 17.096V10.936H203.307V17.096H193.675V40H187.235V17.096H177.603ZM236.022 25.44C236.022 33.952 229.47 40.56 221.07 40.56C212.67 40.56 206.118 33.952 206.118 25.44C206.118 16.984 212.67 10.432 221.07 10.432C229.47 10.432 236.022 16.984 236.022 25.44ZM212.726 25.44C212.726 30.424 216.31 34.232 221.07 34.232C225.83 34.232 229.414 30.424 229.414 25.44C229.414 20.456 225.83 16.704 221.07 16.704C216.31 16.704 212.726 20.456 212.726 25.44ZM248.469 10.936V16.648C249.085 14.128 252.221 10.376 258.045 10.376C264.373 10.376 270.645 15.808 270.645 25.44C270.645 35.072 264.373 40.56 258.045 40.56C252.221 40.56 249.085 36.752 248.469 34.288V52.096H242.029V10.936H248.469ZM248.469 26.784C248.469 31.152 252.109 34.4 256.029 34.4C260.173 34.4 263.869 31.208 263.869 25.44C263.869 19.672 260.173 16.536 256.029 16.536C252.109 16.536 248.469 19.728 248.469 24.152V26.784ZM29.68 52.824L30.912 59.208L21.224 61.112C12.936 62.736 10.248 66.6 9.744 74.16C10.528 70.576 14.728 67.552 20.048 67.552C26.6 67.552 33.096 72.48 33.096 81.552C33.096 90.904 26.712 96.56 18.48 96.56C9.464 96.56 2.8 89.56 2.8 77.912C2.8 65.088 8.064 57.472 20.048 54.896L29.68 52.824ZM9.688 80.488C9.856 85.808 13.104 90.232 18.424 90.232C23.016 90.232 26.432 86.984 26.432 81.664C26.432 76.12 22.232 73.432 18.256 73.432C13.944 73.432 10.192 76.4 9.688 80.488ZM64.6695 92.024C62.2615 94.936 58.2855 96.56 53.6935 96.56C44.7335 96.56 37.7895 90.848 37.7895 81.272C37.7895 72.48 43.7815 66.432 51.9015 66.432C59.9655 66.432 65.2295 72.144 65.2295 80.488V83.456H44.5095C44.9575 87.824 48.7095 90.68 53.6375 90.68C57.0535 90.68 59.3495 89.336 61.1415 87.656L64.6695 92.024ZM44.5095 78.416H58.6775C58.3975 74.608 55.6535 72.032 51.7895 72.032C47.3095 72.032 44.8455 75.336 44.5095 78.416ZM91.7858 75.448C90.4978 74.104 88.3138 72.704 85.2338 72.704C80.6978 72.704 76.6098 76.064 76.6098 81.44C76.6098 86.984 81.2018 90.232 85.7378 90.232C88.4258 90.232 90.3858 89.336 91.6738 88.216L94.9778 92.92C93.0738 95.104 89.7138 96.56 85.4578 96.56C77.9538 96.56 69.9458 91.464 69.9458 81.496C69.9458 72.088 77.7298 66.432 85.1778 66.432C90.2738 66.432 93.5778 68.56 95.1458 70.52L91.7858 75.448ZM126.426 66.936V96H119.986V73.096H106.938V96H100.498V66.936H126.426ZM140.68 86.032L154.4 66.936H160.672V96H154.176V76.848L140.512 96H134.24V66.936H140.68V86.032ZM193.561 66.936V96H187.121V73.04H177.769L176.985 80.88C176.089 89.896 174.633 96.56 166.065 96.56L165.001 90.568C170.153 90.624 170.657 84.688 171.273 78.472L172.337 66.936H193.561ZM229.459 81.44C229.459 89.952 222.907 96.56 214.507 96.56C206.107 96.56 199.555 89.952 199.555 81.44C199.555 72.984 206.107 66.432 214.507 66.432C222.907 66.432 229.459 72.984 229.459 81.44ZM206.163 81.44C206.163 86.424 209.747 90.232 214.507 90.232C219.267 90.232 222.851 86.424 222.851 81.44C222.851 76.456 219.267 72.704 214.507 72.704C209.747 72.704 206.163 76.456 206.163 81.44ZM232.291 73.096V66.936H257.995V73.096H248.363V96H241.923V73.096H232.291ZM282.903 66.936H289.343V96H282.903V84.296H269.743V96H263.303V66.936H269.743V78.136H282.903V66.936ZM331.145 66.936V96H324.705V66.936H331.145ZM297.209 96V66.936H303.649V76.064H309.753C316.025 76.064 320.785 79.424 320.785 85.92C320.785 92.416 316.137 96 309.753 96H297.209ZM303.649 90.176H309.193C312.553 90.176 314.233 88.496 314.233 85.976C314.233 83.344 312.329 81.832 309.193 81.832H303.649V90.176ZM343.75 66.936L350.302 76.568L356.854 66.936H364.358L354.446 81.328L364.694 96H357.078L350.19 85.92L343.302 96H335.798L346.046 81.216L336.078 66.936H343.75ZM28.952 122.936V152H22.512V129.04H13.16L12.376 136.88C11.48 145.896 10.024 152.56 1.456 152.56L0.392 146.568C5.544 146.624 6.048 140.688 6.664 134.472L7.728 122.936H28.952ZM61.8258 148.024C59.4178 150.936 55.4418 152.56 50.8498 152.56C41.8898 152.56 34.9458 146.848 34.9458 137.272C34.9458 128.48 40.9378 122.432 49.0577 122.432C57.1218 122.432 62.3858 128.144 62.3858 136.488V139.456H41.6658C42.1138 143.824 45.8658 146.68 50.7938 146.68C54.2098 146.68 56.5058 145.336 58.2978 143.656L61.8258 148.024ZM41.6658 134.416H55.8338C55.5538 130.608 52.8098 128.032 48.9458 128.032C44.4658 128.032 42.0018 131.336 41.6658 134.416ZM65.4391 129.096V122.936H91.1431V129.096H81.5111V152H75.0711V129.096H65.4391ZM95.5592 125.736C98.4712 123.72 102.839 122.432 107.375 122.432C116.279 122.432 120.367 127.248 120.367 134.304V152H113.983V146.568C113.479 149.536 109.895 152.56 104.799 152.56C99.3672 152.56 94.2712 149.312 94.2712 143.32C94.2712 137.216 99.9832 134.248 106.255 134.248C109.391 134.248 111.799 134.696 113.983 135.648V134.304C113.983 130.44 110.623 128.424 106.871 128.424C103.399 128.424 100.431 129.544 98.1352 131.112L95.5592 125.736ZM100.823 143.152C100.823 145.616 103.231 146.96 106.367 146.96C110.007 146.96 113.983 144.552 113.983 141.472V140.856C111.799 139.792 109.503 139.344 106.703 139.344C103.623 139.344 100.823 140.688 100.823 143.152ZM124.611 129.096V122.936H150.315V129.096H140.683V152H134.243V129.096H124.611ZM180.005 148.024C177.597 150.936 173.621 152.56 169.029 152.56C160.069 152.56 153.125 146.848 153.125 137.272C153.125 128.48 159.117 122.432 167.237 122.432C175.301 122.432 180.565 128.144 180.565 136.488V139.456H159.845C160.293 143.824 164.045 146.68 168.973 146.68C172.389 146.68 174.685 145.336 176.477 143.656L180.005 148.024ZM159.845 134.416H174.013C173.733 130.608 170.989 128.032 167.125 128.032C162.645 128.032 160.181 131.336 159.845 134.416ZM211.499 122.936V152H205.059V129.04H195.707L194.923 136.88C194.027 145.896 192.571 152.56 184.003 152.56L182.939 146.568C188.091 146.624 188.595 140.688 189.211 134.472L190.275 122.936H211.499ZM231.878 132.064C238.15 132.064 242.91 135.424 242.91 141.92C242.91 148.416 238.262 152 231.878 152H219.334V122.936H225.774V132.064H231.878ZM225.774 146.176H231.318C234.678 146.176 236.358 144.496 236.358 141.976C236.358 139.344 234.454 137.832 231.318 137.832H225.774V146.176ZM268.028 122.936H274.468V152H268.028V140.296H254.868V152H248.428V122.936H254.868V134.136H268.028V122.936ZM316.27 122.936V152H309.83V122.936H316.27ZM282.334 152V122.936H288.774V132.064H294.878C301.15 132.064 305.91 135.424 305.91 141.92C305.91 148.416 301.262 152 294.878 152H282.334ZM288.774 146.176H294.318C297.678 146.176 299.358 144.496 299.358 141.976C299.358 139.344 297.454 137.832 294.318 137.832H288.774V146.176ZM328.875 122.936L335.427 132.568L341.979 122.936H349.483L339.571 137.328L349.819 152H342.203L335.315 141.92L328.427 152H320.923L331.171 137.216L321.203 122.936H328.875ZM3.192 181.736C6.104 179.72 10.472 178.432 15.008 178.432C23.912 178.432 28 183.248 28 190.304V208H21.616V202.568C21.112 205.536 17.528 208.56 12.432 208.56C7 208.56 1.904 205.312 1.904 199.32C1.904 193.216 7.616 190.248 13.888 190.248C17.024 190.248 19.432 190.696 21.616 191.648V190.304C21.616 186.44 18.256 184.424 14.504 184.424C11.032 184.424 8.064 185.544 5.768 187.112L3.192 181.736ZM8.456 199.152C8.456 201.616 10.864 202.96 14 202.96C17.64 202.96 21.616 200.552 21.616 197.472V196.856C19.432 195.792 17.136 195.344 14.336 195.344C11.256 195.344 8.456 196.688 8.456 199.152ZM61.5668 178.936V208H55.1268V185.096H42.0788V208H35.6388V178.936H61.5668ZM95.3089 178.936V208H88.8689V185.096H75.8209V208H69.3809V178.936H95.3089ZM102.395 181.736C105.307 179.72 109.675 178.432 114.211 178.432C123.115 178.432 127.203 183.248 127.203 190.304V208H120.819V202.568C120.315 205.536 116.731 208.56 111.635 208.56C106.203 208.56 101.107 205.312 101.107 199.32C101.107 193.216 106.819 190.248 113.091 190.248C116.227 190.248 118.635 190.696 120.819 191.648V190.304C120.819 186.44 117.459 184.424 113.707 184.424C110.235 184.424 107.267 185.544 104.971 187.112L102.395 181.736ZM107.659 199.152C107.659 201.616 110.067 202.96 113.203 202.96C116.843 202.96 120.819 200.552 120.819 197.472V196.856C118.635 195.792 116.339 195.344 113.539 195.344C110.459 195.344 107.659 196.688 107.659 199.152ZM141.282 178.936V184.648C141.898 182.128 145.034 178.376 150.858 178.376C157.186 178.376 163.458 183.808 163.458 193.44C163.458 203.072 157.186 208.56 150.858 208.56C145.034 208.56 141.898 204.752 141.282 202.288V220.096H134.842V178.936H141.282ZM141.282 194.784C141.282 199.152 144.922 202.4 148.842 202.4C152.986 202.4 156.682 199.208 156.682 193.44C156.682 187.672 152.986 184.536 148.842 184.536C144.922 184.536 141.282 187.728 141.282 192.152V194.784ZM169.059 181.736C171.971 179.72 176.339 178.432 180.875 178.432C189.779 178.432 193.867 183.248 193.867 190.304V208H187.483V202.568C186.979 205.536 183.395 208.56 178.299 208.56C172.867 208.56 167.771 205.312 167.771 199.32C167.771 193.216 173.483 190.248 179.755 190.248C182.891 190.248 185.299 190.696 187.483 191.648V190.304C187.483 186.44 184.123 184.424 180.371 184.424C176.899 184.424 173.931 185.544 171.635 187.112L169.059 181.736ZM174.323 199.152C174.323 201.616 176.731 202.96 179.867 202.96C183.507 202.96 187.483 200.552 187.483 197.472V196.856C185.299 195.792 183.003 195.344 180.203 195.344C177.123 195.344 174.323 196.688 174.323 199.152ZM198.111 185.096V178.936H223.815V185.096H214.183V208H207.743V185.096H198.111ZM256.529 193.44C256.529 201.952 249.977 208.56 241.577 208.56C233.177 208.56 226.625 201.952 226.625 193.44C226.625 184.984 233.177 178.432 241.577 178.432C249.977 178.432 256.529 184.984 256.529 193.44ZM233.233 193.44C233.233 198.424 236.817 202.232 241.577 202.232C246.337 202.232 249.921 198.424 249.921 193.44C249.921 188.456 246.337 184.704 241.577 184.704C236.817 184.704 233.233 188.456 233.233 193.44ZM262.537 208V178.936H276.369C282.417 178.936 285.945 181.792 285.945 186.44C285.945 189.912 283.817 191.816 281.745 192.6C284.041 193.216 287.065 195.4 287.065 199.488C287.065 204.584 283.425 208 276.873 208H262.537ZM268.977 202.456H276.257C279.001 202.456 280.513 201.224 280.513 199.096C280.513 196.912 279.001 195.68 276.257 195.68H268.977V202.456ZM268.977 190.808H275.473C277.993 190.808 279.393 189.576 279.393 187.616C279.393 185.712 277.993 184.48 275.473 184.48H268.977V190.808Z" fill="url(#paint0_linear_8_150)"/>
<defs>
<linearGradient id="paint0_linear_8_150" x1="183" y1="67.0909" x2="183" y2="272.848" gradientUnits="userSpaceOnUse">
<stop stop-color="white"/>
<stop offset="1" stop-color="white" stop-opacity="0"/>
</linearGradient>
</defs>
</svg>
