<svg width="12" height="230" viewBox="0 0 12 230" fill="none" xmlns="http://www.w3.org/2000/svg">
<path d="M11.3714 229.387H0.943268V218.847H11.3714V229.387ZM2.05265 228.265H10.262V219.968H2.05265V228.265Z" fill="#464646"/>
<path d="M11.3714 192.945H0.943268V182.405H11.3714V192.945ZM2.05265 191.824H10.262V183.526H2.05265V191.824Z" fill="#464646"/>
<path d="M11.3714 156.503H0.943268V145.963H11.3714V156.503ZM2.05265 155.382H10.262V147.085H2.05265V155.382Z" fill="#464646"/>
<g opacity="0.8">
<path d="M11.3714 120.062H0.943268V109.522H11.3714V120.062ZM2.05265 118.941H10.262V110.643H2.05265V118.941Z" fill="#464646"/>
</g>
<g opacity="0.6">
<path d="M11.3714 83.6201H0.943268V73.0801H11.3714V83.6201ZM2.05265 82.4989H10.262V74.2014H2.05265V82.4989Z" fill="#464646"/>
</g>
<g opacity="0.4">
<path d="M11.3714 47.1785H0.943268V36.6385H11.3714V47.1785ZM2.05265 46.0572H10.262V37.7597H2.05265V46.0572Z" fill="#464646"/>
</g>
<g opacity="0.2">
<path d="M11.3713 10.7368H0.943237V0.196808H11.3713V10.7368ZM2.05262 9.61557H10.262V1.31809H2.05262V9.61557Z" fill="#464646"/>
</g>
</svg>
