<svg width="45" height="228" viewBox="0 0 45 228" fill="none" xmlns="http://www.w3.org/2000/svg">
<path d="M43.3018 10.0915C43.1908 10.0915 43.0799 10.0915 42.9689 9.97941L23.333 1.68193C23.0001 1.5698 22.7783 1.12128 22.8892 0.672765C23.0001 0.336381 23.4439 0.112132 23.8877 0.22426L43.5236 8.52174C43.8564 8.63386 44.0783 9.08239 43.9674 9.5309C43.8564 9.86728 43.6346 10.0915 43.3018 10.0915Z" fill="#6B71FF"/>
<path d="M24.5532 227.508C24.2204 227.508 23.9985 227.396 23.8876 227.059C23.7767 226.723 23.8876 226.275 24.2204 226.05L43.8564 217.641C44.1892 217.529 44.633 217.641 44.8548 217.977C44.9658 218.314 44.8549 218.762 44.522 218.986L24.886 227.396C24.7751 227.508 24.6642 227.508 24.5532 227.508Z" fill="#6B71FF"/>
<path d="M22.7783 114.371H1.47828C1.03453 114.371 0.701721 114.034 0.701721 113.586C0.701721 113.137 1.03453 112.801 1.47828 112.801H22.7783C23.2221 112.801 23.5549 113.137 23.5549 113.586C23.444 114.034 23.1111 114.371 22.7783 114.371Z" fill="#6B71FF"/>
<path d="M17.1205 120.538H1.36732C0.923573 120.538 0.590759 120.201 0.590759 119.753C0.590759 119.304 0.923573 118.968 1.36732 118.968H17.1205C17.5642 118.968 17.8971 119.304 17.8971 119.753C17.8971 120.314 17.5642 120.538 17.1205 120.538Z" fill="#6B71FF"/>
<path d="M1.70015 127.49C1.2564 127.49 1.03452 127.153 0.923584 126.817C0.923584 126.368 1.2564 126.032 1.58921 126.032L17.3424 125.696C17.7861 125.696 18.1189 126.032 18.1189 126.368C18.1189 126.817 17.7861 127.153 17.4533 127.153L1.70015 127.49Z" fill="#6B71FF"/>
<path d="M2.14381 134.33C1.811 134.33 1.47819 133.993 1.36725 133.657C1.36725 133.208 1.70006 132.872 2.03287 132.872L17.786 132.087C18.2298 132.087 18.5626 132.423 18.5626 132.76C18.5626 133.208 18.2298 133.545 17.897 133.545L2.14381 134.33Z" fill="#6B71FF"/>
<path d="M2.69856 141.169C2.36575 141.169 2.03293 140.833 1.922 140.497C1.922 140.048 2.14387 139.712 2.58762 139.712L18.3408 138.59C18.7845 138.59 19.1174 138.815 19.1174 139.263C19.1174 139.712 18.8955 140.048 18.4517 140.048L2.69856 141.169Z" fill="#6B71FF"/>
<path d="M3.47511 148.009C3.1423 148.009 2.80949 147.673 2.69855 147.336C2.69855 146.888 2.92042 146.552 3.36417 146.552L19.0064 145.094C19.4502 145.094 19.783 145.318 19.783 145.767C19.783 146.215 19.5611 146.552 19.1173 146.552L3.47511 148.009Z" fill="#6B71FF"/>
<path d="M4.36262 154.849C4.02981 154.849 3.697 154.625 3.58606 154.176C3.58606 153.728 3.80793 153.391 4.25168 153.391L19.8939 151.485C20.3377 151.373 20.6705 151.709 20.6705 152.158C20.6705 152.606 20.4486 152.943 20.0049 152.943L4.36262 154.849Z" fill="#6B71FF"/>
<path d="M5.36108 161.689C5.02826 161.689 4.69545 161.465 4.69545 161.016C4.58451 160.568 4.91733 160.231 5.36108 160.231L20.8924 157.989C21.3361 157.989 21.6689 158.213 21.6689 158.661C21.7799 159.11 21.4471 159.446 21.0033 159.446L5.36108 161.689C5.47201 161.689 5.47201 161.689 5.36108 161.689Z" fill="#6B71FF"/>
<path d="M6.58137 168.416C6.24856 168.416 5.91574 168.192 5.91574 167.856C5.8048 167.407 6.13762 167.071 6.47043 166.959L22.0017 164.38C22.4455 164.268 22.7783 164.604 22.8892 164.94C23.0002 165.389 22.6674 165.725 22.3345 165.838L6.80325 168.416C6.69231 168.416 6.69231 168.416 6.58137 168.416Z" fill="#6B71FF"/>
<path d="M8.02351 175.144C7.69069 175.144 7.35788 174.92 7.35788 174.584C7.24694 174.135 7.57976 173.799 7.91257 173.687L23.3329 170.659C23.7767 170.547 24.1095 170.883 24.2204 171.22C24.3314 171.668 23.9985 172.005 23.6657 172.117L8.13444 175.144H8.02351Z" fill="#6B71FF"/>
<path d="M9.57671 181.872C9.2439 181.872 8.91108 181.648 8.91108 181.311C8.80015 180.863 9.02202 180.526 9.46577 180.414L24.8861 177.05C25.3299 176.938 25.6627 177.163 25.7736 177.611C25.8846 178.06 25.6627 178.396 25.2189 178.508L9.68765 181.872H9.57671Z" fill="#6B71FF"/>
<path d="M11.2407 188.487C10.9079 188.487 10.5751 188.263 10.5751 187.927C10.4641 187.478 10.686 187.142 11.1298 187.03L26.4392 183.33C26.8829 183.217 27.2158 183.442 27.3267 183.89C27.4376 184.339 27.2158 184.675 26.772 184.787L11.4626 188.487C11.3516 188.487 11.3517 188.487 11.2407 188.487Z" fill="#6B71FF"/>
<path d="M13.1268 195.103C12.7939 195.103 12.4611 194.879 12.4611 194.542C12.3502 194.206 12.5721 193.757 13.0158 193.645L28.2143 189.497C28.658 189.384 28.9909 189.609 29.1018 190.057C29.2127 190.506 28.9909 190.842 28.5471 190.954L13.3486 195.103C13.2377 195.103 13.2377 195.103 13.1268 195.103Z" fill="#6B71FF"/>
<path d="M15.1236 201.719C14.7908 201.719 14.5689 201.494 14.458 201.158C14.3471 200.822 14.5689 200.373 14.9017 200.261L29.9893 195.776C30.3221 195.664 30.7659 195.888 30.8768 196.224C30.9877 196.561 30.7658 197.009 30.433 197.121L15.3455 201.606C15.2346 201.719 15.2346 201.719 15.1236 201.719Z" fill="#6B71FF"/>
<path d="M17.3423 208.222C17.0095 208.222 16.7876 207.998 16.6767 207.661C16.5657 207.325 16.7876 206.876 17.1204 206.764L32.097 201.943C32.4298 201.831 32.8736 202.055 32.9845 202.391C33.0955 202.728 32.8736 203.176 32.5408 203.288L17.5642 208.11C17.4532 208.222 17.3423 208.222 17.3423 208.222Z" fill="#6B71FF"/>
<path d="M19.672 214.725C19.3392 214.725 19.1173 214.501 19.0064 214.277C18.8955 213.941 19.1173 213.492 19.4501 213.38L34.3158 208.222C34.6486 208.11 35.0924 208.334 35.2033 208.67C35.3143 209.007 35.0924 209.455 34.7596 209.568L19.8939 214.725C19.783 214.725 19.672 214.725 19.672 214.725Z" fill="#6B71FF"/>
<path d="M22.1127 221.117C21.7799 221.117 21.558 220.892 21.4471 220.668C21.3361 220.332 21.4471 219.883 21.8908 219.771L36.6455 214.165C36.9784 214.053 37.4221 214.165 37.533 214.613C37.644 214.95 37.533 215.398 37.0893 215.51L22.3346 221.117C22.2236 221.117 22.2236 221.117 22.1127 221.117Z" fill="#6B71FF"/>
<path d="M35.647 13.9039C35.5361 13.9039 35.4252 13.9039 35.3142 13.7918L20.7814 7.62473C20.4486 7.5126 20.2267 7.06408 20.4486 6.61557C20.5595 6.27918 21.0033 6.05492 21.447 6.27918L35.9799 12.4462C36.3127 12.5584 36.5345 13.0069 36.3127 13.4554C36.2017 13.6796 35.9799 13.9039 35.647 13.9039Z" fill="#6B71FF"/>
<path d="M33.4283 19.9588C33.3174 19.9588 33.2064 19.9588 33.2064 19.9588L18.5626 14.016C18.2298 13.9039 18.0079 13.4554 18.1189 13.0069C18.2298 12.6705 18.6736 12.4462 19.1173 12.5584L33.7611 18.389C34.0939 18.5011 34.3158 18.9497 34.2049 19.3982C33.983 19.7346 33.7611 19.9588 33.4283 19.9588Z" fill="#6B71FF"/>
<path d="M31.3205 26.1259C31.2096 26.1259 31.0987 26.1259 31.0987 26.1259L16.3439 20.6316C16.0111 20.5195 15.7893 20.0709 15.9002 19.7346C16.0111 19.3982 16.4549 19.1739 16.7877 19.286L31.5424 24.7803C31.8752 24.8924 32.0971 25.341 31.9862 25.6773C31.8752 25.9016 31.5424 26.1259 31.3205 26.1259Z" fill="#6B71FF"/>
<path d="M29.3236 32.2929C29.2127 32.2929 29.2127 32.2929 29.1018 32.2929L14.2361 27.135C13.9033 27.0229 13.6814 26.5744 13.7923 26.238C13.9033 25.9016 14.347 25.6774 14.6798 25.7895L29.5455 30.9474C29.8783 31.0595 30.1002 31.508 29.9893 31.8444C29.8783 32.0687 29.6564 32.2929 29.3236 32.2929Z" fill="#6B71FF"/>
<path d="M27.4377 38.5721C27.3268 38.5721 27.3268 38.5721 27.2159 38.5721L12.2393 33.7506C11.9065 33.6384 11.6846 33.1899 11.7955 32.8536C11.9065 32.5172 12.3502 32.2929 12.683 32.405L27.6596 37.2266C27.9924 37.3387 28.2143 37.7872 28.1034 38.1236C28.1034 38.3478 27.7706 38.5721 27.4377 38.5721Z" fill="#6B71FF"/>
<path d="M25.7737 44.8513C25.6627 44.8513 25.6627 44.8513 25.5518 44.8513L10.4642 40.4783C10.1314 40.3661 9.90956 39.9176 10.0205 39.5812C10.1314 39.2449 10.5752 39.0206 10.908 39.1327L25.9955 43.5057C26.3283 43.6179 26.5502 44.0664 26.4393 44.4027C26.4393 44.627 26.1065 44.8513 25.7737 44.8513Z" fill="#6B71FF"/>
<path d="M24.3314 51.1304C24.2205 51.1304 24.2205 51.1304 24.1096 51.1304L8.91108 47.0938C8.46733 46.9817 8.24546 46.5332 8.3564 46.1968C8.46733 45.7483 8.91108 45.524 9.2439 45.6362L24.4424 49.6728C24.8861 49.7849 25.108 50.2334 24.9971 50.5698C24.8861 50.9062 24.5533 51.1304 24.3314 51.1304Z" fill="#6B71FF"/>
<path d="M22.8893 57.5218C22.8893 57.5218 22.7784 57.5218 22.6674 57.5218L7.46895 53.8215C7.02519 53.7094 6.80332 53.373 6.91426 52.9245C7.02519 52.476 7.35801 52.2517 7.80176 52.3639L23.1112 56.0641C23.5549 56.1762 23.7768 56.5126 23.6659 56.9611C23.5549 57.2975 23.2221 57.5218 22.8893 57.5218Z" fill="#6B71FF"/>
<path d="M21.6689 63.8009H21.5579L6.13759 60.5492C5.69383 60.4371 5.47196 60.1007 5.5829 59.6522C5.69383 59.2037 6.02665 58.9794 6.4704 59.0915L21.8908 62.3433C22.3345 62.4554 22.5564 62.7918 22.4454 63.2403C22.3345 63.5767 22.0017 63.8009 21.6689 63.8009Z" fill="#6B71FF"/>
<path d="M20.5596 70.3044H20.4486L5.02827 67.389C4.58452 67.2769 4.36265 66.9405 4.47358 66.492C4.58452 66.0435 4.91733 65.8192 5.36108 65.9314L20.7814 68.8467C21.2252 68.9588 21.4471 69.2952 21.3361 69.7437C21.2252 69.968 20.8924 70.3044 20.5596 70.3044Z" fill="#6B71FF"/>
<path d="M19.672 76.6957H19.5611L4.0298 74.1167C3.58605 74.0046 3.36417 73.6682 3.47511 73.2197C3.58605 72.7712 3.91886 72.5469 4.36261 72.6591L19.8939 75.238C20.3377 75.3501 20.5595 75.6865 20.4486 76.135C20.3377 76.4714 20.0048 76.6957 19.672 76.6957Z" fill="#6B71FF"/>
<path d="M18.8954 83.1991C18.7845 83.1991 18.7845 83.1991 18.8954 83.1991L3.25321 80.9565C2.80946 80.9565 2.58759 80.508 2.58759 80.1716C2.58759 79.7231 3.03134 79.4989 3.36415 79.4989L19.0064 81.6293C19.4501 81.6293 19.672 82.0778 19.672 82.4142C19.5611 82.8627 19.2283 83.1991 18.8954 83.1991Z" fill="#6B71FF"/>
<path d="M18.2299 89.5904L2.47672 87.7964C2.03297 87.7964 1.8111 87.3478 1.8111 87.0115C1.8111 86.5629 2.25484 86.3387 2.58766 86.3387L18.2299 88.1327C18.6736 88.1327 18.8955 88.5813 18.8955 88.9176C18.8955 89.3662 18.5627 89.5904 18.2299 89.5904Z" fill="#6B71FF"/>
<path d="M17.786 96.0938L2.03287 94.6362C1.58912 94.6362 1.36725 94.1877 1.36725 93.8513C1.36725 93.4028 1.811 93.1785 2.14381 93.1785L17.786 94.6362C18.2298 94.6362 18.4517 95.0847 18.4517 95.4211C18.4517 95.8696 18.1189 96.0938 17.786 96.0938Z" fill="#6B71FF"/>
<path d="M17.4533 102.597L1.70017 101.588C1.25642 101.588 1.03455 101.252 1.03455 100.803C1.03455 100.355 1.36736 100.13 1.81111 100.13L17.4533 101.14C17.8971 101.14 18.119 101.476 18.119 101.925C18.119 102.261 17.7861 102.597 17.4533 102.597Z" fill="#6B71FF"/>
<path d="M17.2315 109.101L1.47837 108.428C1.03462 108.428 0.812744 108.092 0.812744 107.643C0.812744 107.195 1.14556 106.97 1.58931 106.97L17.3425 107.643C17.7862 107.643 18.0081 107.979 18.0081 108.428C18.0081 108.764 17.6753 109.101 17.2315 109.101Z" fill="#6B71FF"/>
</svg>
