<svg width="485" height="542" viewBox="0 0 485 542" fill="none" xmlns="http://www.w3.org/2000/svg">
<path d="M467.556 188.922C464.512 174.605 452.005 163.744 436.866 163.168V159.547C436.866 155.68 434.397 152.388 430.941 151.072L436.701 130.995V130.83C438.264 124.412 434.397 117.83 427.897 116.266C426.91 116.019 426.005 115.937 425.017 115.937C419.504 115.937 414.65 119.722 413.333 125.07V125.235L407.985 150.661C403.213 150.825 399.346 154.775 399.346 159.629V163.25H387.168L369.807 109.437C367.256 101.784 360.18 96.6828 352.199 96.6828H266.133C265.804 96.8473 265.475 96.9296 265.063 96.9296H255.519V109.519H230.341V96.9296H220.796C220.385 96.9296 220.056 96.8473 219.726 96.6828H133.743C125.762 96.6828 118.686 101.784 116.135 109.354L98.6913 163.168H86.5138V159.547C86.5138 154.692 82.6466 150.743 77.8743 150.578L72.526 125.153V124.988C71.2095 119.64 66.3549 115.855 60.8421 115.855C59.8548 115.855 58.8674 115.937 57.9623 116.184C51.5444 117.747 47.5949 124.33 49.1582 130.748V130.913L54.9179 150.99C51.4621 152.224 48.9937 155.515 48.9937 159.465V163.085C33.854 163.579 21.3473 174.44 18.3029 188.84C8.10009 193.448 0.94165 203.733 0.94165 215.582V479.053C0.94165 491.478 8.75833 502.092 19.7017 506.289C23.1575 515.34 30.3982 522.416 39.6137 525.625V528.67C39.6137 535.664 45.3733 541.423 52.3672 541.423H80.5895C87.5834 541.423 93.3431 535.664 93.3431 528.67V527.435H392.599V528.67C392.599 535.664 398.358 541.423 405.352 541.423H433.574C440.568 541.423 446.328 535.664 446.328 528.67V525.625C455.461 522.498 462.784 515.34 466.24 506.289C477.183 502.092 485 491.478 485 479.053V215.582C484.918 203.733 477.759 193.448 467.556 188.922ZM16.575 497.155C15.9168 496.661 15.2585 496.168 14.6826 495.592C13.2015 494.193 11.885 492.629 10.8154 490.902C10.5685 490.572 10.404 490.161 10.2394 489.832C8.51149 486.623 7.52412 483.002 7.52412 479.053V215.582C7.52412 214.019 7.68868 212.538 8.01781 211.056C8.18237 210.316 8.34693 209.575 8.59377 208.917C8.84061 208.176 9.08746 207.518 9.3343 206.86C9.58114 206.202 9.91026 205.543 10.3217 204.885C10.4862 204.556 10.6508 204.227 10.8976 203.898C11.2268 203.404 11.5559 202.91 11.885 202.499C12.0496 202.252 12.2141 202.005 12.461 201.758C12.9547 201.182 13.4483 200.606 13.942 200.03C14.1889 199.784 14.4357 199.537 14.6826 199.29C15.1762 198.796 15.7522 198.385 16.2459 197.891C16.575 197.644 16.9041 197.397 17.2333 197.151C17.3978 197.068 17.5624 196.904 17.7269 196.821V494.851C17.7269 495.921 17.8092 496.991 17.8915 497.978C17.3978 497.731 16.9864 497.484 16.575 497.155ZM419.834 126.552C419.916 126.305 419.998 125.976 420.08 125.729C420.08 125.646 420.08 125.646 420.163 125.564C420.245 125.317 420.41 125.07 420.574 124.906C420.574 124.824 420.656 124.824 420.656 124.741C420.821 124.494 420.986 124.33 421.15 124.083C421.15 124.083 421.15 124.083 421.232 124.001C421.397 123.836 421.561 123.672 421.808 123.507L421.891 123.425C422.137 123.26 422.302 123.096 422.549 123.013C422.631 123.013 422.631 122.931 422.713 122.931C422.96 122.849 423.207 122.684 423.454 122.602H423.536C423.783 122.52 424.03 122.437 424.277 122.437H424.359C424.606 122.355 424.853 122.355 425.182 122.355H425.346C425.511 122.355 425.593 122.355 425.758 122.355C425.84 122.355 425.922 122.355 425.922 122.355C426.087 122.355 426.334 122.437 426.498 122.437C426.663 122.52 426.827 122.52 426.992 122.602C427.897 122.931 428.638 123.425 429.214 124.083C430.366 125.4 430.941 127.21 430.448 129.02L424.277 150.414H414.814L419.834 126.552ZM405.928 159.547C405.928 159.218 406.01 158.889 406.093 158.642C406.175 158.477 406.257 158.313 406.422 158.148C406.586 157.901 406.751 157.737 406.998 157.572C407.245 157.408 407.574 157.243 407.821 157.243C407.985 157.243 408.15 157.161 408.314 157.161H427.897C428.309 157.161 428.72 157.243 429.049 157.49C429.131 157.49 429.131 157.572 429.214 157.572C429.625 157.819 429.872 158.231 430.119 158.642C430.201 158.889 430.283 159.218 430.283 159.547V163.168H405.928V159.547ZM262.101 103.265H352.199C352.857 103.265 353.515 103.348 354.091 103.43C354.749 103.512 355.325 103.677 355.901 103.841C356.477 104.006 357.053 104.253 357.629 104.582C358.452 104.993 359.193 105.487 359.933 106.145C360.427 106.557 360.838 106.968 361.25 107.462C361.826 108.12 362.401 108.943 362.813 109.766C363.142 110.342 363.389 110.918 363.553 111.494L380.339 163.25H333.11V153.787C333.11 153.376 333.11 152.882 333.027 152.471H349.401C349.566 152.471 349.813 152.471 349.977 152.471C350.224 152.471 350.388 152.388 350.635 152.388C350.882 152.306 351.129 152.306 351.376 152.224C351.54 152.142 351.787 152.059 351.952 151.977C352.116 151.895 352.281 151.812 352.446 151.73C352.692 151.566 352.939 151.483 353.186 151.237C353.515 150.99 353.927 150.661 354.173 150.331C354.42 150.085 354.667 149.838 354.832 149.509C355.079 149.097 355.325 148.686 355.49 148.274C355.654 147.863 355.819 147.369 355.901 146.876C355.901 146.629 355.984 146.382 355.984 146.135C355.984 145.641 355.984 145.148 355.901 144.654L349.977 124.083C349.813 123.425 349.566 122.849 349.237 122.273C348.249 120.709 346.439 119.64 344.464 119.64H278.064C275.924 113.715 270.247 109.437 263.582 109.437H262.266V103.265H262.101ZM330.559 145.806C328.09 142.35 324.059 140.128 319.533 140.128H278.969V126.305H343.724L349.319 145.806H330.559ZM263.418 116.102C264.323 116.102 265.146 116.266 265.968 116.513C266.133 116.595 266.215 116.595 266.38 116.678C266.956 116.924 267.532 117.171 268.025 117.5C268.437 117.747 268.848 118.076 269.177 118.323C269.424 118.488 269.589 118.735 269.836 118.899C270.082 119.146 270.247 119.393 270.494 119.64C270.576 119.722 270.658 119.804 270.741 119.969C270.905 120.216 271.07 120.463 271.234 120.709C271.399 120.956 271.481 121.203 271.646 121.45C271.975 122.273 272.222 123.096 272.304 124.001C272.304 124.33 272.386 124.577 272.386 124.906V140.046H213.555V124.906C213.555 124.577 213.555 124.33 213.638 124.001C213.72 123.096 213.967 122.273 214.296 121.45C214.378 121.203 214.543 120.956 214.707 120.709C214.872 120.463 215.036 120.216 215.201 119.969C215.283 119.887 215.366 119.804 215.448 119.64C215.612 119.393 215.859 119.146 216.106 118.899C216.271 118.652 216.518 118.488 216.764 118.323C217.093 117.994 217.505 117.747 217.916 117.5C218.41 117.171 218.986 116.924 219.562 116.678C219.726 116.595 219.809 116.595 219.973 116.513C220.796 116.266 221.619 116.102 222.524 116.102H263.418ZM122.388 111.411C122.47 111.165 122.553 111 122.635 110.753C122.717 110.506 122.8 110.342 122.882 110.095C123.046 109.848 123.129 109.519 123.293 109.272C123.458 108.943 123.705 108.614 123.952 108.285C124.198 107.956 124.445 107.626 124.774 107.297C125.515 106.474 126.338 105.734 127.243 105.158C127.572 104.911 127.983 104.664 128.312 104.5C129.958 103.677 131.768 103.183 133.743 103.183H223.841V109.437H222.524C215.859 109.437 210.182 113.715 208.043 119.64H141.642C141.313 119.64 140.984 119.64 140.655 119.722C139.996 119.804 139.42 120.051 138.844 120.38C138.598 120.545 138.351 120.709 138.104 120.874C137.61 121.285 137.199 121.697 136.87 122.273C136.541 122.767 136.294 123.425 136.129 124.083L130.205 144.654C130.04 145.394 130.04 146.135 130.205 146.876C130.287 147.205 130.287 147.451 130.452 147.698C130.534 148.027 130.699 148.357 130.781 148.603C130.945 148.85 131.028 149.179 131.192 149.426C131.357 149.673 131.604 150.002 131.851 150.249C132.18 150.578 132.509 150.907 132.838 151.154C133.085 151.319 133.332 151.483 133.578 151.648C133.743 151.73 133.908 151.812 134.072 151.895C134.237 151.977 134.484 152.059 134.648 152.142C134.895 152.224 135.142 152.306 135.389 152.306C135.635 152.306 135.8 152.388 136.047 152.388C136.211 152.388 136.458 152.388 136.623 152.388H152.997C152.914 152.8 152.914 153.294 152.914 153.705V163.168H105.685L122.388 111.411ZM206.973 126.305V140.128H166.408C161.883 140.128 157.851 142.35 155.383 145.806H136.623L142.218 126.305H206.973ZM77.5451 157.161C78.0388 157.161 78.5325 157.325 78.8616 157.572C78.9439 157.655 79.1085 157.737 79.1908 157.819C79.273 157.901 79.3553 157.984 79.4376 158.148C79.5199 158.313 79.6844 158.477 79.7667 158.642C79.849 158.889 79.9313 159.218 79.9313 159.547V163.168H55.5761V159.547C55.5761 159.053 55.7407 158.56 55.9876 158.231C56.0698 158.066 56.1521 157.984 56.3167 157.901C56.399 157.819 56.5635 157.655 56.6458 157.572C56.7281 157.572 56.7281 157.49 56.8104 157.49C57.1395 157.325 57.5509 157.161 57.9623 157.161H77.5451ZM55.4116 127.045C55.6584 125.317 56.8104 123.754 58.456 123.013C58.7851 122.849 59.1142 122.767 59.5256 122.602C59.6902 122.52 59.937 122.52 60.1016 122.52C60.1839 122.52 60.2662 122.52 60.2662 122.52C60.4307 122.52 60.513 122.52 60.6776 122.52H60.8421C61.089 122.52 61.3358 122.52 61.6649 122.602H61.7472C61.9941 122.684 62.2409 122.684 62.4877 122.767H62.57C62.8169 122.849 63.0637 122.931 63.3106 123.096C63.3928 123.096 63.3928 123.178 63.4751 123.178C63.722 123.343 63.8865 123.425 64.1334 123.589L64.2156 123.672C64.3802 123.836 64.627 124.001 64.7916 124.165C64.7916 124.165 64.7916 124.165 64.8739 124.248C65.0384 124.412 65.203 124.659 65.3676 124.906C65.3676 124.988 65.4499 124.988 65.4499 125.07C65.6144 125.317 65.6967 125.564 65.8613 125.729C65.8613 125.811 65.8613 125.811 65.9435 125.893C66.0258 126.14 66.1081 126.387 66.1904 126.716L71.2095 150.743H61.6649L55.4939 129.349C55.4116 129.185 55.4116 129.02 55.4116 128.773C55.3293 128.033 55.3293 127.539 55.4116 127.045ZM86.7606 528.67C86.7606 529.328 86.6783 529.904 86.5138 530.48C86.4315 530.891 86.2669 531.22 86.0201 531.549C85.7732 532.043 85.3618 532.537 85.0327 532.948C84.8681 533.113 84.7859 533.195 84.6213 533.36C83.7162 534.1 82.5643 534.594 81.3301 534.759C81.0832 534.759 80.9187 534.759 80.6718 534.759H52.3672C51.9558 534.759 51.5444 534.676 51.133 534.594C50.7216 534.512 50.3102 534.429 49.981 534.265C47.7595 533.36 46.1961 531.138 46.1961 528.587V527.106C47.5126 527.271 48.8291 527.353 50.2279 527.353H86.7606V528.67ZM439.746 528.67C439.746 529.081 439.663 529.492 439.581 529.904C439.499 530.48 439.252 531.056 438.923 531.632C437.853 533.524 435.878 534.841 433.492 534.841H405.27C405.105 534.841 404.858 534.841 404.694 534.841C403.953 534.758 403.295 534.594 402.637 534.265C402.308 534.1 401.979 533.936 401.732 533.771C401.32 533.442 400.909 533.113 400.58 532.701C400.251 532.29 399.922 531.879 399.757 531.385C399.592 530.891 399.346 530.398 399.263 529.904C399.181 529.657 399.181 529.492 399.181 529.246C399.181 529.081 399.181 528.834 399.181 528.67V527.435H435.714C437.03 527.435 438.429 527.353 439.746 527.188V528.67ZM461.715 494.851C461.715 496.168 461.632 497.484 461.385 498.801C461.303 499.212 461.221 499.624 461.139 500.117C461.056 500.446 460.974 500.776 460.892 501.105C460.727 501.598 460.645 502.092 460.48 502.586C460.233 503.409 459.904 504.231 459.575 504.972C459.411 505.383 459.246 505.713 459.082 506.124C458.752 506.864 458.341 507.523 457.93 508.181C457.93 508.263 457.847 508.263 457.847 508.346C457.189 509.415 456.449 510.403 455.708 511.39C455.461 511.719 455.132 512.048 454.885 512.295C454.309 512.871 453.733 513.529 453.157 514.023C452.828 514.27 452.499 514.599 452.252 514.846C451.594 515.34 450.936 515.916 450.277 516.327C449.619 516.821 448.879 517.232 448.138 517.644C447.562 517.973 446.986 518.22 446.328 518.549C445.752 518.796 445.258 519.042 444.682 519.207C443.86 519.536 443.037 519.783 442.214 519.948C441.391 520.194 440.568 520.359 439.746 520.441C439.746 520.441 439.746 520.441 439.663 520.441C439.005 520.523 438.347 520.606 437.688 520.688C437.03 520.77 436.372 520.77 435.714 520.77H50.1456C49.2405 520.77 48.3354 520.688 47.5126 520.606C47.1012 520.523 46.6075 520.523 46.1961 520.441C44.9619 520.277 43.6454 519.948 42.4935 519.618C42.0821 519.454 41.6707 519.372 41.2593 519.207C40.6833 519.042 40.1896 518.796 39.6137 518.549C39.0377 518.302 38.3794 517.973 37.8035 517.644C37.063 517.232 36.3224 516.821 35.6642 516.327C34.5945 515.587 33.6072 514.846 32.7021 514.023C32.1261 513.447 31.4679 512.871 30.9742 512.295C29.8222 511.061 28.8349 509.744 28.0121 508.263C28.0121 508.181 27.9298 508.181 27.9298 508.099C27.5184 507.44 27.1892 506.782 26.7778 506.042C26.6133 505.63 26.4487 505.301 26.2842 504.89C25.955 504.149 25.6259 503.326 25.3791 502.504C25.2145 502.01 25.1322 501.516 24.9677 501.022C24.8854 500.693 24.8031 500.364 24.7208 500.035C24.6385 499.624 24.5563 499.212 24.474 498.718C24.3094 497.402 24.1449 496.085 24.1449 494.769V195.669C24.1449 195.34 24.1449 195.011 24.1449 194.682C24.1449 194.353 24.1449 194.024 24.2271 193.695C24.2271 193.366 24.3094 193.119 24.3094 192.79C24.3917 192.049 24.474 191.308 24.6385 190.568C24.8854 189.251 25.2968 187.935 25.7082 186.618C25.7082 186.618 25.7082 186.618 25.7082 186.536C26.1196 185.384 26.6956 184.232 27.2715 183.162C27.6829 182.422 28.0943 181.681 28.588 181.023C29.3285 179.953 30.0691 178.966 30.8919 178.061C31.4679 177.485 32.0438 176.827 32.6198 176.333C33.0312 176.004 33.3603 175.675 33.7717 175.346C34.3477 174.852 34.9236 174.44 35.5819 174.029C36.2401 173.535 36.9807 173.124 37.7212 172.712C38.7909 172.136 39.9428 171.56 41.177 171.149C41.5884 170.984 41.9998 170.902 42.4112 170.738C44.0568 170.244 45.7024 169.915 47.5126 169.668C48.0063 169.586 48.5 169.586 48.9937 169.586C49.4051 169.586 49.7342 169.586 50.1456 169.586H152.832V188.017H159.415V153.54C159.415 153.047 159.497 152.635 159.579 152.224C160.237 149.015 163.035 146.546 166.491 146.546H319.615C323.071 146.546 325.869 149.015 326.527 152.224C326.609 152.635 326.692 153.129 326.692 153.54V188.017H333.274V169.586H435.961C436.372 169.586 436.701 169.586 437.113 169.586C438.1 169.668 439.005 169.75 439.91 169.833C440.733 169.997 441.638 170.162 442.461 170.326C443.284 170.573 444.106 170.82 444.929 171.067C446.163 171.478 447.315 172.054 448.385 172.63C449.126 173.042 449.866 173.453 450.524 173.947C451.018 174.276 451.512 174.605 452.005 175.016C452.499 175.428 452.993 175.839 453.486 176.251C454.062 176.827 454.721 177.403 455.214 177.979C455.626 178.39 456.037 178.884 456.366 179.377C456.778 179.871 457.189 180.447 457.518 180.941C458.012 181.599 458.423 182.34 458.835 183.08C459.411 184.15 459.904 185.302 460.398 186.454C460.398 186.454 460.398 186.454 460.398 186.536C460.892 187.77 461.221 189.087 461.468 190.486C461.632 191.226 461.714 191.967 461.797 192.707C461.797 192.954 461.879 193.283 461.879 193.612C461.879 193.941 461.961 194.271 461.961 194.6C461.961 194.929 461.961 195.258 461.961 195.587V494.851H461.715ZM477.677 209.987C478.171 211.797 478.418 213.689 478.418 215.664V479.135C478.418 479.629 478.418 480.04 478.335 480.534C478.253 481.933 478.006 483.249 477.759 484.566C477.677 484.73 477.677 484.977 477.595 485.142C477.266 486.294 476.854 487.446 476.361 488.515C476.278 488.762 476.114 489.009 475.949 489.338C475.538 490.243 475.044 491.066 474.468 491.807C474.057 492.383 473.645 492.959 473.152 493.535C472.905 493.781 472.658 494.111 472.411 494.357C472.164 494.604 471.917 494.851 471.67 495.18C471.424 495.509 471.177 495.674 470.848 495.921C470.601 496.168 470.272 496.415 470.025 496.661C469.449 497.155 468.873 497.567 468.297 497.978C468.215 498.06 468.132 498.06 468.05 498.143C468.132 497.073 468.215 496.085 468.215 495.016V196.821L468.297 196.904C468.873 197.315 469.449 197.727 470.025 198.22C470.272 198.467 470.601 198.714 470.848 198.961C471.424 199.454 471.917 199.948 472.411 200.524C472.658 200.771 472.905 201.1 473.152 201.347C473.645 201.923 474.057 202.499 474.468 203.075C475.044 203.98 475.62 204.885 476.114 205.873C476.772 207.107 477.266 208.506 477.677 209.987Z" fill="#737373"/>
<path d="M121.977 343.615C157.687 343.615 187.555 318.436 194.878 284.864C196.03 279.763 196.606 274.414 196.606 268.984C196.606 240.185 180.149 215.088 156.123 202.664C145.921 197.397 134.237 194.353 121.977 194.353C80.8364 194.353 47.3481 227.842 47.3481 268.984C47.3481 310.125 80.8364 343.615 121.977 343.615ZM60.6776 239.444C61.4181 237.881 62.2409 236.317 63.146 234.836C64.0511 233.355 64.9562 231.874 65.9435 230.393C66.6018 229.406 67.26 228.5 68.0006 227.595C70.469 224.386 73.1842 221.424 76.2286 218.709C84.2922 211.386 94.0836 205.955 104.945 203.157C107.084 202.581 109.306 202.17 111.609 201.758C113.831 201.429 116.135 201.182 118.439 201.1C119.591 201.018 120.743 201.018 121.977 201.018C134.401 201.018 146.085 204.391 156.123 210.234C161.225 213.196 165.915 216.816 170.029 220.93C171.592 222.494 173.073 224.057 174.39 225.785C179.903 232.532 184.181 240.267 186.896 248.824C187.884 252.033 188.624 255.325 189.2 258.698C189.365 259.85 189.529 260.92 189.612 262.072C189.694 263.224 189.776 264.376 189.859 265.528C189.941 266.68 189.941 267.832 189.941 269.066C189.941 274.579 189.283 279.845 188.048 284.947C187.966 285.276 187.884 285.687 187.802 286.016C185.004 296.878 179.573 306.669 172.25 314.733C170.029 317.119 167.725 319.423 165.174 321.48C163.529 322.879 161.718 324.196 159.908 325.43C158.098 326.664 156.206 327.816 154.313 328.804C152.421 329.873 150.364 330.778 148.389 331.684C140.243 335.139 131.275 337.032 121.895 337.032C120.743 337.032 119.591 337.032 118.356 336.95C116.053 336.867 113.749 336.621 111.527 336.291C109.306 335.962 107.084 335.469 104.862 334.893C94.0013 332.095 84.2099 326.664 76.1464 319.341C73.1843 316.626 70.3867 313.664 67.9183 310.454C67.1777 309.549 66.5195 308.562 65.8613 307.657C64.8739 306.258 63.9688 304.777 63.0637 303.214C62.1586 301.732 61.3358 300.169 60.5953 298.606C59.8548 297.042 59.1142 295.397 58.456 293.751C55.4939 286.099 53.8483 277.706 53.8483 268.984C53.8483 260.262 55.4939 251.869 58.456 244.217C59.1965 242.653 59.937 241.007 60.6776 239.444Z" fill="#737373"/>
<path d="M121.977 319.012C143.946 319.012 162.624 304.695 169.288 284.947C170.934 279.927 171.921 274.579 171.921 269.066C171.921 254.749 165.833 241.83 156.123 232.697C147.155 224.304 135.142 219.12 121.977 219.12C94.4127 219.12 72.0323 241.501 72.0323 269.066C72.0323 296.631 94.4127 319.012 121.977 319.012ZM77.0515 259.768C77.5451 257.546 78.1211 255.325 78.8616 253.268C79.3553 251.869 79.9313 250.47 80.5895 249.154C80.9187 248.495 81.2478 247.837 81.5769 247.179C82.3174 245.862 83.058 244.628 83.8808 243.394C84.7036 242.159 85.6087 241.007 86.5138 239.856C87.0074 239.28 87.5011 238.704 87.9948 238.21C88.9822 237.14 90.0518 236.071 91.1215 235.083C91.6974 234.589 92.1911 234.096 92.7671 233.602C95.071 231.709 97.4571 230.064 100.09 228.665C100.748 228.336 101.407 228.007 102.065 227.678C105.109 226.197 108.236 225.127 111.609 224.304C113.255 223.893 114.983 223.646 116.711 223.399C117.534 223.317 118.439 223.234 119.344 223.152C120.249 223.07 121.072 223.07 121.977 223.07C122.882 223.07 123.787 223.07 124.61 223.152C125.515 223.234 126.338 223.317 127.243 223.399C128.971 223.563 130.699 223.893 132.344 224.304C135.635 225.045 138.844 226.197 141.889 227.678C142.547 228.007 143.205 228.336 143.864 228.665C146.497 230.064 148.883 231.709 151.187 233.602C151.762 234.096 152.338 234.589 152.832 235.083C153.902 236.071 154.971 237.14 155.959 238.21C156.041 238.292 156.123 238.374 156.206 238.457C156.617 238.95 157.028 239.362 157.44 239.856C158.345 241.007 159.25 242.159 160.073 243.394C160.896 244.628 161.636 245.862 162.377 247.179C162.706 247.837 163.035 248.495 163.364 249.154C164.022 250.47 164.598 251.869 165.092 253.268C165.833 255.407 166.491 257.546 166.902 259.768C167.478 262.73 167.807 265.857 167.807 268.984C167.807 274.497 166.82 279.845 165.01 284.782C158.592 302.308 141.724 314.816 121.977 314.816C96.6343 314.816 76.1464 294.327 76.1464 268.984C76.1464 265.857 76.3932 262.813 77.0515 259.768Z" fill="#737373"/>
<path d="M164.927 313.581C167.609 313.581 169.782 311.408 169.782 308.727C169.782 306.045 167.609 303.872 164.927 303.872C162.246 303.872 160.073 306.045 160.073 308.727C160.073 311.408 162.246 313.581 164.927 313.581Z" fill="#737373"/>
<path d="M78.9439 313.581C81.625 313.581 83.7985 311.408 83.7985 308.727C83.7985 306.045 81.625 303.872 78.9439 303.872C76.2628 303.872 74.0893 306.045 74.0893 308.727C74.0893 311.408 76.2628 313.581 78.9439 313.581Z" fill="#737373"/>
<path d="M164.927 234.178C167.609 234.178 169.782 232.004 169.782 229.323C169.782 226.642 167.609 224.469 164.927 224.469C162.246 224.469 160.073 226.642 160.073 229.323C160.073 232.004 162.246 234.178 164.927 234.178Z" fill="#737373"/>
<path d="M78.9439 234.178C81.625 234.178 83.7985 232.004 83.7985 229.323C83.7985 226.642 81.625 224.469 78.9439 224.469C76.2628 224.469 74.0893 226.642 74.0893 229.323C74.0893 232.004 76.2628 234.178 78.9439 234.178Z" fill="#737373"/>
<path d="M121.977 308.973C139.338 308.973 154.149 297.865 159.579 282.314C161.06 278.117 161.883 273.674 161.883 268.984C161.883 261.414 159.744 254.337 156.123 248.331C151.351 240.514 144.028 234.507 135.306 231.38C132.591 226.855 127.654 223.81 121.977 223.81C116.299 223.81 111.363 226.855 108.647 231.38C93.1785 236.893 82.0706 251.622 82.0706 268.984C81.9883 291.036 99.9255 308.973 121.977 308.973ZM110.704 236.976C110.869 236.317 111.033 235.577 111.363 235.001C111.609 234.425 111.856 233.931 112.185 233.355C113.173 231.792 114.489 230.558 116.053 229.57C117.78 228.583 119.755 227.924 121.895 227.924C124.034 227.924 126.009 228.5 127.736 229.57C128.888 230.311 129.958 231.134 130.781 232.203C131.028 232.532 131.357 232.944 131.604 233.273C131.933 233.767 132.18 234.343 132.426 234.919C132.673 235.577 132.92 236.153 133.002 236.893C133.085 237.305 133.167 237.716 133.249 238.128C133.332 238.539 133.332 238.95 133.332 239.444C133.332 239.938 133.332 240.349 133.249 240.843C133.249 240.925 133.249 241.007 133.249 241.09C133.167 241.666 133.002 242.324 132.838 242.9C132.591 243.641 132.344 244.299 131.933 244.957C129.958 248.578 126.173 250.964 121.812 250.964C117.451 250.964 113.666 248.495 111.692 244.957C111.363 244.299 111.033 243.641 110.787 242.9C110.622 242.324 110.457 241.748 110.375 241.172C110.375 241.09 110.375 241.007 110.375 240.925C110.293 240.432 110.293 240.02 110.293 239.526C110.457 238.539 110.54 237.716 110.704 236.976ZM110.457 249.894C113.337 253.021 117.369 254.996 121.977 254.996C126.585 254.996 130.616 253.021 133.496 249.894V263.306C133.496 269.642 128.395 274.826 121.977 274.826C115.641 274.826 110.457 269.724 110.457 263.306V249.894ZM93.6722 253.515C93.6722 246.52 99.3496 240.843 106.261 240.843V263.306C106.261 271.946 113.255 278.94 121.895 278.94C130.534 278.94 137.528 271.946 137.528 263.306V240.843C144.522 240.843 150.117 246.52 150.117 253.515V284.618C150.117 291.612 144.439 297.289 137.446 297.289H106.343C99.3496 297.289 93.6722 291.612 93.6722 284.618V253.515Z" fill="#737373"/>
<path d="M114.654 241.09C115.723 244.134 118.603 246.274 121.977 246.274C125.433 246.274 128.395 243.97 129.382 240.761C129.382 240.678 129.464 240.596 129.464 240.514C129.629 239.856 129.711 239.28 129.711 238.539C129.711 237.716 129.547 236.976 129.382 236.235C128.395 233.108 125.433 230.887 122.059 230.887C118.603 230.887 115.723 233.108 114.736 236.235C114.489 236.976 114.407 237.798 114.407 238.621C114.407 239.362 114.489 240.102 114.736 240.843C114.572 240.925 114.654 241.007 114.654 241.09ZM118.274 234.836C119.262 233.931 120.496 233.355 121.977 233.355C123.376 233.355 124.692 233.931 125.679 234.836C126.667 235.824 127.243 237.14 127.243 238.621C127.243 239.033 127.161 239.362 127.078 239.773C126.996 240.185 126.831 240.514 126.667 240.843C125.844 242.653 124.034 243.887 121.895 243.887C119.755 243.887 117.945 242.653 117.122 240.843C116.958 240.514 116.875 240.102 116.793 239.773C116.711 239.444 116.629 239.033 116.629 238.621C116.711 237.14 117.287 235.741 118.274 234.836Z" fill="#737373"/>
<path d="M363.965 343.615C405.105 343.615 438.594 310.125 438.594 268.984C438.594 227.842 405.105 194.353 363.965 194.353C351.623 194.353 340.021 197.315 329.818 202.664C305.792 215.088 289.336 240.185 289.336 268.984C289.336 274.414 289.912 279.763 291.064 284.864C298.387 318.436 328.255 343.615 363.965 343.615ZM296.001 265.528C296.083 264.376 296.165 263.224 296.248 262.072C296.33 260.92 296.495 259.768 296.659 258.698C297.153 255.325 297.976 252.033 298.963 248.824C301.596 240.267 305.875 232.532 311.47 225.785C312.868 224.139 314.349 222.494 315.831 220.93C319.945 216.816 324.635 213.196 329.736 210.234C339.774 204.391 351.458 201.018 363.883 201.018C382.643 201.018 399.675 208.67 412.017 220.93C413.58 222.494 415.061 224.057 416.378 225.785C421.891 232.532 426.169 240.267 428.884 248.824C429.872 252.033 430.612 255.325 431.188 258.698C431.353 259.85 431.517 260.92 431.6 262.072C431.682 263.224 431.764 264.376 431.847 265.528C431.929 266.68 431.929 267.832 431.929 269.066C431.929 274.908 431.188 280.668 429.79 286.099C426.992 296.96 421.561 306.752 414.238 314.816C412.017 317.202 409.713 319.506 407.162 321.563C405.517 322.962 403.706 324.278 401.896 325.512C400.086 326.747 398.194 327.899 396.301 328.886C394.409 329.956 392.352 330.861 390.377 331.766C382.231 335.222 373.263 337.114 363.883 337.114C354.503 337.114 345.534 335.222 337.388 331.766C335.331 330.943 333.356 329.956 331.464 328.886C329.571 327.816 327.679 326.664 325.869 325.512C324.059 324.278 322.331 322.962 320.603 321.563C318.052 319.506 315.748 317.202 313.527 314.816C306.204 306.752 300.773 296.96 297.976 286.099C297.893 285.77 297.811 285.358 297.729 285.029C296.495 279.927 295.836 274.579 295.836 269.148C295.919 267.832 295.919 266.68 296.001 265.528Z" fill="#737373"/>
<path d="M363.965 319.012C391.529 319.012 413.909 296.631 413.909 269.066C413.909 241.501 391.529 219.12 363.965 219.12C350.718 219.12 338.705 224.304 329.818 232.697C320.109 241.83 314.02 254.749 314.02 269.066C314.02 274.661 314.925 280.01 316.653 284.947C323.318 304.695 341.996 319.012 363.965 319.012ZM319.039 259.768C319.533 257.546 320.109 255.325 320.85 253.268C321.343 251.869 321.919 250.47 322.578 249.154C322.907 248.495 323.236 247.837 323.565 247.179C324.305 245.862 325.046 244.628 325.869 243.394C326.692 242.159 327.597 241.007 328.502 239.856C328.913 239.362 329.325 238.95 329.736 238.457C329.818 238.374 329.901 238.292 329.983 238.21C330.97 237.14 332.04 236.071 333.11 235.083C333.685 234.589 334.179 234.096 334.755 233.602C337.059 231.709 339.445 230.064 342.078 228.665C342.736 228.336 343.395 228.007 344.053 227.678C347.097 226.197 350.224 225.127 353.597 224.304C355.243 223.893 356.971 223.646 358.699 223.399C359.522 223.317 360.427 223.234 361.332 223.152C362.237 223.07 363.06 223.07 363.965 223.07C364.87 223.07 365.775 223.07 366.598 223.152C367.503 223.234 368.326 223.317 369.231 223.399C370.959 223.563 372.687 223.893 374.332 224.304C377.623 225.045 380.832 226.197 383.877 227.678C384.535 228.007 385.193 228.336 385.852 228.665C388.485 230.064 390.871 231.709 393.175 233.602C393.751 234.096 394.326 234.589 394.82 235.083C395.89 236.071 396.959 237.14 397.947 238.21C398.441 238.786 398.934 239.28 399.428 239.856C400.333 241.007 401.238 242.159 402.061 243.394C402.884 244.628 403.624 245.862 404.365 247.179C404.694 247.837 405.023 248.495 405.352 249.154C406.01 250.47 406.586 251.869 407.08 253.268C407.821 255.407 408.479 257.546 408.89 259.768C409.466 262.73 409.795 265.857 409.795 268.984C409.795 294.327 389.307 314.816 363.965 314.816C344.217 314.816 327.35 302.308 320.932 284.782C319.122 279.845 318.134 274.579 318.134 268.984C318.134 265.857 318.464 262.813 319.039 259.768Z" fill="#737373"/>
<path d="M406.998 313.581C409.679 313.581 411.852 311.408 411.852 308.727C411.852 306.045 409.679 303.872 406.998 303.872C404.317 303.872 402.143 306.045 402.143 308.727C402.143 311.408 404.317 313.581 406.998 313.581Z" fill="#737373"/>
<path d="M320.932 313.581C323.613 313.581 325.786 311.408 325.786 308.727C325.786 306.045 323.613 303.872 320.932 303.872C318.251 303.872 316.077 306.045 316.077 308.727C316.077 311.408 318.251 313.581 320.932 313.581Z" fill="#737373"/>
<path d="M406.998 234.178C409.679 234.178 411.852 232.004 411.852 229.323C411.852 226.642 409.679 224.469 406.998 224.469C404.317 224.469 402.143 226.642 402.143 229.323C402.143 232.004 404.317 234.178 406.998 234.178Z" fill="#737373"/>
<path d="M320.932 234.178C323.613 234.178 325.786 232.004 325.786 229.323C325.786 226.642 323.613 224.469 320.932 224.469C318.251 224.469 316.077 226.642 316.077 229.323C316.077 232.004 318.251 234.178 320.932 234.178Z" fill="#737373"/>
<path d="M363.965 308.973C386.016 308.973 403.871 291.118 403.871 269.066C403.871 251.704 392.763 236.976 377.294 231.463C374.579 226.937 369.642 223.893 363.965 223.893C358.287 223.893 353.351 226.937 350.635 231.463C341.914 234.589 334.591 240.596 329.818 248.413C326.198 254.42 324.059 261.496 324.059 269.066C324.059 273.756 324.881 278.199 326.362 282.396C331.793 297.865 346.604 308.973 363.965 308.973ZM352.775 236.976C352.939 236.317 353.104 235.577 353.433 235.001C353.68 234.425 353.927 233.931 354.256 233.355C355.243 231.792 356.56 230.558 358.123 229.57C359.851 228.583 361.826 227.924 363.965 227.924C366.104 227.924 368.079 228.5 369.807 229.57C370.959 230.311 372.028 231.134 372.851 232.203C373.098 232.532 373.427 232.944 373.674 233.273C374.003 233.767 374.25 234.343 374.497 234.919C374.744 235.577 374.99 236.153 375.073 236.893C375.155 237.305 375.237 237.716 375.32 238.128C375.402 238.539 375.402 238.95 375.402 239.444C375.402 239.938 375.402 240.349 375.32 240.843C375.32 240.925 375.32 241.007 375.32 241.09C375.237 241.666 375.073 242.324 374.908 242.9C374.661 243.641 374.415 244.299 374.003 244.957C372.028 248.578 368.243 250.964 363.883 250.964C362.731 250.964 361.579 250.799 360.427 250.47C359.686 250.223 359.028 249.976 358.37 249.565C356.395 248.495 354.832 246.932 353.762 244.957C353.433 244.299 353.104 243.641 352.857 242.9C352.692 242.324 352.528 241.748 352.446 241.172C352.446 241.09 352.446 241.007 352.446 240.925C352.363 240.432 352.363 240.02 352.363 239.526C352.446 238.539 352.61 237.716 352.775 236.976ZM352.446 249.894C355.325 253.021 359.357 254.996 363.965 254.996C368.573 254.996 372.604 253.021 375.484 249.894V263.306C375.484 265.775 374.744 267.996 373.427 269.889C373.016 270.547 372.522 271.123 371.946 271.617C371.535 272.028 371.123 272.357 370.63 272.687C370.218 273.016 369.725 273.263 369.231 273.509C368.984 273.674 368.737 273.756 368.49 273.838C367.832 274.168 367.092 274.332 366.351 274.497C365.61 274.661 364.87 274.744 364.047 274.744C357.711 274.744 352.528 269.642 352.528 263.224V249.894H352.446ZM335.742 253.515C335.742 246.52 341.42 240.843 348.331 240.843V263.306C348.331 271.946 355.325 278.94 363.965 278.94C372.604 278.94 379.598 271.946 379.598 263.306V240.843C386.592 240.843 392.187 246.52 392.187 253.515V284.618C392.187 291.612 386.51 297.289 379.516 297.289H348.414C341.42 297.289 335.742 291.612 335.742 284.618V253.515Z" fill="#737373"/>
<path d="M356.642 241.09C357.711 244.134 360.591 246.274 363.965 246.274C367.421 246.274 370.383 243.97 371.37 240.761C371.37 240.678 371.452 240.596 371.452 240.514C371.617 239.856 371.699 239.28 371.699 238.539C371.699 237.716 371.535 236.976 371.37 236.235C370.383 233.108 367.421 230.887 364.047 230.887C360.591 230.887 357.711 233.108 356.724 236.235C356.477 236.976 356.395 237.798 356.395 238.621C356.395 239.362 356.477 240.102 356.724 240.843C356.56 240.925 356.642 241.007 356.642 241.09ZM360.262 234.836C361.25 233.931 362.484 233.355 363.965 233.355C365.364 233.355 366.68 233.931 367.667 234.836C368.655 235.824 369.231 237.14 369.231 238.621C369.231 239.033 369.149 239.362 369.066 239.773C368.984 240.185 368.819 240.514 368.655 240.843C367.832 242.653 366.022 243.887 363.883 243.887C361.743 243.887 359.933 242.653 359.11 240.843C358.946 240.514 358.863 240.102 358.781 239.773C358.699 239.444 358.617 239.033 358.617 238.621C358.699 237.14 359.275 235.741 360.262 234.836Z" fill="#737373"/>
<path d="M106.343 349.621V369.781H137.528V349.621H106.343ZM133.414 365.667H110.457V353.735H133.414V365.667Z" fill="#737373"/>
<path d="M348.331 349.621V369.781H379.516V349.621H348.331ZM375.402 365.667H352.446V353.735H375.402V365.667Z" fill="#737373"/>
<path d="M190.764 311.442V342.627H210.922V311.442H190.764ZM206.891 338.513H194.96V315.556H206.891V338.513Z" fill="#737373"/>
<path d="M274.937 311.442V342.627H295.096V311.442H274.937ZM290.982 338.513H279.051V315.556H290.982V338.513Z" fill="#737373"/>
<path d="M200.637 237.305H227.379V245.369H258.563V237.305H285.304C286.456 237.305 287.361 236.4 287.361 235.248C287.361 234.096 286.456 233.191 285.304 233.191H258.563V225.127H227.379V233.191H200.637C199.485 233.191 198.58 234.096 198.58 235.248C198.58 236.4 199.485 237.305 200.637 237.305ZM231.493 229.241H254.449V241.254H231.493V229.241Z" fill="#737373"/>
<path d="M274.032 255.983C274.032 254.831 273.127 253.926 271.975 253.926H213.967C212.815 253.926 211.91 254.831 211.91 255.983C211.91 257.135 212.815 258.04 213.967 258.04H271.975C273.127 258.04 274.032 257.135 274.032 255.983Z" fill="#737373"/>
<path d="M312.786 392.162H173.156C168.712 392.162 165.092 395.782 165.092 400.225V479.217C165.092 483.661 168.712 487.281 173.156 487.281H312.786C317.229 487.281 320.85 483.661 320.85 479.217V400.225C320.85 395.782 317.229 392.162 312.786 392.162ZM315.419 479.3C315.419 480.781 314.267 481.933 312.786 481.933H173.156C171.674 481.933 170.523 480.781 170.523 479.3V400.308C170.523 398.827 171.674 397.675 173.156 397.675H312.786C314.267 397.675 315.419 398.827 315.419 400.308V479.3Z" fill="#737373"/>
<path d="M366.762 426.309L368.161 425.322C371.123 423.265 374.661 422.113 378.282 422.113C381.902 422.113 385.44 423.183 388.402 425.322L389.801 426.309L407.327 408.783C408.89 407.22 409.631 405.08 409.384 402.941C409.137 400.719 407.985 398.827 406.175 397.592C397.865 392.079 388.238 389.2 378.199 389.2C368.243 389.2 358.534 392.079 350.224 397.592C348.414 398.827 347.18 400.719 347.015 402.941C346.768 405.08 347.591 407.22 349.072 408.783L366.762 426.309ZM352.692 401.048C360.344 396.029 369.149 393.314 378.364 393.314C387.497 393.314 396.384 396.029 404.036 401.048C404.858 401.542 405.352 402.447 405.434 403.352C405.517 404.257 405.188 405.245 404.529 405.903L389.39 421.043C386.016 419.068 382.313 417.999 378.364 417.999C374.497 417.999 370.712 419.068 367.338 421.043L352.199 405.903C351.54 405.245 351.211 404.34 351.294 403.352C351.376 402.365 351.87 401.542 352.692 401.048Z" fill="#737373"/>
<path d="M415.144 408.618C413.004 408.372 410.865 409.194 409.302 410.675L391.776 428.284L392.763 429.683C394.82 432.645 395.972 436.183 395.972 439.804C395.972 443.424 394.902 446.962 392.763 449.925L391.776 451.323L409.302 468.85C410.7 470.248 412.511 470.989 414.403 470.989C414.65 470.989 414.897 470.989 415.144 470.989C417.365 470.742 419.258 469.59 420.492 467.78C426.005 459.469 428.884 449.842 428.884 439.804C428.884 429.847 426.005 420.138 420.492 411.827C419.258 410.017 417.365 408.865 415.144 408.618ZM417.118 465.476C416.625 466.299 415.72 466.793 414.814 466.875C413.909 466.957 412.922 466.628 412.264 465.97L397.124 450.83C399.099 447.456 400.168 443.753 400.168 439.804C400.168 435.936 399.099 432.151 397.124 428.778L412.264 413.638C412.922 412.979 413.827 412.65 414.814 412.733C415.802 412.815 416.625 413.309 417.118 414.131C422.137 421.784 424.853 430.588 424.853 439.804C424.853 448.937 422.137 457.824 417.118 465.476Z" fill="#737373"/>
<path d="M389.883 453.216L388.485 454.203C385.522 456.26 381.984 457.412 378.364 457.412C374.744 457.412 371.206 456.343 368.243 454.203L366.845 453.216L349.319 470.742C347.755 472.306 347.015 474.445 347.262 476.584C347.509 478.806 348.661 480.698 350.471 481.933C358.781 487.446 368.408 490.326 378.446 490.326C388.402 490.326 398.111 487.446 406.422 481.933C408.232 480.698 409.466 478.806 409.631 476.584C409.878 474.445 409.055 472.306 407.574 470.742L389.883 453.216ZM403.953 478.559C396.301 483.578 387.497 486.294 378.282 486.294C369.149 486.294 360.262 483.578 352.61 478.559C351.787 478.065 351.294 477.16 351.211 476.255C351.129 475.35 351.458 474.363 352.116 473.704L367.256 458.564C370.63 460.539 374.332 461.609 378.282 461.609C382.149 461.609 385.934 460.539 389.307 458.564L404.447 473.704C405.105 474.363 405.434 475.268 405.352 476.255C405.27 477.16 404.776 477.983 403.953 478.559Z" fill="#737373"/>
<path d="M364.87 451.323L363.883 449.925C361.826 446.962 360.674 443.424 360.674 439.804C360.674 436.183 361.743 432.645 363.883 429.683L364.87 428.284L347.344 410.675C345.781 409.112 343.641 408.372 341.502 408.618C339.281 408.865 337.388 410.017 336.154 411.827C330.641 420.138 327.761 429.765 327.761 439.804C327.761 449.76 330.641 459.469 336.154 467.78C337.388 469.59 339.281 470.824 341.502 470.989C341.749 470.989 341.996 470.989 342.243 470.989C344.135 470.989 346.028 470.248 347.344 468.85L364.87 451.323ZM341.914 466.875C340.926 466.793 340.103 466.299 339.61 465.476C334.591 457.824 331.875 449.019 331.875 439.804C331.875 430.67 334.591 421.784 339.61 414.131C340.103 413.309 341.008 412.815 341.914 412.733C341.996 412.733 342.16 412.733 342.243 412.733C343.065 412.733 343.888 413.062 344.464 413.638L359.604 428.778C357.629 432.151 356.56 435.854 356.56 439.804C356.56 443.671 357.629 447.456 359.604 450.83L344.464 465.97C343.806 466.628 342.819 466.957 341.914 466.875Z" fill="#737373"/>
<path d="M407.491 433.879V445.646C407.491 446.469 408.479 447.045 409.137 446.551L418.023 440.627C418.682 440.215 418.682 439.31 418.023 438.816L409.137 432.892C408.479 432.563 407.491 433.056 407.491 433.879Z" fill="#737373"/>
<path d="M347.509 432.974L338.622 438.899C337.964 439.31 337.964 440.215 338.622 440.709L347.509 446.633C348.249 447.127 349.154 446.633 349.154 445.728V433.962C349.154 433.056 348.249 432.563 347.509 432.974Z" fill="#737373"/>
<path d="M372.44 410.593H384.206C385.029 410.593 385.522 409.606 385.111 408.948L379.187 400.061C378.775 399.403 377.87 399.403 377.377 400.061L371.452 408.948C371.041 409.688 371.617 410.593 372.44 410.593Z" fill="#737373"/>
<path d="M384.206 468.932H372.44C371.617 468.932 371.123 469.919 371.535 470.578L377.459 479.464C377.87 480.122 378.775 480.122 379.269 479.464L385.193 470.578C385.605 469.919 385.111 468.932 384.206 468.932Z" fill="#737373"/>
<path d="M106.426 390.763H88.5708C82.8111 390.763 78.1211 395.453 78.1211 401.213C78.1211 406.973 82.8111 411.663 88.5708 411.663H106.426C112.185 411.663 116.875 406.973 116.875 401.213C116.875 395.453 112.185 390.763 106.426 390.763ZM111.609 404.833C111.445 405.08 111.198 405.327 111.033 405.574C110.869 405.738 110.787 405.903 110.622 405.985C110.375 406.15 110.128 406.397 109.882 406.561C109.552 406.808 109.223 406.973 108.812 407.137C108.071 407.466 107.249 407.631 106.343 407.631H88.4885C88.2417 407.631 87.9125 407.631 87.6657 407.549C87.172 407.466 86.596 407.384 86.1846 407.137C85.9378 407.055 85.6909 406.973 85.5264 406.808C85.1973 406.644 84.8681 406.397 84.539 406.15C84.2099 405.903 83.963 405.574 83.7162 405.327C83.4694 404.998 83.2225 404.669 83.058 404.34C82.8934 404.01 82.7288 403.599 82.5643 403.188C82.3997 402.612 82.3174 401.953 82.3174 401.295C82.3174 401.048 82.3174 400.884 82.3174 400.637C82.3997 400.225 82.482 399.814 82.5643 399.403C82.6466 398.991 82.8111 398.662 83.058 398.251C83.2225 397.922 83.4694 397.592 83.7162 397.263C83.963 396.934 84.2922 396.687 84.539 396.44C84.8681 396.194 85.1973 395.947 85.5264 395.782C86.4315 395.288 87.4188 395.042 88.5708 395.042H106.426C107.166 395.042 107.907 395.206 108.565 395.453C108.812 395.535 108.976 395.618 109.223 395.7C109.47 395.782 109.717 395.947 109.964 396.111C110.293 396.358 110.622 396.605 110.869 396.852C111.116 397.099 111.445 397.428 111.609 397.757C112.268 398.744 112.679 399.979 112.679 401.295C112.761 402.529 112.35 403.764 111.609 404.833Z" fill="#737373"/>
<path d="M106.426 416.518H88.5708C82.8111 416.518 78.1211 421.208 78.1211 426.968C78.1211 432.727 82.8111 437.417 88.5708 437.417H106.426C112.185 437.417 116.875 432.727 116.875 426.968C116.875 421.208 112.185 416.518 106.426 416.518ZM111.609 430.506C111.445 430.753 111.198 430.999 111.033 431.246C110.869 431.411 110.787 431.575 110.622 431.658C110.375 431.822 110.128 432.069 109.882 432.234C109.552 432.48 109.223 432.645 108.812 432.81C108.071 433.139 107.249 433.303 106.343 433.303H88.4885C88.2417 433.303 87.9125 433.303 87.6657 433.221C87.172 433.139 86.596 433.056 86.1846 432.81C85.9378 432.727 85.6909 432.645 85.5264 432.48C85.1973 432.316 84.8681 432.069 84.539 431.822C84.2099 431.575 83.963 431.246 83.7162 430.999C83.4694 430.67 83.2225 430.341 83.058 430.012C82.9757 429.847 82.8934 429.683 82.8111 429.436C82.6466 429.025 82.5643 428.695 82.482 428.284C82.3997 427.873 82.3174 427.461 82.3174 426.968C82.3174 426.721 82.3174 426.556 82.3174 426.309C82.3997 425.898 82.482 425.486 82.5643 425.075C82.6466 424.664 82.8111 424.334 83.058 423.923C83.1402 423.676 83.3048 423.512 83.4694 423.265C83.6339 423.018 83.8808 422.771 84.1276 422.524C84.6213 422.031 85.1973 421.619 85.8555 421.29C86.1023 421.208 86.2669 421.125 86.5138 421.043C86.7606 420.961 87.0897 420.879 87.3366 420.796C87.748 420.714 88.1594 420.632 88.6531 420.632H106.508C107.166 420.632 107.825 420.714 108.4 420.879C108.976 421.043 109.552 421.372 110.046 421.701C110.457 421.948 110.869 422.36 111.198 422.689C112.185 423.841 112.844 425.322 112.844 426.968C112.761 428.284 112.35 429.436 111.609 430.506Z" fill="#737373"/>
<path d="M106.426 442.19H88.5708C82.8111 442.19 78.1211 446.88 78.1211 452.64C78.1211 458.4 82.8111 463.09 88.5708 463.09H106.426C112.185 463.09 116.875 458.4 116.875 452.64C116.875 446.88 112.185 442.19 106.426 442.19ZM111.609 456.178C111.363 456.507 111.116 456.836 110.869 457.083C110.622 457.33 110.293 457.659 109.964 457.824C109.635 458.071 109.306 458.235 108.894 458.4C108.154 458.729 107.331 458.893 106.426 458.893H88.5708C88.3239 458.893 87.9948 458.893 87.748 458.811C87.2543 458.729 86.6783 458.647 86.2669 458.4C86.0201 458.317 85.7732 458.235 85.6087 458.071C85.2795 457.906 84.9504 457.659 84.6213 457.412C84.2922 457.165 84.0453 456.836 83.7985 456.589C83.6339 456.425 83.4694 456.178 83.3871 456.013C82.9757 455.355 82.6466 454.615 82.482 453.874C82.3997 453.463 82.3174 453.051 82.3174 452.558C82.3174 452.146 82.3997 451.652 82.482 451.241C82.6466 450.583 82.8111 450.007 83.1402 449.513C83.3048 449.266 83.4694 448.937 83.6339 448.69C83.7162 448.526 83.8808 448.443 83.9631 448.279C84.1276 448.114 84.2099 447.95 84.3745 447.867C84.539 447.703 84.7036 447.538 84.8681 447.456C85.0327 447.374 85.115 447.291 85.2795 447.209C85.6087 446.962 86.0201 446.798 86.3492 446.633C86.7606 446.469 87.172 446.386 87.5834 446.304C87.9125 446.222 88.2417 446.222 88.6531 446.222H106.508C106.837 446.222 107.166 446.222 107.495 446.304C107.742 446.304 107.989 446.386 108.154 446.469C108.812 446.633 109.47 446.962 110.046 447.291C110.375 447.538 110.704 447.785 110.951 448.032C111.198 448.279 111.527 448.608 111.692 448.937C112.35 449.924 112.761 451.159 112.761 452.475C112.761 453.956 112.35 455.108 111.609 456.178Z" fill="#737373"/>
<path d="M106.426 467.862H88.5708C82.8111 467.862 78.1211 472.552 78.1211 478.312C78.1211 484.072 82.8111 488.762 88.5708 488.762H106.426C112.185 488.762 116.875 484.072 116.875 478.312C116.875 472.552 112.185 467.862 106.426 467.862ZM111.609 481.85C111.363 482.18 111.116 482.509 110.869 482.756C110.622 483.002 110.293 483.331 109.964 483.496C108.976 484.154 107.742 484.566 106.426 484.566H88.5708C87.6657 484.566 86.7606 484.401 86.0201 483.99C85.7732 483.908 85.5264 483.743 85.2795 483.578C85.115 483.496 85.0327 483.414 84.8681 483.332C84.7036 483.167 84.539 483.085 84.3745 482.92C84.2099 482.756 84.0453 482.673 83.9631 482.509C83.8808 482.344 83.7162 482.262 83.6339 482.097C83.4694 481.85 83.2225 481.604 83.1402 481.274C82.8111 480.698 82.6466 480.122 82.482 479.546C82.3997 479.135 82.3174 478.724 82.3174 478.23C82.3174 477.736 82.3997 477.325 82.482 476.913C82.5643 476.502 82.7288 476.091 82.8111 475.761C82.8934 475.597 82.9757 475.35 83.058 475.185C83.2225 474.856 83.4694 474.527 83.7162 474.198C83.963 473.869 84.2922 473.622 84.539 473.375C84.8681 473.128 85.1973 472.882 85.5264 472.717C85.7732 472.635 86.0201 472.47 86.1846 472.388C86.6783 472.223 87.172 472.059 87.6657 471.976C87.9125 471.976 88.1594 471.894 88.4885 471.894H106.343C107.249 471.894 108.071 472.059 108.812 472.388C109.223 472.552 109.552 472.717 109.882 472.964C110.211 473.211 110.54 473.458 110.787 473.704C110.951 473.869 111.033 474.034 111.198 474.116C111.28 474.28 111.445 474.363 111.527 474.527C112.268 475.515 112.679 476.831 112.679 478.148C112.761 479.629 112.35 480.863 111.609 481.85Z" fill="#737373"/>
<path d="M423.618 373.977H62.2409C49.7342 373.977 39.6137 384.18 39.6137 396.605V482.838C39.6137 487.446 41.0124 491.642 43.3163 495.18C44.9619 497.731 47.1012 499.87 49.5696 501.516C49.6519 501.598 49.8165 501.681 49.8988 501.763C53.4368 504.067 57.7155 505.466 62.2409 505.466H423.701C428.226 505.466 432.505 504.067 436.043 501.763C436.125 501.681 436.29 501.598 436.372 501.516C438.84 499.788 440.98 497.649 442.625 495.18C444.929 491.642 446.328 487.363 446.328 482.838V396.605C446.328 384.18 436.125 373.977 423.618 373.977ZM439.746 482.92C439.746 487.939 437.442 492.383 433.904 495.263C431.106 497.567 427.568 498.965 423.618 498.965H62.2409C58.3737 498.965 54.7533 497.567 51.9558 495.263C48.4177 492.3 46.1138 487.857 46.1138 482.92V396.605C46.1138 387.718 53.2723 380.56 62.1586 380.56H423.536C432.423 380.56 439.581 387.718 439.581 396.605V482.92H439.746Z" fill="#737373"/>
<path d="M133.414 442.19C127.654 442.19 122.964 446.88 122.964 452.64C122.964 458.4 127.654 463.09 133.414 463.09C139.174 463.09 143.864 458.4 143.864 452.64C143.864 446.88 139.174 442.19 133.414 442.19ZM139.667 453.874C139.503 454.697 139.174 455.438 138.68 456.178C137.528 457.824 135.635 458.976 133.414 458.976C131.192 458.976 129.3 457.906 128.148 456.178C127.654 455.52 127.325 454.697 127.16 453.874C127.078 453.463 126.996 453.051 126.996 452.558C126.996 452.064 127.078 451.652 127.16 451.241C127.243 450.83 127.407 450.418 127.49 450.089C127.819 449.349 128.312 448.608 128.806 448.114C129.958 446.962 131.521 446.222 133.249 446.222C134.977 446.222 136.623 446.962 137.692 448.114C138.268 448.69 138.762 449.349 139.009 450.089C139.174 450.501 139.256 450.83 139.338 451.241C139.42 451.652 139.503 452.064 139.503 452.558C139.503 453.051 139.749 453.463 139.667 453.874Z" fill="#737373"/>
<path d="M176.2 474.445H239.062V458.976H176.2V474.445ZM177.846 460.621H237.417V472.799H177.846V460.621Z" fill="#737373"/>
<path d="M246.797 474.445H309.659V458.976H246.797V474.445ZM248.442 460.621H308.014V472.799H248.442V460.621Z" fill="#737373"/>
<path d="M309.742 402.2H302.007V454.203H309.742V402.2ZM308.096 452.475H303.653V403.764H308.096V452.475Z" fill="#737373"/>
<path d="M225.239 193.036C225.568 195.093 226.227 197.068 227.214 198.796C230.258 204.309 236.183 208.094 242.93 208.094C249.677 208.094 255.601 204.309 258.645 198.796C259.633 196.986 260.291 195.093 260.62 193.036C260.62 192.79 260.702 192.543 260.702 192.214C260.785 191.555 260.785 190.897 260.785 190.156C260.785 190.074 260.785 189.992 260.785 189.91C260.785 188.675 260.62 187.523 260.373 186.371C260.126 185.302 259.797 184.314 259.468 183.327C256.753 176.827 250.335 172.219 242.847 172.219C235.36 172.219 228.942 176.827 226.227 183.327C225.815 184.314 225.486 185.302 225.322 186.371C225.075 187.523 224.91 188.675 224.91 189.91C224.91 189.992 224.91 190.074 224.91 190.156C224.91 190.815 224.992 191.555 224.992 192.214C225.157 192.46 225.239 192.707 225.239 193.036ZM229.929 189.992C229.929 189.169 230.012 188.346 230.176 187.606C230.258 187.194 230.341 186.865 230.505 186.454C230.67 186.042 230.752 185.549 230.999 185.137C231.246 184.561 231.575 183.903 231.904 183.409C231.986 183.245 232.069 183.08 232.151 182.998C232.645 182.34 233.138 181.681 233.714 181.105C234.619 180.2 235.607 179.46 236.676 178.884C237.417 178.472 238.157 178.143 238.98 177.896C240.214 177.485 241.531 177.32 242.847 177.32C244.164 177.32 245.48 177.485 246.715 177.896C247.537 178.143 248.278 178.472 249.018 178.884C250.088 179.46 251.158 180.2 251.981 181.105C252.557 181.681 253.133 182.34 253.544 182.998C253.626 183.162 253.708 183.327 253.791 183.409C254.12 183.985 254.449 184.561 254.696 185.137C254.86 185.549 255.025 185.96 255.19 186.454C255.272 186.865 255.436 187.194 255.519 187.606C255.683 188.346 255.766 189.169 255.766 189.992C255.766 190.074 255.766 190.156 255.766 190.239C255.766 190.897 255.683 191.638 255.601 192.296C255.519 192.543 255.519 192.79 255.436 193.119C254.943 195.34 253.873 197.315 252.474 198.878C250.088 201.594 246.632 203.24 242.765 203.24C238.898 203.24 235.442 201.512 233.056 198.878C231.575 197.233 230.588 195.258 230.094 193.119C230.012 192.872 230.012 192.625 229.929 192.296C229.847 191.638 229.765 190.979 229.765 190.239C229.929 190.074 229.929 190.074 229.929 189.992Z" fill="#737373"/>
<path d="M242.765 183.409C242.93 183.492 243.177 183.574 243.423 183.574C245.645 183.574 247.62 184.726 248.689 186.454C249.348 187.441 249.677 188.593 249.677 189.827C249.677 189.91 249.677 189.992 249.677 189.992C249.759 190.815 250.5 191.473 251.322 191.473C252.145 191.473 252.886 190.815 252.968 189.992C252.968 189.91 252.968 189.827 252.968 189.827C252.968 188.675 252.721 187.523 252.31 186.454C251.898 185.302 251.24 184.314 250.417 183.409C248.689 181.434 246.139 180.283 243.341 180.283C242.436 180.283 241.695 181.023 241.695 181.928C241.695 182.504 242.107 183.162 242.765 183.409Z" fill="#737373"/>
<path d="M56.6458 392.82C55.4939 392.82 54.5888 393.725 54.5888 394.877V484.566C54.5888 485.718 55.4939 486.623 56.6458 486.623C57.7977 486.623 58.7028 485.718 58.7028 484.566V394.877C58.7028 393.807 57.7977 392.82 56.6458 392.82Z" fill="#737373"/>
<path d="M231.246 34.9704C231.328 34.9704 231.41 34.9704 231.41 34.9704L415.226 31.103C422.713 31.0208 428.72 25.0141 428.72 17.5263C428.72 10.0385 422.631 3.94959 415.226 3.94959L231.41 0C231.328 0 231.328 0 231.246 0C226.474 0 222.606 3.86731 222.606 8.63974V26.4129C222.606 31.103 226.474 34.9704 231.246 34.9704ZM229.189 8.63974C229.189 8.47517 229.189 8.39289 229.271 8.22832C229.271 8.14604 229.271 8.14604 229.353 8.06375C229.353 7.98147 229.436 7.89919 229.436 7.8169C229.436 7.73462 229.518 7.73462 229.518 7.65234C229.518 7.57005 229.6 7.48777 229.6 7.40549C229.6 7.3232 229.682 7.3232 229.682 7.24092C229.765 7.15864 229.765 7.15864 229.847 7.07636C229.929 6.99407 229.929 6.99407 230.012 6.99407C230.094 6.91179 230.094 6.91179 230.176 6.82951C230.258 6.82951 230.258 6.74722 230.341 6.74722C230.423 6.74722 230.505 6.66494 230.505 6.66494C230.588 6.66494 230.588 6.66494 230.67 6.58266C230.752 6.58266 230.834 6.50037 230.917 6.50037C230.999 6.50037 231.081 6.50037 231.081 6.50037C231.164 6.50037 231.246 6.50037 231.246 6.50037C231.246 6.50037 231.246 6.50037 231.328 6.50037L415.226 10.3677C415.473 10.3677 415.637 10.3677 415.884 10.3677C416.131 10.3677 416.295 10.45 416.46 10.45C417.036 10.5322 417.612 10.7791 418.188 11.0259C418.764 11.2728 419.258 11.6019 419.669 12.0133C420.163 12.4248 420.656 12.9185 420.985 13.4944C421.397 14.0704 421.644 14.6464 421.891 15.3047C422.055 15.7161 422.137 16.2098 422.137 16.7035C422.137 16.9503 422.137 17.1972 422.137 17.444C422.137 21.3113 419.011 24.4381 415.144 24.4381L231.246 28.3054C231.246 28.3054 231.246 28.3054 231.164 28.3054C231.081 28.3054 230.999 28.3054 230.999 28.3054C230.917 28.3054 230.834 28.3054 230.834 28.3054C230.752 28.3054 230.67 28.3054 230.588 28.2231C230.505 28.2231 230.505 28.2231 230.423 28.1409C230.341 28.1409 230.258 28.0586 230.258 28.0586C230.176 28.0586 230.176 27.9763 230.094 27.9763C230.012 27.9763 230.012 27.894 229.929 27.8117C229.847 27.8117 229.847 27.7294 229.765 27.7294C229.682 27.6472 229.682 27.6472 229.6 27.5649C229.6 27.4826 229.518 27.4826 229.518 27.4003C229.436 27.318 229.436 27.2357 229.436 27.1535C229.436 27.0712 229.353 27.0712 229.353 26.9889C229.353 26.9066 229.271 26.8243 229.271 26.742C229.271 26.6598 229.271 26.6598 229.189 26.5775C229.189 26.4129 229.106 26.3306 229.106 26.1661V8.63974H229.189Z" fill="#737373"/>
<path d="M242.93 22.5456C245.702 22.5456 247.949 20.2984 247.949 17.5263C247.949 14.7543 245.702 12.507 242.93 12.507C240.158 12.507 237.911 14.7543 237.911 17.5263C237.911 20.2984 240.158 22.5456 242.93 22.5456Z" fill="#737373"/>
<path d="M217.916 71.2572C217.916 72.0801 218.328 72.8206 218.904 73.3966C219.397 73.8903 220.056 74.1372 220.796 74.1372H265.063C265.804 74.1372 266.462 73.808 266.956 73.3966C267.532 72.9029 267.943 72.0801 267.943 71.2572C267.943 69.6939 266.627 68.3773 265.063 68.3773H262.101V42.7873C262.101 41.8821 261.854 40.977 261.443 40.2365C261.114 39.6605 260.702 39.0845 260.126 38.6731C259.88 38.4263 259.55 38.2617 259.304 38.0971C259.139 38.0148 258.892 37.9326 258.728 37.8503C258.152 37.6034 257.493 37.4389 256.753 37.4389H229.106C228.448 37.4389 227.79 37.6034 227.132 37.8503C226.967 37.9326 226.72 38.0148 226.556 38.0971C226.227 38.2617 225.98 38.4263 225.733 38.6731C225.239 39.0845 224.746 39.6605 224.416 40.2365C224.005 40.977 223.758 41.8821 223.758 42.7873V68.3773H220.796C219.233 68.3773 217.916 69.6116 217.916 71.2572ZM230.341 44.0215H255.519V68.3773H230.341V44.0215Z" fill="#737373"/>
<path d="M218.821 92.1572C219.315 92.6509 219.973 92.8977 220.714 92.8977H264.981C265.721 92.8977 266.38 92.5686 266.873 92.1572C267.449 91.6635 267.861 90.8407 267.861 90.0178C267.861 88.4544 266.544 87.1379 264.981 87.1379H262.019V78.0045H255.436V87.2202H230.258V78.0045H223.676V87.2202H220.714C219.151 87.2202 217.834 88.5367 217.834 90.1001C217.916 90.9229 218.245 91.6635 218.821 92.1572Z" fill="#737373"/>
<path d="M432.752 207.025C435.961 207.025 439.005 205.79 441.227 203.486C444.106 200.606 445.176 196.657 444.6 192.954C444.189 190.568 443.119 188.264 441.227 186.454L441.144 186.371C438.923 184.15 435.878 182.916 432.752 182.916C429.625 182.916 426.581 184.15 424.359 186.371L424.277 186.454C422.467 188.264 421.315 190.486 420.903 192.954C420.821 193.612 420.739 194.271 420.739 194.929C420.739 198.138 421.973 201.182 424.277 203.404C426.581 205.79 429.543 207.025 432.752 207.025ZM425.017 193.53C425.017 193.366 425.1 193.201 425.1 193.036C425.182 192.707 425.264 192.378 425.429 192.049C425.758 191.308 426.087 190.65 426.663 190.074C426.827 189.827 426.992 189.663 427.239 189.498C427.403 189.334 427.65 189.087 427.815 188.922C428.062 188.758 428.226 188.593 428.473 188.429C429.131 188.017 429.872 187.688 430.612 187.441C431.353 187.194 432.093 187.112 432.834 187.112C433.574 187.112 434.315 187.194 435.055 187.441C435.796 187.688 436.537 188.017 437.195 188.429C437.442 188.593 437.606 188.758 437.853 188.922C438.1 189.087 438.264 189.251 438.429 189.498C438.594 189.663 438.84 189.91 439.005 190.074C439.334 190.486 439.663 190.979 439.91 191.473C440.075 191.72 440.157 191.967 440.239 192.214C440.322 192.46 440.404 192.707 440.486 193.036C441.144 195.423 440.568 198.056 439.005 200.03C438.84 200.277 438.676 200.442 438.429 200.606C436.866 202.17 434.891 202.91 432.834 202.91C430.777 202.91 428.802 202.17 427.239 200.606C427.074 200.442 426.827 200.195 426.663 200.03C426.169 199.372 425.758 198.714 425.429 198.056C425.264 197.562 425.1 197.068 425.017 196.575C424.853 195.505 424.853 194.517 425.017 193.53Z" fill="#737373"/>
<path d="M53.1077 207.025C56.3167 207.025 59.3611 205.79 61.5826 203.486C64.4625 200.606 65.5321 196.657 64.9562 192.954C64.5448 190.568 63.4751 188.264 61.5826 186.454L61.5004 186.371C59.2788 184.15 56.2344 182.916 53.1077 182.916C49.8988 182.916 46.9367 184.15 44.7151 186.371L44.6328 186.454C42.8226 188.264 41.6707 190.568 41.2593 192.954C40.601 196.657 41.753 200.606 44.6328 203.486C46.8544 205.79 49.8988 207.025 53.1077 207.025ZM45.3733 193.53C45.3733 193.366 45.4556 193.201 45.4556 193.036C45.5379 192.707 45.6202 192.378 45.7847 192.049C46.1138 191.308 46.443 190.65 47.0189 190.074C47.1835 189.827 47.3481 189.663 47.5949 189.498C47.7595 189.334 48.0063 189.087 48.1709 188.922C48.4177 188.758 48.5823 188.593 48.8291 188.429C49.4874 188.017 50.2279 187.688 50.9684 187.441C51.7089 187.194 52.4495 187.112 53.19 187.112C53.9305 187.112 54.6711 187.194 55.4116 187.441C56.1521 187.688 56.8926 188.017 57.5509 188.429C57.7977 188.593 57.9623 188.758 58.2091 188.922C58.456 189.087 58.6205 189.251 58.7851 189.498C58.9497 189.663 59.1965 189.91 59.3611 190.074C59.8548 190.732 60.2662 191.391 60.5953 192.049C60.7598 192.378 60.8421 192.707 60.9244 193.036C61.0067 193.201 61.0067 193.366 61.0067 193.53C61.1712 194.517 61.1712 195.587 61.0067 196.575C60.9244 197.068 60.7598 197.562 60.5953 198.056C60.2662 198.796 59.937 199.454 59.3611 200.03C59.1965 200.277 59.0319 200.442 58.7851 200.606C57.2218 202.17 55.247 202.91 53.19 202.91C51.133 202.91 49.1582 202.17 47.5949 200.606C47.4303 200.442 47.1835 200.195 47.0189 200.03C46.5253 199.372 46.1138 198.714 45.7847 198.056C45.6202 197.562 45.4556 197.068 45.3733 196.575C45.1265 195.505 45.1265 194.517 45.3733 193.53Z" fill="#737373"/>
<path d="M230.423 275.484C226.556 275.484 223.429 278.611 223.429 282.478V352.419C223.429 356.286 226.556 359.413 230.423 359.413H255.519C259.386 359.413 262.513 356.286 262.513 352.419V282.478C262.513 278.611 259.386 275.484 255.519 275.484H230.423ZM258.398 352.419C258.398 353.982 257.082 355.299 255.519 355.299H230.423C228.86 355.299 227.543 353.982 227.543 352.419V347.071C227.79 347.153 228.037 347.235 228.284 347.235H257.576C257.823 347.235 258.152 347.153 258.316 347.071V352.419H258.398ZM258.398 344.108C258.152 344.026 257.905 343.944 257.658 343.944H228.366C228.119 343.944 227.79 344.026 227.625 344.108V339.994C227.872 340.076 228.119 340.159 228.366 340.159H257.658C257.905 340.159 258.234 340.076 258.398 339.994V344.108ZM258.398 337.114C258.152 337.032 257.905 336.95 257.658 336.95H228.366C228.119 336.95 227.79 337.032 227.625 337.114V333C227.872 333.082 228.119 333.165 228.366 333.165H257.658C257.905 333.165 258.234 333.082 258.398 333V337.114ZM258.398 330.038C258.152 329.956 257.905 329.873 257.658 329.873H228.366C228.119 329.873 227.79 329.956 227.625 330.038V325.924C227.872 326.006 228.119 326.088 228.366 326.088H257.658C257.905 326.088 258.234 326.006 258.398 325.924V330.038ZM258.398 323.044C258.152 322.962 257.905 322.879 257.658 322.879H228.366C228.119 322.879 227.79 322.962 227.625 323.044V318.93C227.872 319.012 228.119 319.094 228.366 319.094H257.658C257.905 319.094 258.234 319.012 258.398 318.93V323.044ZM258.398 315.967C258.152 315.885 257.905 315.803 257.658 315.803H228.366C228.119 315.803 227.79 315.885 227.625 315.967V311.853C227.872 311.936 228.119 312.018 228.366 312.018H257.658C257.905 312.018 258.234 311.936 258.398 311.853V315.967ZM258.398 308.973C258.152 308.891 257.905 308.809 257.658 308.809H228.366C228.119 308.809 227.79 308.891 227.625 308.973V304.859C227.872 304.942 228.119 305.024 228.366 305.024H257.658C257.905 305.024 258.234 304.942 258.398 304.859V308.973ZM258.398 301.897C258.152 301.815 257.905 301.733 257.658 301.733H228.366C228.119 301.733 227.79 301.815 227.625 301.897V297.783C227.872 297.865 228.119 297.947 228.366 297.947H257.658C257.905 297.947 258.234 297.865 258.398 297.783V301.897ZM258.398 294.821C258.152 294.738 257.905 294.656 257.658 294.656H228.366C228.119 294.656 227.79 294.738 227.625 294.821V290.707C227.872 290.789 228.119 290.871 228.366 290.871H257.658C257.905 290.871 258.234 290.789 258.398 290.707V294.821ZM258.398 282.478V287.827C258.152 287.744 257.905 287.662 257.658 287.662H228.366C228.119 287.662 227.79 287.744 227.625 287.827V282.478C227.625 280.915 228.942 279.598 230.505 279.598H255.601C257.082 279.598 258.398 280.833 258.398 282.478Z" fill="#737373"/>
</svg>
