<svg width="99" height="95" viewBox="0 0 99 95" fill="none" xmlns="http://www.w3.org/2000/svg">
<g clip-path="url(#clip0_53_5300)">
<path fill-rule="evenodd" clip-rule="evenodd" d="M70.933 0.000205159H23.9845C22.9639 14.1058 12.9278 23.7927 0 27.1916C3.57216 57.9519 20.4124 82.5941 49.5 95.0002C74.1649 84.2936 92.366 64.2399 97.6392 39.0879C102.402 18.0145 93.8969 -0.169741 70.933 0.000205159ZM94.2371 38.4081C88.9639 62.8804 71.9536 81.0646 49.5 91.2614C23.8144 80.0449 7.99484 57.9519 3.74227 29.5709C15.8196 25.4922 25.0052 16.3151 27.0464 3.39913H70.933C91.6856 3.39913 98.4897 19.544 94.2371 38.4081Z" fill="white"/>
<path fill-rule="evenodd" clip-rule="evenodd" d="M78.2474 32.4598H54.0928L54.9433 36.0286L78.2474 34.3292C79.4381 34.1592 79.4381 32.4598 78.2474 32.4598ZM54.2629 18.3542L60.3866 16.3149C61.2371 15.975 60.8969 15.4651 60.5567 15.4651H54.7732L54.0928 9.17712C54.0928 8.83723 53.5824 8.66728 53.4123 9.17712L51.5412 15.4651H45.5876C45.0773 15.4651 45.0773 16.1449 45.5876 16.3149L51.0309 18.3542L38.2732 32.6297H11.2268C10.2062 32.6297 10.0361 34.4991 11.2268 34.4991L34.701 37.3882C33.8505 38.7478 32.6598 40.2773 32.1495 41.8068C31.6391 43.5063 33 44.6959 34.1907 44.526C36.2319 44.0161 39.8041 39.7675 41.1649 37.8981L41.6752 37.0483L46.6082 36.7084C46.9484 35.009 47.4587 33.6494 47.6288 32.6297H44.3969L54.2629 18.3542Z" fill="white"/>
<path fill-rule="evenodd" clip-rule="evenodd" d="M52.0515 57.6118L49.5 45.0358L46.4381 57.6118H52.0515ZM67.5309 61.5206L73.4845 54.3828V54.2129C73.4845 53.3631 72.9742 52.6834 71.6134 52.6834V50.9839H78.9278V52.6834C77.0567 52.6834 77.0567 53.3631 77.0567 55.2325V63.5599C77.0567 65.4293 77.2268 66.1091 78.9278 66.1091V67.8086H71.6134V66.1091C73.3144 66.1091 73.4845 65.4293 73.4845 63.5599V57.102L67.5309 64.4097V64.7495C67.5309 65.7692 68.0412 66.2791 69.4021 66.2791V67.9785H51.3711V66.2791C52.732 66.2791 53.5825 66.1091 53.5825 64.9195C53.5825 64.0698 53.2423 62.2003 52.732 59.991H46.0979L45.2474 63.39C44.567 65.5993 44.9072 66.449 47.1185 66.449V68.1485H31.9794V66.449C33.8505 66.449 34.0206 65.7692 34.0206 63.8998V56.0823L29.4278 67.4687L24.835 55.7424V64.0698C24.835 65.5993 25.0051 66.449 26.7062 66.449V68.1485H21.0928V66.449C22.9639 66.449 23.134 65.2594 23.134 63.7299V55.5724C23.134 54.0429 23.134 53.0232 21.2629 53.0232V51.3238H27.2165L30.4484 59.991L33.6804 51.3238H39.4639V53.0232C37.5928 53.0232 37.5928 53.703 37.5928 55.5724V63.8998C37.5928 65.4293 37.7629 65.9392 38.2732 66.1091C39.2938 66.449 41.5051 66.449 42.0155 65.2594C42.3557 64.5796 42.866 63.22 43.3763 61.5206L51.0309 30.5903L58.0051 60.5009C58.6856 63.7299 59.1959 64.5796 59.8763 65.2594C60.5567 65.9392 62.9381 66.2791 63.6185 65.4293C63.7887 65.2594 63.9588 64.9195 63.9588 63.39V55.0626C63.9588 53.1932 63.7887 52.5134 62.0876 52.5134V50.8139H69.4021V52.5134C67.5309 52.5134 67.5309 53.1932 67.5309 55.0626V61.5206Z" fill="white"/>
</g>
<defs>
<clipPath id="clip0_53_5300">
<rect width="99" height="95" fill="white"/>
</clipPath>
</defs>
</svg>
