<svg width="110" height="422" viewBox="0 0 110 422" fill="none" xmlns="http://www.w3.org/2000/svg">
<path d="M109.552 421.06H82.3722C80.93 421.06 79.4878 420.387 78.4894 419.265C28.2345 362.641 0.611023 290.542 0.611023 216.314V201.849C0.611023 128.966 27.5689 57.9886 76.4925 1.92448C77.4909 0.803199 78.9331 0.130432 80.3753 0.130432H109.552V0.915326H80.3753C79.155 0.915326 77.9347 1.47597 77.0472 2.373C28.2345 58.2128 1.38759 129.078 1.38759 201.737V216.201C1.38759 290.318 29.0111 362.192 79.044 418.593C79.8206 419.49 81.0409 420.05 82.3722 420.05H109.552V421.06Z" fill="#6B71FF"/>
</svg>
