<svg width="72" height="71" viewBox="0 0 72 71" fill="none" xmlns="http://www.w3.org/2000/svg">
<g clip-path="url(#clip0_118_76)">
<path d="M69.2812 35.5C69.2812 39.8706 68.4204 44.1983 66.7479 48.2362C65.0753 52.2741 62.6238 55.9429 59.5334 59.0334C56.4429 62.1238 52.774 64.5753 48.7362 66.2479C44.6983 67.9204 40.3706 68.7813 36 68.7813C31.6294 68.7813 27.3017 67.9204 23.2638 66.2479C19.2259 64.5753 15.5571 62.1239 12.4666 59.0334C9.37615 55.943 6.92467 52.2741 5.25213 48.2362C3.5796 44.1983 2.71875 39.8706 2.71875 35.5C2.71875 31.1295 3.57959 26.8017 5.25213 22.7638C6.92467 18.726 9.37615 15.0571 12.4666 11.9666C15.557 8.87616 19.2259 6.42468 23.2638 4.75214C27.3017 3.0796 31.6294 2.21875 36 2.21875C40.3705 2.21875 44.6983 3.0796 48.7362 4.75214C52.774 6.42468 56.4429 8.87615 59.5334 11.9666C62.6238 15.0571 65.0753 18.7259 66.7479 22.7638C68.4204 26.8017 69.2812 31.1294 69.2812 35.5ZM0.499997 35.5C0.499998 44.9152 4.24016 53.9448 10.8977 60.6023C17.5552 67.2598 26.5848 71 36 71C45.4152 71 54.4447 67.2598 61.1023 60.6023C67.7598 53.9448 71.5 44.9152 71.5 35.5C71.5 26.0848 67.7598 17.0552 61.1023 10.3977C54.4447 3.74017 45.4152 2.28041e-06 36 3.10351e-06C26.5848 3.92661e-06 17.5552 3.74017 10.8977 10.3977C4.24016 17.0553 0.499996 26.0848 0.499997 35.5ZM39.0092 50.7123L53.4311 36.2904C53.8609 35.8605 53.8609 35.1533 53.4311 34.7234L39.0092 20.3016C38.5793 19.8717 37.8721 19.8717 37.4422 20.3016C37.0123 20.7314 37.0123 21.4387 37.4422 21.8686L49.9643 34.3906L19.3594 34.3906C18.7492 34.3906 18.25 34.8898 18.25 35.5C18.25 36.1102 18.7492 36.6094 19.3594 36.6094L49.9643 36.6094L37.4422 49.1314C37.0123 49.5613 37.0123 50.2686 37.4422 50.6984C37.8721 51.1283 38.5793 51.1283 39.0092 50.6984L39.0092 50.7123Z" fill="white"/>
</g>
<defs>
<clipPath id="clip0_118_76">
<rect width="71" height="71" fill="white" transform="translate(71.5 71) rotate(180)"/>
</clipPath>
</defs>
</svg>
