<svg width="72" height="71" viewBox="0 0 72 71" fill="none" xmlns="http://www.w3.org/2000/svg">
<g clip-path="url(#clip0_118_74)">
<path d="M2.71875 35.5C2.71875 31.1294 3.57959 26.8017 5.25213 22.7638C6.92467 18.726 9.37615 15.0571 12.4666 11.9666C15.5571 8.87615 19.226 6.42467 23.2638 4.75213C27.3017 3.07959 31.6294 2.21875 36 2.21875C40.3706 2.21875 44.6983 3.07959 48.7362 4.75213C52.7741 6.42467 56.4429 8.87615 59.5334 11.9666C62.6238 15.0571 65.0753 18.726 66.7479 22.7638C68.4204 26.8017 69.2812 31.1294 69.2812 35.5C69.2812 39.8706 68.4204 44.1983 66.7479 48.2362C65.0753 52.2741 62.6238 55.9429 59.5334 59.0334C56.4429 62.1238 52.7741 64.5753 48.7362 66.2479C44.6983 67.9204 40.3706 68.7812 36 68.7812C31.6294 68.7812 27.3017 67.9204 23.2638 66.2479C19.226 64.5753 15.5571 62.1238 12.4666 59.0334C9.37615 55.9429 6.92467 52.2741 5.25213 48.2362C3.57959 44.1983 2.71875 39.8706 2.71875 35.5ZM71.5 35.5C71.5 26.0848 67.7598 17.0553 61.1023 10.3977C54.4448 3.74017 45.4152 0 36 0C26.5848 0 17.5553 3.74017 10.8977 10.3977C4.24017 17.0553 0.5 26.0848 0.5 35.5C0.5 44.9152 4.24017 53.9448 10.8977 60.6023C17.5553 67.2598 26.5848 71 36 71C45.4152 71 54.4448 67.2598 61.1023 60.6023C67.7598 53.9448 71.5 44.9152 71.5 35.5ZM32.9908 20.2877L18.5689 34.7096C18.1391 35.1395 18.1391 35.8467 18.5689 36.2766L32.9908 50.6984C33.4207 51.1283 34.1279 51.1283 34.5578 50.6984C34.9877 50.2686 34.9877 49.5613 34.5578 49.1314L22.0357 36.6094H52.6406C53.2508 36.6094 53.75 36.1102 53.75 35.5C53.75 34.8898 53.2508 34.3906 52.6406 34.3906H22.0357L34.5578 21.8686C34.9877 21.4387 34.9877 20.7314 34.5578 20.3016C34.1279 19.8717 33.4207 19.8717 32.9908 20.3016V20.2877Z" fill="white"/>
</g>
<defs>
<clipPath id="clip0_118_74">
<rect width="71" height="71" fill="white" transform="translate(0.5)"/>
</clipPath>
</defs>
</svg>
