<svg width="220" height="40" viewBox="0 0 220 40" fill="none" xmlns="http://www.w3.org/2000/svg">
<path d="M100.967 0C93.2361 0 87 6.2831 87 13.9909C87 21.6986 93.2725 27.9817 100.967 27.9817C108.699 27.9817 114.935 21.6986 114.935 13.9909C114.935 6.2831 108.699 0 100.967 0ZM100.967 20.3105C97.5029 20.3105 94.6583 17.4977 94.6583 13.9909C94.6583 10.484 97.4664 7.67123 100.967 7.67123C104.432 7.67123 107.276 10.484 107.276 13.9909C107.276 17.4977 104.468 20.3105 100.967 20.3105Z" fill="white"/>
<path d="M112.856 37.0776L109.319 30.2466C106.802 31.5251 103.994 32.2922 100.967 32.2922C97.9405 32.2922 95.096 31.5617 92.5797 30.2466C90.9751 33.3516 89.5163 36.2009 89.0422 37.0776C92.6161 38.9407 96.6641 40 100.967 40C105.271 39.9635 109.282 38.9041 112.856 37.0776Z" fill="white"/>
<path d="M132.804 15.3059C132.002 15.1233 131.382 14.8676 130.871 14.5753L131.893 12.2374C132.33 12.5297 132.877 12.7488 133.497 12.895C134.117 13.0411 134.737 13.1507 135.321 13.1507C135.868 13.1507 136.269 13.0776 136.488 12.968C136.706 12.8584 136.852 12.6758 136.852 12.4566C136.852 12.2374 136.706 12.0913 136.415 11.9817C136.123 11.9087 135.685 11.7991 135.065 11.726C134.299 11.6164 133.607 11.5068 133.059 11.3607C132.512 11.2146 132.038 10.9224 131.637 10.484C131.236 10.0457 131.054 9.46117 131.054 8.69404C131.054 8.07304 131.236 7.5251 131.601 7.01369C131.965 6.5388 132.512 6.13697 133.242 5.84473C133.971 5.5525 134.81 5.40637 135.831 5.40637C136.56 5.40637 137.253 5.47943 137.946 5.62555C138.639 5.77167 139.223 5.99085 139.697 6.24656L138.676 8.58446C137.8 8.10957 136.852 7.85387 135.868 7.85387C135.321 7.85387 134.919 7.92692 134.664 8.03651C134.409 8.1461 134.299 8.32875 134.299 8.54793C134.299 8.7671 134.445 8.94976 134.701 9.02282C134.992 9.09588 135.43 9.20546 136.086 9.31505C136.889 9.42464 137.545 9.57076 138.092 9.71688C138.639 9.863 139.077 10.1552 139.478 10.5936C139.879 10.9954 140.061 11.5799 140.061 12.347C140.061 12.968 139.879 13.516 139.514 13.9908C139.15 14.4657 138.603 14.8676 137.873 15.1233C137.144 15.4155 136.269 15.5251 135.248 15.5251C134.409 15.5982 133.607 15.5251 132.804 15.3059Z" fill="white"/>
<path d="M150.163 6.06391C150.893 6.46574 151.476 7.08674 151.914 7.85386C152.351 8.62099 152.57 9.4977 152.57 10.5205C152.57 11.5434 152.351 12.4201 151.914 13.1872C151.476 13.9543 150.893 14.5388 150.163 14.9772C149.434 15.379 148.631 15.5982 147.72 15.5982C146.589 15.5982 145.678 15.2694 144.985 14.5753V18.9589H141.557V5.62555H144.839V6.61186C145.495 5.84473 146.443 5.47944 147.72 5.47944C148.631 5.44291 149.434 5.66209 150.163 6.06391ZM148.486 12.2374C148.887 11.8356 149.069 11.2511 149.069 10.5205C149.069 9.78993 148.887 9.24199 148.486 8.80364C148.084 8.40181 147.61 8.18263 146.99 8.18263C146.37 8.18263 145.896 8.40181 145.495 8.80364C145.094 9.20546 144.912 9.78993 144.912 10.5205C144.912 11.2511 145.094 11.7991 145.495 12.2374C145.896 12.6393 146.37 12.8584 146.99 12.8584C147.61 12.8584 148.121 12.6758 148.486 12.2374Z" fill="white"/>
<path d="M158.77 5.80823C159.317 5.58905 159.973 5.47946 160.702 5.47946V8.58448C160.374 8.54795 160.119 8.54795 159.937 8.54795C159.207 8.54795 158.624 8.7306 158.223 9.13243C157.821 9.53426 157.603 10.1553 157.603 10.9589V15.4521H154.175V5.62558H157.457V6.79453C157.749 6.35618 158.223 6.0274 158.77 5.80823Z" fill="white"/>
<path d="M162.307 4.01826C161.906 3.65297 161.724 3.25114 161.724 2.70319C161.724 2.19178 161.906 1.75342 162.307 1.38813C162.708 1.02283 163.182 0.876709 163.839 0.876709C164.459 0.876709 164.969 1.05936 165.37 1.38813C165.772 1.71689 165.954 2.15525 165.954 2.66667C165.954 3.21461 165.772 3.65297 165.37 4.01826C164.969 4.38356 164.495 4.56621 163.839 4.56621C163.182 4.52968 162.708 4.34703 162.307 4.01826ZM162.125 5.62557H165.553V15.452H162.125V5.62557Z" fill="white"/>
<path d="M177.077 6.53881C177.806 7.26941 178.171 8.3653 178.171 9.82648V15.4521H174.743V10.411C174.743 9.05936 174.196 8.40183 173.138 8.40183C172.555 8.40183 172.081 8.58448 171.716 8.98631C171.351 9.38813 171.169 9.93607 171.169 10.7397V15.4886H167.741V5.6621H171.023V6.72146C171.424 6.31963 171.862 6.0274 172.409 5.80822C172.956 5.58904 173.503 5.47945 174.159 5.47945C175.363 5.44292 176.347 5.80822 177.077 6.53881Z" fill="white"/>
<path d="M187.106 15.0502C186.814 15.2329 186.449 15.379 186.048 15.452C185.647 15.5616 185.173 15.5982 184.735 15.5982C183.459 15.5982 182.474 15.2694 181.781 14.6484C181.088 14.0274 180.76 13.0776 180.76 11.8356V8.54793H179.338V5.99085H180.76V3.43378H184.188V5.99085H186.449V8.54793H184.188V11.7991C184.188 12.1644 184.297 12.4201 184.48 12.6393C184.662 12.8219 184.917 12.9315 185.246 12.9315C185.647 12.9315 185.975 12.8219 186.303 12.6393L187.106 15.0502Z" fill="white"/>
<path d="M141.155 23.5616V33.1689H139.514V31.7078C139.15 32.2192 138.712 32.5845 138.129 32.8402C137.545 33.0959 136.925 33.242 136.269 33.242C134.992 33.242 133.971 32.8767 133.242 32.1827C132.512 31.4886 132.148 30.4292 132.148 29.0411V23.5616H133.898V28.895C133.898 29.8082 134.117 30.5388 134.555 31.0137C134.992 31.4886 135.649 31.7443 136.488 31.7443C137.399 31.7443 138.129 31.4521 138.676 30.9041C139.223 30.3562 139.478 29.5525 139.478 28.5662V23.5616H141.155Z" fill="white"/>
<path d="M152.461 24.5114C153.19 25.2055 153.555 26.2648 153.555 27.6164V33.1324H151.804V27.7991C151.804 26.8858 151.585 26.1552 151.148 25.6804C150.71 25.2055 150.054 24.9863 149.215 24.9863C148.267 24.9863 147.537 25.2785 146.99 25.8265C146.443 26.3744 146.188 27.1781 146.188 28.2009V33.1324H144.438V23.5616H146.115V25.0228C146.48 24.5114 146.954 24.1461 147.537 23.8904C148.121 23.6347 148.814 23.4886 149.58 23.4886C150.783 23.4521 151.768 23.8174 152.461 24.5114Z" fill="white"/>
<path d="M156.8 21.3699C156.582 21.1507 156.472 20.895 156.472 20.5662C156.472 20.2375 156.582 19.9818 156.8 19.7626C157.019 19.5434 157.311 19.4338 157.639 19.4338C157.967 19.4338 158.259 19.5434 158.478 19.7626C158.697 19.9818 158.806 20.2375 158.806 20.5662C158.806 20.895 158.697 21.1507 158.478 21.4064C158.259 21.6256 157.967 21.7352 157.639 21.7352C157.311 21.6986 157.019 21.5891 156.8 21.3699ZM156.764 23.5617H158.514V33.169H156.764V23.5617Z" fill="white"/>
<path d="M170.294 23.5616L166.1 33.1689H164.313L160.155 23.5616H161.979L165.261 31.2694L168.616 23.5616H170.294Z" fill="white"/>
<path d="M180.286 28.9315H172.518C172.628 29.7717 172.992 30.4658 173.612 30.9772C174.232 31.4886 175.035 31.7443 175.983 31.7443C177.113 31.7443 178.061 31.3425 178.754 30.5754L179.702 31.7078C179.265 32.2192 178.718 32.5845 178.098 32.8767C177.441 33.1324 176.749 33.2785 175.946 33.2785C174.925 33.2785 174.05 33.0594 173.248 32.6575C172.482 32.2557 171.862 31.6712 171.424 30.9041C170.987 30.1735 170.768 29.2968 170.768 28.3836C170.768 27.4703 170.987 26.6301 171.388 25.863C171.789 25.1324 172.372 24.548 173.102 24.1096C173.831 23.7078 174.67 23.4886 175.582 23.4886C176.493 23.4886 177.332 23.7078 178.025 24.1096C178.754 24.5114 179.301 25.0959 179.702 25.863C180.104 26.6301 180.322 27.4703 180.322 28.4201C180.322 28.5297 180.322 28.7123 180.286 28.9315ZM173.503 25.6804C172.956 26.1918 172.628 26.8493 172.518 27.6895H178.681C178.572 26.8858 178.244 26.2283 177.697 25.7169C177.15 25.2055 176.457 24.9498 175.618 24.9498C174.779 24.9498 174.05 25.169 173.503 25.6804Z" fill="white"/>
<path d="M185.72 23.8904C186.303 23.5982 187.033 23.4521 187.871 23.4521V25.1324C187.762 25.1324 187.653 25.1324 187.47 25.1324C186.522 25.1324 185.793 25.4247 185.246 25.9726C184.699 26.5206 184.443 27.3242 184.443 28.3836V33.169H182.693V23.5617H184.37V25.169C184.699 24.5845 185.136 24.1827 185.72 23.8904Z" fill="white"/>
<path d="M190.57 32.9498C189.841 32.7306 189.294 32.4749 188.856 32.1461L189.585 30.758C190.023 31.0503 190.534 31.306 191.117 31.4886C191.737 31.6713 192.321 31.7443 192.94 31.7443C194.472 31.7443 195.202 31.306 195.202 30.4292C195.202 30.137 195.092 29.9178 194.91 29.7352C194.691 29.5525 194.436 29.4429 194.144 29.3699C193.852 29.2968 193.415 29.1872 192.831 29.1142C192.065 29.0046 191.445 28.8585 190.935 28.7124C190.461 28.5662 190.023 28.274 189.695 27.9087C189.33 27.5434 189.184 26.9955 189.184 26.3379C189.184 25.4612 189.549 24.7671 190.278 24.2557C191.008 23.7443 191.956 23.4521 193.196 23.4521C193.852 23.4521 194.472 23.5251 195.129 23.6713C195.785 23.8174 196.296 24.0366 196.697 24.2923L195.967 25.6804C195.202 25.169 194.253 24.9133 193.196 24.9133C192.466 24.9133 191.883 25.0229 191.518 25.2786C191.117 25.5343 190.935 25.8265 190.935 26.2283C190.935 26.5571 191.044 26.7763 191.263 26.9589C191.482 27.1416 191.737 27.2877 192.065 27.3608C192.393 27.4338 192.831 27.5434 193.415 27.653C194.18 27.7991 194.8 27.9452 195.274 28.0913C195.749 28.2375 196.15 28.4932 196.478 28.8585C196.806 29.2238 196.988 29.7352 196.988 30.3927C196.988 31.2694 196.624 31.9635 195.894 32.4749C195.165 32.9863 194.144 33.242 192.868 33.242C192.065 33.242 191.299 33.1325 190.57 32.9498Z" fill="white"/>
<path d="M199.177 21.3699C198.958 21.1507 198.848 20.895 198.848 20.5662C198.848 20.2375 198.958 19.9818 199.177 19.7626C199.395 19.5434 199.687 19.4338 200.015 19.4338C200.344 19.4338 200.635 19.5434 200.854 19.7626C201.073 19.9818 201.182 20.2375 201.182 20.5662C201.182 20.895 201.073 21.1507 200.854 21.4064C200.635 21.6256 200.344 21.7352 200.015 21.7352C199.687 21.7352 199.395 21.5891 199.177 21.3699ZM199.14 23.5617H200.891V33.169H199.14V23.5617Z" fill="white"/>
<path d="M209.57 32.5845C209.315 32.8037 208.987 32.9863 208.622 33.0959C208.257 33.2055 207.856 33.2785 207.455 33.2785C206.507 33.2785 205.741 33.0228 205.23 32.5114C204.683 32 204.428 31.2329 204.428 30.2831V25.0228H202.787V23.5616H204.428V21.4429H206.179V23.5616H208.914V24.9863H206.179V30.1735C206.179 30.6849 206.324 31.0868 206.58 31.379C206.835 31.6712 207.2 31.7808 207.71 31.7808C208.257 31.7808 208.695 31.6347 209.059 31.3425L209.57 32.5845Z" fill="white"/>
<path d="M220 23.5616L215.369 34.1187C214.967 35.105 214.493 35.7991 213.946 36.2009C213.399 36.6027 212.743 36.7854 211.977 36.7854C211.503 36.7854 211.065 36.7123 210.628 36.5662C210.19 36.4201 209.825 36.2009 209.534 35.9087L210.263 34.5936C210.773 35.0685 211.321 35.2877 211.977 35.2877C212.415 35.2877 212.743 35.1781 213.035 34.9589C213.326 34.7397 213.582 34.3379 213.8 33.8265L214.092 33.1689L209.825 23.5616H211.649L215.004 31.2329L218.322 23.5616H220Z" fill="white"/>
<g clip-path="url(#clip0_8_148)">
<path fill-rule="evenodd" clip-rule="evenodd" d="M27.9433 0.999758H9.44845C9.04639 6.4935 5.09278 10.2663 0 11.5901C1.40722 23.5704 8.04124 33.1679 19.5 37.9998C29.2165 33.8298 36.3866 26.0194 38.4639 16.2234C40.3402 8.01586 36.9897 0.933569 27.9433 0.999758ZM37.1237 15.9586C35.0464 25.4899 28.3454 32.5722 19.5 36.5436C9.38144 32.1751 3.14948 23.5704 1.47423 12.5168C6.23196 10.9282 9.85051 7.35396 10.6546 2.32355H27.9433C36.1186 2.32355 38.799 8.61156 37.1237 15.9586Z" fill="white"/>
<path fill-rule="evenodd" clip-rule="evenodd" d="M30.8247 13.6422H21.3093L21.6443 15.0322L30.8247 14.3703C31.2938 14.3041 31.2938 13.6422 30.8247 13.6422ZM21.3763 8.14848L23.7887 7.3542C24.1237 7.22182 23.9897 7.02325 23.8557 7.02325H21.5773L21.3093 4.57424C21.3093 4.44186 21.1082 4.37567 21.0412 4.57424L20.3041 7.02325H17.9588C17.7577 7.02325 17.7577 7.28801 17.9588 7.3542L20.1031 8.14848L15.0773 13.7084H4.42268C4.02062 13.7084 3.9536 14.4365 4.42268 14.4365L13.6701 15.5617C13.335 16.0912 12.866 16.6869 12.6649 17.2826C12.4639 17.9445 13 18.4079 13.4691 18.3417C14.2732 18.1431 15.6804 16.4884 16.2165 15.7603L16.4175 15.4293L18.3608 15.297C18.4948 14.6351 18.6959 14.1055 18.7629 13.7084H17.4897L21.3763 8.14848Z" fill="white"/>
<path fill-rule="evenodd" clip-rule="evenodd" d="M20.5051 23.4383L19.5 18.5402L18.2938 23.4383H20.5051ZM26.6031 24.9606L28.9484 22.1807V22.1145C28.9484 21.7835 28.7474 21.5188 28.2113 21.5188V20.8569H31.0928V21.5188C30.3557 21.5188 30.3557 21.7835 30.3557 22.5116V25.7549C30.3557 26.483 30.4227 26.7478 31.0928 26.7478V27.4097H28.2113V26.7478C28.8814 26.7478 28.9484 26.483 28.9484 25.7549V23.2397L26.6031 26.0859V26.2182C26.6031 26.6154 26.8041 26.8139 27.3402 26.8139V27.4758H20.2371V26.8139C20.7732 26.8139 21.1082 26.7478 21.1082 26.2844C21.1082 25.9535 20.9742 25.2254 20.7732 24.3649H18.1598L17.8247 25.6887C17.5567 26.5492 17.6907 26.8801 18.5618 26.8801V27.542H12.5979V26.8801C13.335 26.8801 13.402 26.6154 13.402 25.8873V22.8426L11.5928 27.2773L9.78349 22.7102V25.9535C9.78349 26.5492 9.8505 26.8801 10.5206 26.8801V27.542H8.30927V26.8801C9.04638 26.8801 9.11339 26.4168 9.11339 25.8211V22.644C9.11339 22.0483 9.11339 21.6512 8.37628 21.6512V20.9893H10.7216L11.9948 24.3649L13.268 20.9893H15.5464V21.6512C14.8093 21.6512 14.8093 21.9159 14.8093 22.644V25.8873C14.8093 26.483 14.8763 26.6816 15.0773 26.7478C15.4794 26.8801 16.3505 26.8801 16.5515 26.4168C16.6856 26.152 16.8866 25.6225 17.0876 24.9606L20.1031 12.9141L22.8505 24.5635C23.1185 25.8211 23.3196 26.152 23.5876 26.4168C23.8557 26.6816 24.7938 26.8139 25.0618 26.483C25.1289 26.4168 25.1959 26.2844 25.1959 25.6887V22.4454C25.1959 21.7173 25.1289 21.4526 24.4587 21.4526V20.7907H27.3402V21.4526C26.6031 21.4526 26.6031 21.7173 26.6031 22.4454V24.9606Z" fill="white"/>
</g>
<path d="M57 14L67 24M57 24L67 14" stroke="white" stroke-opacity="0.5" stroke-width="2" stroke-linecap="round"/>
<defs>
<clipPath id="clip0_8_148">
<rect width="39" height="37" fill="white" transform="translate(0 1)"/>
</clipPath>
</defs>
</svg>
